<?xml version="1.0" encoding="utf-8"?>
<!-- Generator: Adobe Illustrator 23.0.0, SVG Export Plug-In . SVG Version: 6.00 Build 0)  -->
<svg version="1.1" id="Layer_1" xmlns:serif="http://www.serif.com/"
	 xmlns="http://www.w3.org/2000/svg" xmlns:xlink="http://www.w3.org/1999/xlink" x="0px" y="0px" viewBox="0 0 1300 943"
	 style="enable-background:new 0 0 1300 943;" xml:space="preserve">
<style type="text/css">
	.st0{fill-rule:evenodd;clip-rule:evenodd;fill:#FEFCEF;}
</style>
<g transform="matrix(1,0,0,1,-118,-1738)">
	<g transform="matrix(1,0,0,1,-136.629,-326.763)">
		<path class="st0" d="M345.8,2489.3c-136.4-73.7-140.1-387.3,129.7-421.6c100.9-12.8,187.5,18.2,263.1,85.4
			c33.8,30,65.9,63.4,109.7,78.2c97.2,32.9,215.6,0.2,316.4,12.9c201,25.3,428,240,383.5,458c-12.4,60.9-38.5,125.9-77.4,175.1
			c-32.7,41.5-71,72.4-119.2,94.2c-47,21.3-98.7,32.1-150,35.6c-255.5,17.6-199.9-331.8-408.2-424.5
			c-62.4-27.8-131.8-33.7-199.4-31.7C499.4,2553.7,433.9,2536.9,345.8,2489.3z"/>
	</g>
</g>
</svg>
