<?xml version="1.0" encoding="utf-8"?>
<!-- Generator: Adobe Illustrator 23.0.0, SVG Export Plug-In . SVG Version: 6.00 Build 0)  -->
<svg version="1.1" id="Layer_1" xmlns="http://www.w3.org/2000/svg" xmlns:xlink="http://www.w3.org/1999/xlink" x="0px" y="0px"
	 viewBox="0 0 419 198" style="enable-background:new 0 0 419 198;" xml:space="preserve">
<style type="text/css">
	.st0{fill:#51B730;}
</style>
<g>
	<circle class="st0" cx="-209.5" cy="8" r="5"/>
	<circle class="st0" cx="-189.5" cy="8" r="5"/>
	<circle class="st0" cx="-169.5" cy="8" r="5"/>
	<circle class="st0" cx="-149.5" cy="8" r="5"/>
	<circle class="st0" cx="-129.5" cy="8" r="5"/>
	<circle class="st0" cx="-109.5" cy="8" r="5"/>
	<circle class="st0" cx="-89.5" cy="8" r="5"/>
	<circle class="st0" cx="-69.5" cy="8" r="5"/>
	<circle class="st0" cx="-49.5" cy="8" r="5"/>
	<circle class="st0" cx="-29.5" cy="8" r="5"/>
	<circle class="st0" cx="-9.5" cy="8" r="5"/>
	<circle class="st0" cx="10.5" cy="8" r="5"/>
	<circle class="st0" cx="30.5" cy="8" r="5"/>
	<circle class="st0" cx="50.5" cy="8" r="5"/>
	<circle class="st0" cx="70.5" cy="8" r="5"/>
	<circle class="st0" cx="90.5" cy="8" r="5"/>
	<circle class="st0" cx="110.5" cy="8" r="5"/>
	<circle class="st0" cx="130.5" cy="8" r="5"/>
	<circle class="st0" cx="150.5" cy="8" r="5"/>
	<circle class="st0" cx="170.5" cy="8" r="5"/>
	<circle class="st0" cx="190.5" cy="8" r="5"/>
	<circle class="st0" cx="210.5" cy="8" r="5"/>
	<circle class="st0" cx="230.5" cy="8" r="5"/>
	<circle class="st0" cx="250.5" cy="8" r="5"/>
	<circle class="st0" cx="270.5" cy="8" r="5"/>
	<circle class="st0" cx="290.5" cy="8" r="5"/>
	<circle class="st0" cx="310.5" cy="8" r="5"/>
	<circle class="st0" cx="330.5" cy="8" r="5"/>
	<circle class="st0" cx="350.5" cy="8" r="5"/>
	<circle class="st0" cx="370.5" cy="8" r="5"/>
	<circle class="st0" cx="390.5" cy="8" r="5"/>
	<circle class="st0" cx="410.5" cy="8" r="5"/>
	<circle class="st0" cx="430.5" cy="8" r="5"/>
	<circle class="st0" cx="450.5" cy="8" r="5"/>
	<circle class="st0" cx="470.5" cy="8" r="5"/>
	<circle class="st0" cx="490.5" cy="8" r="5"/>
	<circle class="st0" cx="510.5" cy="8" r="5"/>
	<circle class="st0" cx="530.5" cy="8" r="5"/>
	<circle class="st0" cx="550.5" cy="8" r="5"/>
	<circle class="st0" cx="570.5" cy="8" r="5"/>
	<circle class="st0" cx="590.5" cy="8" r="5"/>
	<circle class="st0" cx="610.5" cy="8" r="5"/>
	<circle class="st0" cx="630.5" cy="8" r="5"/>
	<circle class="st0" cx="-209.5" cy="28" r="5"/>
	<circle class="st0" cx="-189.5" cy="28" r="5"/>
	<circle class="st0" cx="-169.5" cy="28" r="5"/>
	<circle class="st0" cx="-149.5" cy="28" r="5"/>
	<circle class="st0" cx="-129.5" cy="28" r="5"/>
	<circle class="st0" cx="-109.5" cy="28" r="5"/>
	<circle class="st0" cx="-89.5" cy="28" r="5"/>
	<circle class="st0" cx="-69.5" cy="28" r="5"/>
	<circle class="st0" cx="-49.5" cy="28" r="5"/>
	<circle class="st0" cx="-29.5" cy="28" r="5"/>
	<circle class="st0" cx="-9.5" cy="28" r="5"/>
	<circle class="st0" cx="10.5" cy="28" r="5"/>
	<circle class="st0" cx="30.5" cy="28" r="5"/>
	<circle class="st0" cx="50.5" cy="28" r="5"/>
	<circle class="st0" cx="70.5" cy="28" r="5"/>
	<circle class="st0" cx="90.5" cy="28" r="5"/>
	<circle class="st0" cx="110.5" cy="28" r="5"/>
	<circle class="st0" cx="130.5" cy="28" r="5"/>
	<circle class="st0" cx="150.5" cy="28" r="5"/>
	<circle class="st0" cx="170.5" cy="28" r="5"/>
	<circle class="st0" cx="190.5" cy="28" r="5"/>
	<circle class="st0" cx="210.5" cy="28" r="5"/>
	<circle class="st0" cx="230.5" cy="28" r="5"/>
	<circle class="st0" cx="250.5" cy="28" r="5"/>
	<circle class="st0" cx="270.5" cy="28" r="5"/>
	<circle class="st0" cx="290.5" cy="28" r="5"/>
	<circle class="st0" cx="310.5" cy="28" r="5"/>
	<circle class="st0" cx="330.5" cy="28" r="5"/>
	<circle class="st0" cx="350.5" cy="28" r="5"/>
	<circle class="st0" cx="370.5" cy="28" r="5"/>
	<circle class="st0" cx="390.5" cy="28" r="5"/>
	<circle class="st0" cx="410.5" cy="28" r="5"/>
	<circle class="st0" cx="430.5" cy="28" r="5"/>
	<circle class="st0" cx="450.5" cy="28" r="5"/>
	<circle class="st0" cx="470.5" cy="28" r="5"/>
	<circle class="st0" cx="490.5" cy="28" r="5"/>
	<circle class="st0" cx="510.5" cy="28" r="5"/>
	<circle class="st0" cx="530.5" cy="28" r="5"/>
	<circle class="st0" cx="550.5" cy="28" r="5"/>
	<circle class="st0" cx="570.5" cy="28" r="5"/>
	<circle class="st0" cx="590.5" cy="28" r="5"/>
	<circle class="st0" cx="610.5" cy="28" r="5"/>
	<circle class="st0" cx="630.5" cy="28" r="5"/>
	<circle class="st0" cx="-209.5" cy="48" r="5"/>
	<circle class="st0" cx="-189.5" cy="48" r="5"/>
	<circle class="st0" cx="-169.5" cy="48" r="5"/>
	<circle class="st0" cx="-149.5" cy="48" r="5"/>
	<circle class="st0" cx="-129.5" cy="48" r="5"/>
	<circle class="st0" cx="-109.5" cy="48" r="5"/>
	<circle class="st0" cx="-89.5" cy="48" r="5"/>
	<circle class="st0" cx="-69.5" cy="48" r="5"/>
	<circle class="st0" cx="-49.5" cy="48" r="5"/>
	<circle class="st0" cx="-29.5" cy="48" r="5"/>
	<circle class="st0" cx="-9.5" cy="48" r="5"/>
	<circle class="st0" cx="10.5" cy="48" r="5"/>
	<circle class="st0" cx="30.5" cy="48" r="5"/>
	<circle class="st0" cx="50.5" cy="48" r="5"/>
	<circle class="st0" cx="70.5" cy="48" r="5"/>
	<circle class="st0" cx="90.5" cy="48" r="5"/>
	<circle class="st0" cx="110.5" cy="48" r="5"/>
	<circle class="st0" cx="130.5" cy="48" r="5"/>
	<circle class="st0" cx="150.5" cy="48" r="5"/>
	<circle class="st0" cx="170.5" cy="48" r="5"/>
	<circle class="st0" cx="190.5" cy="48" r="5"/>
	<circle class="st0" cx="210.5" cy="48" r="5"/>
	<circle class="st0" cx="230.5" cy="48" r="5"/>
	<circle class="st0" cx="250.5" cy="48" r="5"/>
	<circle class="st0" cx="270.5" cy="48" r="5"/>
	<circle class="st0" cx="290.5" cy="48" r="5"/>
	<circle class="st0" cx="310.5" cy="48" r="5"/>
	<circle class="st0" cx="330.5" cy="48" r="5"/>
	<circle class="st0" cx="350.5" cy="48" r="5"/>
	<circle class="st0" cx="370.5" cy="48" r="5"/>
	<circle class="st0" cx="390.5" cy="48" r="5"/>
	<circle class="st0" cx="410.5" cy="48" r="5"/>
	<circle class="st0" cx="430.5" cy="48" r="5"/>
	<circle class="st0" cx="450.5" cy="48" r="5"/>
	<circle class="st0" cx="470.5" cy="48" r="5"/>
	<circle class="st0" cx="490.5" cy="48" r="5"/>
	<circle class="st0" cx="510.5" cy="48" r="5"/>
	<circle class="st0" cx="530.5" cy="48" r="5"/>
	<circle class="st0" cx="550.5" cy="48" r="5"/>
	<circle class="st0" cx="570.5" cy="48" r="5"/>
	<circle class="st0" cx="590.5" cy="48" r="5"/>
	<circle class="st0" cx="610.5" cy="48" r="5"/>
	<circle class="st0" cx="630.5" cy="48" r="5"/>
	<circle class="st0" cx="-209.5" cy="68" r="5"/>
	<circle class="st0" cx="-189.5" cy="68" r="5"/>
	<circle class="st0" cx="-169.5" cy="68" r="5"/>
	<circle class="st0" cx="-149.5" cy="68" r="5"/>
	<circle class="st0" cx="-129.5" cy="68" r="5"/>
	<circle class="st0" cx="-109.5" cy="68" r="5"/>
	<circle class="st0" cx="-89.5" cy="68" r="5"/>
	<circle class="st0" cx="-69.5" cy="68" r="5"/>
	<circle class="st0" cx="-49.5" cy="68" r="5"/>
	<circle class="st0" cx="-29.5" cy="68" r="5"/>
	<circle class="st0" cx="-9.5" cy="68" r="5"/>
	<circle class="st0" cx="10.5" cy="68" r="5"/>
	<circle class="st0" cx="30.5" cy="68" r="5"/>
	<circle class="st0" cx="50.5" cy="68" r="5"/>
	<circle class="st0" cx="70.5" cy="68" r="5"/>
	<circle class="st0" cx="90.5" cy="68" r="5"/>
	<circle class="st0" cx="110.5" cy="68" r="5"/>
	<circle class="st0" cx="130.5" cy="68" r="5"/>
	<circle class="st0" cx="150.5" cy="68" r="5"/>
	<circle class="st0" cx="170.5" cy="68" r="5"/>
	<circle class="st0" cx="190.5" cy="68" r="5"/>
	<circle class="st0" cx="210.5" cy="68" r="5"/>
	<circle class="st0" cx="230.5" cy="68" r="5"/>
	<circle class="st0" cx="250.5" cy="68" r="5"/>
	<circle class="st0" cx="270.5" cy="68" r="5"/>
	<circle class="st0" cx="290.5" cy="68" r="5"/>
	<circle class="st0" cx="310.5" cy="68" r="5"/>
	<circle class="st0" cx="330.5" cy="68" r="5"/>
	<circle class="st0" cx="350.5" cy="68" r="5"/>
	<circle class="st0" cx="370.5" cy="68" r="5"/>
	<circle class="st0" cx="390.5" cy="68" r="5"/>
	<circle class="st0" cx="410.5" cy="68" r="5"/>
	<circle class="st0" cx="430.5" cy="68" r="5"/>
	<circle class="st0" cx="450.5" cy="68" r="5"/>
	<circle class="st0" cx="470.5" cy="68" r="5"/>
	<circle class="st0" cx="490.5" cy="68" r="5"/>
	<circle class="st0" cx="510.5" cy="68" r="5"/>
	<circle class="st0" cx="530.5" cy="68" r="5"/>
	<circle class="st0" cx="550.5" cy="68" r="5"/>
	<circle class="st0" cx="570.5" cy="68" r="5"/>
	<circle class="st0" cx="590.5" cy="68" r="5"/>
	<circle class="st0" cx="610.5" cy="68" r="5"/>
	<circle class="st0" cx="630.5" cy="68" r="5"/>
	<circle class="st0" cx="-209.5" cy="88" r="5"/>
	<circle class="st0" cx="-189.5" cy="88" r="5"/>
	<circle class="st0" cx="-169.5" cy="88" r="5"/>
	<circle class="st0" cx="-149.5" cy="88" r="5"/>
	<circle class="st0" cx="-129.5" cy="88" r="5"/>
	<circle class="st0" cx="-109.5" cy="88" r="5"/>
	<circle class="st0" cx="-89.5" cy="88" r="5"/>
	<circle class="st0" cx="-69.5" cy="88" r="5"/>
	<circle class="st0" cx="-49.5" cy="88" r="5"/>
	<circle class="st0" cx="-29.5" cy="88" r="5"/>
	<circle class="st0" cx="-9.5" cy="88" r="5"/>
	<circle class="st0" cx="10.5" cy="88" r="5"/>
	<circle class="st0" cx="30.5" cy="88" r="5"/>
	<circle class="st0" cx="50.5" cy="88" r="5"/>
	<circle class="st0" cx="70.5" cy="88" r="5"/>
	<circle class="st0" cx="90.5" cy="88" r="5"/>
	<circle class="st0" cx="110.5" cy="88" r="5"/>
	<circle class="st0" cx="130.5" cy="88" r="5"/>
	<circle class="st0" cx="150.5" cy="88" r="5"/>
	<circle class="st0" cx="170.5" cy="88" r="5"/>
	<circle class="st0" cx="190.5" cy="88" r="5"/>
	<circle class="st0" cx="210.5" cy="88" r="5"/>
	<circle class="st0" cx="230.5" cy="88" r="5"/>
	<circle class="st0" cx="250.5" cy="88" r="5"/>
	<circle class="st0" cx="270.5" cy="88" r="5"/>
	<circle class="st0" cx="290.5" cy="88" r="5"/>
	<circle class="st0" cx="310.5" cy="88" r="5"/>
	<circle class="st0" cx="330.5" cy="88" r="5"/>
	<circle class="st0" cx="350.5" cy="88" r="5"/>
	<circle class="st0" cx="370.5" cy="88" r="5"/>
	<circle class="st0" cx="390.5" cy="88" r="5"/>
	<circle class="st0" cx="410.5" cy="88" r="5"/>
	<circle class="st0" cx="430.5" cy="88" r="5"/>
	<circle class="st0" cx="450.5" cy="88" r="5"/>
	<circle class="st0" cx="470.5" cy="88" r="5"/>
	<circle class="st0" cx="490.5" cy="88" r="5"/>
	<circle class="st0" cx="510.5" cy="88" r="5"/>
	<circle class="st0" cx="530.5" cy="88" r="5"/>
	<circle class="st0" cx="550.5" cy="88" r="5"/>
	<circle class="st0" cx="570.5" cy="88" r="5"/>
	<circle class="st0" cx="590.5" cy="88" r="5"/>
	<circle class="st0" cx="610.5" cy="88" r="5"/>
	<circle class="st0" cx="630.5" cy="88" r="5"/>
	<circle class="st0" cx="-209.5" cy="108" r="5"/>
	<circle class="st0" cx="-189.5" cy="108" r="5"/>
	<circle class="st0" cx="-169.5" cy="108" r="5"/>
	<circle class="st0" cx="-149.5" cy="108" r="5"/>
	<circle class="st0" cx="-129.5" cy="108" r="5"/>
	<circle class="st0" cx="-109.5" cy="108" r="5"/>
	<circle class="st0" cx="-89.5" cy="108" r="5"/>
	<circle class="st0" cx="-69.5" cy="108" r="5"/>
	<circle class="st0" cx="-49.5" cy="108" r="5"/>
	<circle class="st0" cx="-29.5" cy="108" r="5"/>
	<circle class="st0" cx="-9.5" cy="108" r="5"/>
	<circle class="st0" cx="10.5" cy="108" r="5"/>
	<circle class="st0" cx="30.5" cy="108" r="5"/>
	<circle class="st0" cx="50.5" cy="108" r="5"/>
	<circle class="st0" cx="70.5" cy="108" r="5"/>
	<circle class="st0" cx="90.5" cy="108" r="5"/>
	<circle class="st0" cx="110.5" cy="108" r="5"/>
	<circle class="st0" cx="130.5" cy="108" r="5"/>
	<circle class="st0" cx="150.5" cy="108" r="5"/>
	<circle class="st0" cx="170.5" cy="108" r="5"/>
	<circle class="st0" cx="190.5" cy="108" r="5"/>
	<circle class="st0" cx="210.5" cy="108" r="5"/>
	<circle class="st0" cx="230.5" cy="108" r="5"/>
	<circle class="st0" cx="250.5" cy="108" r="5"/>
	<circle class="st0" cx="270.5" cy="108" r="5"/>
	<circle class="st0" cx="290.5" cy="108" r="5"/>
	<circle class="st0" cx="310.5" cy="108" r="5"/>
	<circle class="st0" cx="330.5" cy="108" r="5"/>
	<circle class="st0" cx="350.5" cy="108" r="5"/>
	<circle class="st0" cx="370.5" cy="108" r="5"/>
	<circle class="st0" cx="390.5" cy="108" r="5"/>
	<circle class="st0" cx="410.5" cy="108" r="5"/>
	<circle class="st0" cx="430.5" cy="108" r="5"/>
	<circle class="st0" cx="450.5" cy="108" r="5"/>
	<circle class="st0" cx="470.5" cy="108" r="5"/>
	<circle class="st0" cx="490.5" cy="108" r="5"/>
	<circle class="st0" cx="510.5" cy="108" r="5"/>
	<circle class="st0" cx="530.5" cy="108" r="5"/>
	<circle class="st0" cx="550.5" cy="108" r="5"/>
	<circle class="st0" cx="570.5" cy="108" r="5"/>
	<circle class="st0" cx="590.5" cy="108" r="5"/>
	<circle class="st0" cx="610.5" cy="108" r="5"/>
	<circle class="st0" cx="630.5" cy="108" r="5"/>
	<circle class="st0" cx="-209.5" cy="128" r="5"/>
	<circle class="st0" cx="-189.5" cy="128" r="5"/>
	<circle class="st0" cx="-169.5" cy="128" r="5"/>
	<circle class="st0" cx="-149.5" cy="128" r="5"/>
	<circle class="st0" cx="-129.5" cy="128" r="5"/>
	<circle class="st0" cx="-109.5" cy="128" r="5"/>
	<circle class="st0" cx="-89.5" cy="128" r="5"/>
	<circle class="st0" cx="-69.5" cy="128" r="5"/>
	<circle class="st0" cx="-49.5" cy="128" r="5"/>
	<circle class="st0" cx="-29.5" cy="128" r="5"/>
	<circle class="st0" cx="-9.5" cy="128" r="5"/>
	<circle class="st0" cx="10.5" cy="128" r="5"/>
	<circle class="st0" cx="30.5" cy="128" r="5"/>
	<circle class="st0" cx="50.5" cy="128" r="5"/>
	<circle class="st0" cx="70.5" cy="128" r="5"/>
	<circle class="st0" cx="90.5" cy="128" r="5"/>
	<circle class="st0" cx="110.5" cy="128" r="5"/>
	<circle class="st0" cx="130.5" cy="128" r="5"/>
	<circle class="st0" cx="150.5" cy="128" r="5"/>
	<circle class="st0" cx="170.5" cy="128" r="5"/>
	<circle class="st0" cx="190.5" cy="128" r="5"/>
	<circle class="st0" cx="210.5" cy="128" r="5"/>
	<circle class="st0" cx="230.5" cy="128" r="5"/>
	<circle class="st0" cx="250.5" cy="128" r="5"/>
	<circle class="st0" cx="270.5" cy="128" r="5"/>
	<circle class="st0" cx="290.5" cy="128" r="5"/>
	<circle class="st0" cx="310.5" cy="128" r="5"/>
	<circle class="st0" cx="330.5" cy="128" r="5"/>
	<circle class="st0" cx="350.5" cy="128" r="5"/>
	<circle class="st0" cx="370.5" cy="128" r="5"/>
	<circle class="st0" cx="390.5" cy="128" r="5"/>
	<circle class="st0" cx="410.5" cy="128" r="5"/>
	<circle class="st0" cx="430.5" cy="128" r="5"/>
	<circle class="st0" cx="450.5" cy="128" r="5"/>
	<circle class="st0" cx="470.5" cy="128" r="5"/>
	<circle class="st0" cx="490.5" cy="128" r="5"/>
	<circle class="st0" cx="510.5" cy="128" r="5"/>
	<circle class="st0" cx="530.5" cy="128" r="5"/>
	<circle class="st0" cx="550.5" cy="128" r="5"/>
	<circle class="st0" cx="570.5" cy="128" r="5"/>
	<circle class="st0" cx="590.5" cy="128" r="5"/>
	<circle class="st0" cx="610.5" cy="128" r="5"/>
	<circle class="st0" cx="630.5" cy="128" r="5"/>
	<circle class="st0" cx="-209.5" cy="148" r="5"/>
	<circle class="st0" cx="-189.5" cy="148" r="5"/>
	<circle class="st0" cx="-169.5" cy="148" r="5"/>
	<circle class="st0" cx="-149.5" cy="148" r="5"/>
	<circle class="st0" cx="-129.5" cy="148" r="5"/>
	<circle class="st0" cx="-109.5" cy="148" r="5"/>
	<circle class="st0" cx="-89.5" cy="148" r="5"/>
	<circle class="st0" cx="-69.5" cy="148" r="5"/>
	<circle class="st0" cx="-49.5" cy="148" r="5"/>
	<circle class="st0" cx="-29.5" cy="148" r="5"/>
	<circle class="st0" cx="-9.5" cy="148" r="5"/>
	<circle class="st0" cx="10.5" cy="148" r="5"/>
	<circle class="st0" cx="30.5" cy="148" r="5"/>
	<circle class="st0" cx="50.5" cy="148" r="5"/>
	<circle class="st0" cx="70.5" cy="148" r="5"/>
	<circle class="st0" cx="90.5" cy="148" r="5"/>
	<circle class="st0" cx="110.5" cy="148" r="5"/>
	<circle class="st0" cx="130.5" cy="148" r="5"/>
	<circle class="st0" cx="150.5" cy="148" r="5"/>
	<circle class="st0" cx="170.5" cy="148" r="5"/>
	<circle class="st0" cx="190.5" cy="148" r="5"/>
	<circle class="st0" cx="210.5" cy="148" r="5"/>
	<circle class="st0" cx="230.5" cy="148" r="5"/>
	<circle class="st0" cx="250.5" cy="148" r="5"/>
	<circle class="st0" cx="270.5" cy="148" r="5"/>
	<circle class="st0" cx="290.5" cy="148" r="5"/>
	<circle class="st0" cx="310.5" cy="148" r="5"/>
	<circle class="st0" cx="330.5" cy="148" r="5"/>
	<circle class="st0" cx="350.5" cy="148" r="5"/>
	<circle class="st0" cx="370.5" cy="148" r="5"/>
	<circle class="st0" cx="390.5" cy="148" r="5"/>
	<circle class="st0" cx="410.5" cy="148" r="5"/>
	<circle class="st0" cx="430.5" cy="148" r="5"/>
	<circle class="st0" cx="450.5" cy="148" r="5"/>
	<circle class="st0" cx="470.5" cy="148" r="5"/>
	<circle class="st0" cx="490.5" cy="148" r="5"/>
	<circle class="st0" cx="510.5" cy="148" r="5"/>
	<circle class="st0" cx="530.5" cy="148" r="5"/>
	<circle class="st0" cx="550.5" cy="148" r="5"/>
	<circle class="st0" cx="570.5" cy="148" r="5"/>
	<circle class="st0" cx="590.5" cy="148" r="5"/>
	<circle class="st0" cx="610.5" cy="148" r="5"/>
	<circle class="st0" cx="630.5" cy="148" r="5"/>
	<circle class="st0" cx="-209.5" cy="168" r="5"/>
	<circle class="st0" cx="-189.5" cy="168" r="5"/>
	<circle class="st0" cx="-169.5" cy="168" r="5"/>
	<circle class="st0" cx="-149.5" cy="168" r="5"/>
	<circle class="st0" cx="-129.5" cy="168" r="5"/>
	<circle class="st0" cx="-109.5" cy="168" r="5"/>
	<circle class="st0" cx="-89.5" cy="168" r="5"/>
	<circle class="st0" cx="-69.5" cy="168" r="5"/>
	<circle class="st0" cx="-49.5" cy="168" r="5"/>
	<circle class="st0" cx="-29.5" cy="168" r="5"/>
	<circle class="st0" cx="-9.5" cy="168" r="5"/>
	<circle class="st0" cx="10.5" cy="168" r="5"/>
	<circle class="st0" cx="30.5" cy="168" r="5"/>
	<circle class="st0" cx="50.5" cy="168" r="5"/>
	<circle class="st0" cx="70.5" cy="168" r="5"/>
	<circle class="st0" cx="90.5" cy="168" r="5"/>
	<circle class="st0" cx="110.5" cy="168" r="5"/>
	<circle class="st0" cx="130.5" cy="168" r="5"/>
	<circle class="st0" cx="150.5" cy="168" r="5"/>
	<circle class="st0" cx="170.5" cy="168" r="5"/>
	<circle class="st0" cx="190.5" cy="168" r="5"/>
	<circle class="st0" cx="210.5" cy="168" r="5"/>
	<circle class="st0" cx="230.5" cy="168" r="5"/>
	<circle class="st0" cx="250.5" cy="168" r="5"/>
	<circle class="st0" cx="270.5" cy="168" r="5"/>
	<circle class="st0" cx="290.5" cy="168" r="5"/>
	<circle class="st0" cx="310.5" cy="168" r="5"/>
	<circle class="st0" cx="330.5" cy="168" r="5"/>
	<circle class="st0" cx="350.5" cy="168" r="5"/>
	<circle class="st0" cx="370.5" cy="168" r="5"/>
	<circle class="st0" cx="390.5" cy="168" r="5"/>
	<circle class="st0" cx="410.5" cy="168" r="5"/>
	<circle class="st0" cx="430.5" cy="168" r="5"/>
	<circle class="st0" cx="450.5" cy="168" r="5"/>
	<circle class="st0" cx="470.5" cy="168" r="5"/>
	<circle class="st0" cx="490.5" cy="168" r="5"/>
	<circle class="st0" cx="510.5" cy="168" r="5"/>
	<circle class="st0" cx="530.5" cy="168" r="5"/>
	<circle class="st0" cx="550.5" cy="168" r="5"/>
	<circle class="st0" cx="570.5" cy="168" r="5"/>
	<circle class="st0" cx="590.5" cy="168" r="5"/>
	<circle class="st0" cx="610.5" cy="168" r="5"/>
	<circle class="st0" cx="630.5" cy="168" r="5"/>
	<circle class="st0" cx="-209.5" cy="188" r="5"/>
	<circle class="st0" cx="-189.5" cy="188" r="5"/>
	<circle class="st0" cx="-169.5" cy="188" r="5"/>
	<circle class="st0" cx="-149.5" cy="188" r="5"/>
	<circle class="st0" cx="-129.5" cy="188" r="5"/>
	<circle class="st0" cx="-109.5" cy="188" r="5"/>
	<circle class="st0" cx="-89.5" cy="188" r="5"/>
	<circle class="st0" cx="-69.5" cy="188" r="5"/>
	<circle class="st0" cx="-49.5" cy="188" r="5"/>
	<circle class="st0" cx="-29.5" cy="188" r="5"/>
	<circle class="st0" cx="-9.5" cy="188" r="5"/>
	<circle class="st0" cx="10.5" cy="188" r="5"/>
	<circle class="st0" cx="30.5" cy="188" r="5"/>
	<circle class="st0" cx="50.5" cy="188" r="5"/>
	<circle class="st0" cx="70.5" cy="188" r="5"/>
	<circle class="st0" cx="90.5" cy="188" r="5"/>
	<circle class="st0" cx="110.5" cy="188" r="5"/>
	<circle class="st0" cx="130.5" cy="188" r="5"/>
	<circle class="st0" cx="150.5" cy="188" r="5"/>
	<circle class="st0" cx="170.5" cy="188" r="5"/>
	<circle class="st0" cx="190.5" cy="188" r="5"/>
	<circle class="st0" cx="210.5" cy="188" r="5"/>
	<circle class="st0" cx="230.5" cy="188" r="5"/>
	<circle class="st0" cx="250.5" cy="188" r="5"/>
	<circle class="st0" cx="270.5" cy="188" r="5"/>
	<circle class="st0" cx="290.5" cy="188" r="5"/>
	<circle class="st0" cx="310.5" cy="188" r="5"/>
	<circle class="st0" cx="330.5" cy="188" r="5"/>
	<circle class="st0" cx="350.5" cy="188" r="5"/>
	<circle class="st0" cx="370.5" cy="188" r="5"/>
	<circle class="st0" cx="390.5" cy="188" r="5"/>
	<circle class="st0" cx="410.5" cy="188" r="5"/>
	<circle class="st0" cx="430.5" cy="188" r="5"/>
	<circle class="st0" cx="450.5" cy="188" r="5"/>
	<circle class="st0" cx="470.5" cy="188" r="5"/>
	<circle class="st0" cx="490.5" cy="188" r="5"/>
	<circle class="st0" cx="510.5" cy="188" r="5"/>
	<circle class="st0" cx="530.5" cy="188" r="5"/>
	<circle class="st0" cx="550.5" cy="188" r="5"/>
	<circle class="st0" cx="570.5" cy="188" r="5"/>
	<circle class="st0" cx="590.5" cy="188" r="5"/>
	<circle class="st0" cx="610.5" cy="188" r="5"/>
	<circle class="st0" cx="630.5" cy="188" r="5"/>
</g>
</svg>
