<?xml version="1.0" encoding="utf-8"?>
<!-- Generator: Adobe Illustrator 23.0.0, SVG Export Plug-In . SVG Version: 6.00 Build 0)  -->
<svg version="1.1" id="Layer_1" xmlns="http://www.w3.org/2000/svg" xmlns:xlink="http://www.w3.org/1999/xlink" x="0px" y="0px"
	 viewBox="0 0 852 198" style="enable-background:new 0 0 852 198;" xml:space="preserve">
<style type="text/css">
	.st0{fill:#C4C4C4;filter:url(#Adobe_OpacityMaskFilter);}
	.st1{mask:url(#mask0_1_);}
	.st2{fill:#51B730;}
</style>
<defs>
	<filter id="Adobe_OpacityMaskFilter" filterUnits="userSpaceOnUse" x="2" y="3" width="850" height="190">
		<feColorMatrix  type="matrix" values="1 0 0 0 0  0 1 0 0 0  0 0 1 0 0  0 0 0 1 0"/>
	</filter>
</defs>
<mask maskUnits="userSpaceOnUse" x="2" y="3" width="850" height="190" id="mask0_1_">
	<rect class="st0" width="852" height="198"/>
</mask>
<g class="st1">
	<circle class="st2" cx="7" cy="8" r="5"/>
	<circle class="st2" cx="27" cy="8" r="5"/>
	<circle class="st2" cx="47" cy="8" r="5"/>
	<circle class="st2" cx="67" cy="8" r="5"/>
	<circle class="st2" cx="87" cy="8" r="5"/>
	<circle class="st2" cx="107" cy="8" r="5"/>
	<circle class="st2" cx="127" cy="8" r="5"/>
	<circle class="st2" cx="147" cy="8" r="5"/>
	<circle class="st2" cx="167" cy="8" r="5"/>
	<circle class="st2" cx="187" cy="8" r="5"/>
	<circle class="st2" cx="207" cy="8" r="5"/>
	<circle class="st2" cx="227" cy="8" r="5"/>
	<circle class="st2" cx="247" cy="8" r="5"/>
	<circle class="st2" cx="267" cy="8" r="5"/>
	<circle class="st2" cx="287" cy="8" r="5"/>
	<circle class="st2" cx="307" cy="8" r="5"/>
	<circle class="st2" cx="327" cy="8" r="5"/>
	<circle class="st2" cx="347" cy="8" r="5"/>
	<circle class="st2" cx="367" cy="8" r="5"/>
	<circle class="st2" cx="387" cy="8" r="5"/>
	<circle class="st2" cx="407" cy="8" r="5"/>
	<circle class="st2" cx="427" cy="8" r="5"/>
	<circle class="st2" cx="447" cy="8" r="5"/>
	<circle class="st2" cx="467" cy="8" r="5"/>
	<circle class="st2" cx="487" cy="8" r="5"/>
	<circle class="st2" cx="507" cy="8" r="5"/>
	<circle class="st2" cx="527" cy="8" r="5"/>
	<circle class="st2" cx="547" cy="8" r="5"/>
	<circle class="st2" cx="567" cy="8" r="5"/>
	<circle class="st2" cx="587" cy="8" r="5"/>
	<circle class="st2" cx="607" cy="8" r="5"/>
	<circle class="st2" cx="627" cy="8" r="5"/>
	<circle class="st2" cx="647" cy="8" r="5"/>
	<circle class="st2" cx="667" cy="8" r="5"/>
	<circle class="st2" cx="687" cy="8" r="5"/>
	<circle class="st2" cx="707" cy="8" r="5"/>
	<circle class="st2" cx="727" cy="8" r="5"/>
	<circle class="st2" cx="747" cy="8" r="5"/>
	<circle class="st2" cx="767" cy="8" r="5"/>
	<circle class="st2" cx="787" cy="8" r="5"/>
	<circle class="st2" cx="807" cy="8" r="5"/>
	<circle class="st2" cx="827" cy="8" r="5"/>
	<circle class="st2" cx="847" cy="8" r="5"/>
	<circle class="st2" cx="7" cy="28" r="5"/>
	<circle class="st2" cx="27" cy="28" r="5"/>
	<circle class="st2" cx="47" cy="28" r="5"/>
	<circle class="st2" cx="67" cy="28" r="5"/>
	<circle class="st2" cx="87" cy="28" r="5"/>
	<circle class="st2" cx="107" cy="28" r="5"/>
	<circle class="st2" cx="127" cy="28" r="5"/>
	<circle class="st2" cx="147" cy="28" r="5"/>
	<circle class="st2" cx="167" cy="28" r="5"/>
	<circle class="st2" cx="187" cy="28" r="5"/>
	<circle class="st2" cx="207" cy="28" r="5"/>
	<circle class="st2" cx="227" cy="28" r="5"/>
	<circle class="st2" cx="247" cy="28" r="5"/>
	<circle class="st2" cx="267" cy="28" r="5"/>
	<circle class="st2" cx="287" cy="28" r="5"/>
	<circle class="st2" cx="307" cy="28" r="5"/>
	<circle class="st2" cx="327" cy="28" r="5"/>
	<circle class="st2" cx="347" cy="28" r="5"/>
	<circle class="st2" cx="367" cy="28" r="5"/>
	<circle class="st2" cx="387" cy="28" r="5"/>
	<circle class="st2" cx="407" cy="28" r="5"/>
	<circle class="st2" cx="427" cy="28" r="5"/>
	<circle class="st2" cx="447" cy="28" r="5"/>
	<circle class="st2" cx="467" cy="28" r="5"/>
	<circle class="st2" cx="487" cy="28" r="5"/>
	<circle class="st2" cx="507" cy="28" r="5"/>
	<circle class="st2" cx="527" cy="28" r="5"/>
	<circle class="st2" cx="547" cy="28" r="5"/>
	<circle class="st2" cx="567" cy="28" r="5"/>
	<circle class="st2" cx="587" cy="28" r="5"/>
	<circle class="st2" cx="607" cy="28" r="5"/>
	<circle class="st2" cx="627" cy="28" r="5"/>
	<circle class="st2" cx="647" cy="28" r="5"/>
	<circle class="st2" cx="667" cy="28" r="5"/>
	<circle class="st2" cx="687" cy="28" r="5"/>
	<circle class="st2" cx="707" cy="28" r="5"/>
	<circle class="st2" cx="727" cy="28" r="5"/>
	<circle class="st2" cx="747" cy="28" r="5"/>
	<circle class="st2" cx="767" cy="28" r="5"/>
	<circle class="st2" cx="787" cy="28" r="5"/>
	<circle class="st2" cx="807" cy="28" r="5"/>
	<circle class="st2" cx="827" cy="28" r="5"/>
	<circle class="st2" cx="847" cy="28" r="5"/>
	<circle class="st2" cx="7" cy="48" r="5"/>
	<circle class="st2" cx="27" cy="48" r="5"/>
	<circle class="st2" cx="47" cy="48" r="5"/>
	<circle class="st2" cx="67" cy="48" r="5"/>
	<circle class="st2" cx="87" cy="48" r="5"/>
	<circle class="st2" cx="107" cy="48" r="5"/>
	<circle class="st2" cx="127" cy="48" r="5"/>
	<circle class="st2" cx="147" cy="48" r="5"/>
	<circle class="st2" cx="167" cy="48" r="5"/>
	<circle class="st2" cx="187" cy="48" r="5"/>
	<circle class="st2" cx="207" cy="48" r="5"/>
	<circle class="st2" cx="227" cy="48" r="5"/>
	<circle class="st2" cx="247" cy="48" r="5"/>
	<circle class="st2" cx="267" cy="48" r="5"/>
	<circle class="st2" cx="287" cy="48" r="5"/>
	<circle class="st2" cx="307" cy="48" r="5"/>
	<circle class="st2" cx="327" cy="48" r="5"/>
	<circle class="st2" cx="347" cy="48" r="5"/>
	<circle class="st2" cx="367" cy="48" r="5"/>
	<circle class="st2" cx="387" cy="48" r="5"/>
	<circle class="st2" cx="407" cy="48" r="5"/>
	<circle class="st2" cx="427" cy="48" r="5"/>
	<circle class="st2" cx="447" cy="48" r="5"/>
	<circle class="st2" cx="467" cy="48" r="5"/>
	<circle class="st2" cx="487" cy="48" r="5"/>
	<circle class="st2" cx="507" cy="48" r="5"/>
	<circle class="st2" cx="527" cy="48" r="5"/>
	<circle class="st2" cx="547" cy="48" r="5"/>
	<circle class="st2" cx="567" cy="48" r="5"/>
	<circle class="st2" cx="587" cy="48" r="5"/>
	<circle class="st2" cx="607" cy="48" r="5"/>
	<circle class="st2" cx="627" cy="48" r="5"/>
	<circle class="st2" cx="647" cy="48" r="5"/>
	<circle class="st2" cx="667" cy="48" r="5"/>
	<circle class="st2" cx="687" cy="48" r="5"/>
	<circle class="st2" cx="707" cy="48" r="5"/>
	<circle class="st2" cx="727" cy="48" r="5"/>
	<circle class="st2" cx="747" cy="48" r="5"/>
	<circle class="st2" cx="767" cy="48" r="5"/>
	<circle class="st2" cx="787" cy="48" r="5"/>
	<circle class="st2" cx="807" cy="48" r="5"/>
	<circle class="st2" cx="827" cy="48" r="5"/>
	<circle class="st2" cx="847" cy="48" r="5"/>
	<circle class="st2" cx="7" cy="68" r="5"/>
	<circle class="st2" cx="27" cy="68" r="5"/>
	<circle class="st2" cx="47" cy="68" r="5"/>
	<circle class="st2" cx="67" cy="68" r="5"/>
	<circle class="st2" cx="87" cy="68" r="5"/>
	<circle class="st2" cx="107" cy="68" r="5"/>
	<circle class="st2" cx="127" cy="68" r="5"/>
	<circle class="st2" cx="147" cy="68" r="5"/>
	<circle class="st2" cx="167" cy="68" r="5"/>
	<circle class="st2" cx="187" cy="68" r="5"/>
	<circle class="st2" cx="207" cy="68" r="5"/>
	<circle class="st2" cx="227" cy="68" r="5"/>
	<circle class="st2" cx="247" cy="68" r="5"/>
	<circle class="st2" cx="267" cy="68" r="5"/>
	<circle class="st2" cx="287" cy="68" r="5"/>
	<circle class="st2" cx="307" cy="68" r="5"/>
	<circle class="st2" cx="327" cy="68" r="5"/>
	<circle class="st2" cx="347" cy="68" r="5"/>
	<circle class="st2" cx="367" cy="68" r="5"/>
	<circle class="st2" cx="387" cy="68" r="5"/>
	<circle class="st2" cx="407" cy="68" r="5"/>
	<circle class="st2" cx="427" cy="68" r="5"/>
	<circle class="st2" cx="447" cy="68" r="5"/>
	<circle class="st2" cx="467" cy="68" r="5"/>
	<circle class="st2" cx="487" cy="68" r="5"/>
	<circle class="st2" cx="507" cy="68" r="5"/>
	<circle class="st2" cx="527" cy="68" r="5"/>
	<circle class="st2" cx="547" cy="68" r="5"/>
	<circle class="st2" cx="567" cy="68" r="5"/>
	<circle class="st2" cx="587" cy="68" r="5"/>
	<circle class="st2" cx="607" cy="68" r="5"/>
	<circle class="st2" cx="627" cy="68" r="5"/>
	<circle class="st2" cx="647" cy="68" r="5"/>
	<circle class="st2" cx="667" cy="68" r="5"/>
	<circle class="st2" cx="687" cy="68" r="5"/>
	<circle class="st2" cx="707" cy="68" r="5"/>
	<circle class="st2" cx="727" cy="68" r="5"/>
	<circle class="st2" cx="747" cy="68" r="5"/>
	<circle class="st2" cx="767" cy="68" r="5"/>
	<circle class="st2" cx="787" cy="68" r="5"/>
	<circle class="st2" cx="807" cy="68" r="5"/>
	<circle class="st2" cx="827" cy="68" r="5"/>
	<circle class="st2" cx="847" cy="68" r="5"/>
	<circle class="st2" cx="7" cy="88" r="5"/>
	<circle class="st2" cx="27" cy="88" r="5"/>
	<circle class="st2" cx="47" cy="88" r="5"/>
	<circle class="st2" cx="67" cy="88" r="5"/>
	<circle class="st2" cx="87" cy="88" r="5"/>
	<circle class="st2" cx="107" cy="88" r="5"/>
	<circle class="st2" cx="127" cy="88" r="5"/>
	<circle class="st2" cx="147" cy="88" r="5"/>
	<circle class="st2" cx="167" cy="88" r="5"/>
	<circle class="st2" cx="187" cy="88" r="5"/>
	<circle class="st2" cx="207" cy="88" r="5"/>
	<circle class="st2" cx="227" cy="88" r="5"/>
	<circle class="st2" cx="247" cy="88" r="5"/>
	<circle class="st2" cx="267" cy="88" r="5"/>
	<circle class="st2" cx="287" cy="88" r="5"/>
	<circle class="st2" cx="307" cy="88" r="5"/>
	<circle class="st2" cx="327" cy="88" r="5"/>
	<circle class="st2" cx="347" cy="88" r="5"/>
	<circle class="st2" cx="367" cy="88" r="5"/>
	<circle class="st2" cx="387" cy="88" r="5"/>
	<circle class="st2" cx="407" cy="88" r="5"/>
	<circle class="st2" cx="427" cy="88" r="5"/>
	<circle class="st2" cx="447" cy="88" r="5"/>
	<circle class="st2" cx="467" cy="88" r="5"/>
	<circle class="st2" cx="487" cy="88" r="5"/>
	<circle class="st2" cx="507" cy="88" r="5"/>
	<circle class="st2" cx="527" cy="88" r="5"/>
	<circle class="st2" cx="547" cy="88" r="5"/>
	<circle class="st2" cx="567" cy="88" r="5"/>
	<circle class="st2" cx="587" cy="88" r="5"/>
	<circle class="st2" cx="607" cy="88" r="5"/>
	<circle class="st2" cx="627" cy="88" r="5"/>
	<circle class="st2" cx="647" cy="88" r="5"/>
	<circle class="st2" cx="667" cy="88" r="5"/>
	<circle class="st2" cx="687" cy="88" r="5"/>
	<circle class="st2" cx="707" cy="88" r="5"/>
	<circle class="st2" cx="727" cy="88" r="5"/>
	<circle class="st2" cx="747" cy="88" r="5"/>
	<circle class="st2" cx="767" cy="88" r="5"/>
	<circle class="st2" cx="787" cy="88" r="5"/>
	<circle class="st2" cx="807" cy="88" r="5"/>
	<circle class="st2" cx="827" cy="88" r="5"/>
	<circle class="st2" cx="847" cy="88" r="5"/>
	<circle class="st2" cx="7" cy="108" r="5"/>
	<circle class="st2" cx="27" cy="108" r="5"/>
	<circle class="st2" cx="47" cy="108" r="5"/>
	<circle class="st2" cx="67" cy="108" r="5"/>
	<circle class="st2" cx="87" cy="108" r="5"/>
	<circle class="st2" cx="107" cy="108" r="5"/>
	<circle class="st2" cx="127" cy="108" r="5"/>
	<circle class="st2" cx="147" cy="108" r="5"/>
	<circle class="st2" cx="167" cy="108" r="5"/>
	<circle class="st2" cx="187" cy="108" r="5"/>
	<circle class="st2" cx="207" cy="108" r="5"/>
	<circle class="st2" cx="227" cy="108" r="5"/>
	<circle class="st2" cx="247" cy="108" r="5"/>
	<circle class="st2" cx="267" cy="108" r="5"/>
	<circle class="st2" cx="287" cy="108" r="5"/>
	<circle class="st2" cx="307" cy="108" r="5"/>
	<circle class="st2" cx="327" cy="108" r="5"/>
	<circle class="st2" cx="347" cy="108" r="5"/>
	<circle class="st2" cx="367" cy="108" r="5"/>
	<circle class="st2" cx="387" cy="108" r="5"/>
	<circle class="st2" cx="407" cy="108" r="5"/>
	<circle class="st2" cx="427" cy="108" r="5"/>
	<circle class="st2" cx="447" cy="108" r="5"/>
	<circle class="st2" cx="467" cy="108" r="5"/>
	<circle class="st2" cx="487" cy="108" r="5"/>
	<circle class="st2" cx="507" cy="108" r="5"/>
	<circle class="st2" cx="527" cy="108" r="5"/>
	<circle class="st2" cx="547" cy="108" r="5"/>
	<circle class="st2" cx="567" cy="108" r="5"/>
	<circle class="st2" cx="587" cy="108" r="5"/>
	<circle class="st2" cx="607" cy="108" r="5"/>
	<circle class="st2" cx="627" cy="108" r="5"/>
	<circle class="st2" cx="647" cy="108" r="5"/>
	<circle class="st2" cx="667" cy="108" r="5"/>
	<circle class="st2" cx="687" cy="108" r="5"/>
	<circle class="st2" cx="707" cy="108" r="5"/>
	<circle class="st2" cx="727" cy="108" r="5"/>
	<circle class="st2" cx="747" cy="108" r="5"/>
	<circle class="st2" cx="767" cy="108" r="5"/>
	<circle class="st2" cx="787" cy="108" r="5"/>
	<circle class="st2" cx="807" cy="108" r="5"/>
	<circle class="st2" cx="827" cy="108" r="5"/>
	<circle class="st2" cx="847" cy="108" r="5"/>
	<circle class="st2" cx="7" cy="128" r="5"/>
	<circle class="st2" cx="27" cy="128" r="5"/>
	<circle class="st2" cx="47" cy="128" r="5"/>
	<circle class="st2" cx="67" cy="128" r="5"/>
	<circle class="st2" cx="87" cy="128" r="5"/>
	<circle class="st2" cx="107" cy="128" r="5"/>
	<circle class="st2" cx="127" cy="128" r="5"/>
	<circle class="st2" cx="147" cy="128" r="5"/>
	<circle class="st2" cx="167" cy="128" r="5"/>
	<circle class="st2" cx="187" cy="128" r="5"/>
	<circle class="st2" cx="207" cy="128" r="5"/>
	<circle class="st2" cx="227" cy="128" r="5"/>
	<circle class="st2" cx="247" cy="128" r="5"/>
	<circle class="st2" cx="267" cy="128" r="5"/>
	<circle class="st2" cx="287" cy="128" r="5"/>
	<circle class="st2" cx="307" cy="128" r="5"/>
	<circle class="st2" cx="327" cy="128" r="5"/>
	<circle class="st2" cx="347" cy="128" r="5"/>
	<circle class="st2" cx="367" cy="128" r="5"/>
	<circle class="st2" cx="387" cy="128" r="5"/>
	<circle class="st2" cx="407" cy="128" r="5"/>
	<circle class="st2" cx="427" cy="128" r="5"/>
	<circle class="st2" cx="447" cy="128" r="5"/>
	<circle class="st2" cx="467" cy="128" r="5"/>
	<circle class="st2" cx="487" cy="128" r="5"/>
	<circle class="st2" cx="507" cy="128" r="5"/>
	<circle class="st2" cx="527" cy="128" r="5"/>
	<circle class="st2" cx="547" cy="128" r="5"/>
	<circle class="st2" cx="567" cy="128" r="5"/>
	<circle class="st2" cx="587" cy="128" r="5"/>
	<circle class="st2" cx="607" cy="128" r="5"/>
	<circle class="st2" cx="627" cy="128" r="5"/>
	<circle class="st2" cx="647" cy="128" r="5"/>
	<circle class="st2" cx="667" cy="128" r="5"/>
	<circle class="st2" cx="687" cy="128" r="5"/>
	<circle class="st2" cx="707" cy="128" r="5"/>
	<circle class="st2" cx="727" cy="128" r="5"/>
	<circle class="st2" cx="747" cy="128" r="5"/>
	<circle class="st2" cx="767" cy="128" r="5"/>
	<circle class="st2" cx="787" cy="128" r="5"/>
	<circle class="st2" cx="807" cy="128" r="5"/>
	<circle class="st2" cx="827" cy="128" r="5"/>
	<circle class="st2" cx="847" cy="128" r="5"/>
	<circle class="st2" cx="7" cy="148" r="5"/>
	<circle class="st2" cx="27" cy="148" r="5"/>
	<circle class="st2" cx="47" cy="148" r="5"/>
	<circle class="st2" cx="67" cy="148" r="5"/>
	<circle class="st2" cx="87" cy="148" r="5"/>
	<circle class="st2" cx="107" cy="148" r="5"/>
	<circle class="st2" cx="127" cy="148" r="5"/>
	<circle class="st2" cx="147" cy="148" r="5"/>
	<circle class="st2" cx="167" cy="148" r="5"/>
	<circle class="st2" cx="187" cy="148" r="5"/>
	<circle class="st2" cx="207" cy="148" r="5"/>
	<circle class="st2" cx="227" cy="148" r="5"/>
	<circle class="st2" cx="247" cy="148" r="5"/>
	<circle class="st2" cx="267" cy="148" r="5"/>
	<circle class="st2" cx="287" cy="148" r="5"/>
	<circle class="st2" cx="307" cy="148" r="5"/>
	<circle class="st2" cx="327" cy="148" r="5"/>
	<circle class="st2" cx="347" cy="148" r="5"/>
	<circle class="st2" cx="367" cy="148" r="5"/>
	<circle class="st2" cx="387" cy="148" r="5"/>
	<circle class="st2" cx="407" cy="148" r="5"/>
	<circle class="st2" cx="427" cy="148" r="5"/>
	<circle class="st2" cx="447" cy="148" r="5"/>
	<circle class="st2" cx="467" cy="148" r="5"/>
	<circle class="st2" cx="487" cy="148" r="5"/>
	<circle class="st2" cx="507" cy="148" r="5"/>
	<circle class="st2" cx="527" cy="148" r="5"/>
	<circle class="st2" cx="547" cy="148" r="5"/>
	<circle class="st2" cx="567" cy="148" r="5"/>
	<circle class="st2" cx="587" cy="148" r="5"/>
	<circle class="st2" cx="607" cy="148" r="5"/>
	<circle class="st2" cx="627" cy="148" r="5"/>
	<circle class="st2" cx="647" cy="148" r="5"/>
	<circle class="st2" cx="667" cy="148" r="5"/>
	<circle class="st2" cx="687" cy="148" r="5"/>
	<circle class="st2" cx="707" cy="148" r="5"/>
	<circle class="st2" cx="727" cy="148" r="5"/>
	<circle class="st2" cx="747" cy="148" r="5"/>
	<circle class="st2" cx="767" cy="148" r="5"/>
	<circle class="st2" cx="787" cy="148" r="5"/>
	<circle class="st2" cx="807" cy="148" r="5"/>
	<circle class="st2" cx="827" cy="148" r="5"/>
	<circle class="st2" cx="847" cy="148" r="5"/>
	<circle class="st2" cx="7" cy="168" r="5"/>
	<circle class="st2" cx="27" cy="168" r="5"/>
	<circle class="st2" cx="47" cy="168" r="5"/>
	<circle class="st2" cx="67" cy="168" r="5"/>
	<circle class="st2" cx="87" cy="168" r="5"/>
	<circle class="st2" cx="107" cy="168" r="5"/>
	<circle class="st2" cx="127" cy="168" r="5"/>
	<circle class="st2" cx="147" cy="168" r="5"/>
	<circle class="st2" cx="167" cy="168" r="5"/>
	<circle class="st2" cx="187" cy="168" r="5"/>
	<circle class="st2" cx="207" cy="168" r="5"/>
	<circle class="st2" cx="227" cy="168" r="5"/>
	<circle class="st2" cx="247" cy="168" r="5"/>
	<circle class="st2" cx="267" cy="168" r="5"/>
	<circle class="st2" cx="287" cy="168" r="5"/>
	<circle class="st2" cx="307" cy="168" r="5"/>
	<circle class="st2" cx="327" cy="168" r="5"/>
	<circle class="st2" cx="347" cy="168" r="5"/>
	<circle class="st2" cx="367" cy="168" r="5"/>
	<circle class="st2" cx="387" cy="168" r="5"/>
	<circle class="st2" cx="407" cy="168" r="5"/>
	<circle class="st2" cx="427" cy="168" r="5"/>
	<circle class="st2" cx="447" cy="168" r="5"/>
	<circle class="st2" cx="467" cy="168" r="5"/>
	<circle class="st2" cx="487" cy="168" r="5"/>
	<circle class="st2" cx="507" cy="168" r="5"/>
	<circle class="st2" cx="527" cy="168" r="5"/>
	<circle class="st2" cx="547" cy="168" r="5"/>
	<circle class="st2" cx="567" cy="168" r="5"/>
	<circle class="st2" cx="587" cy="168" r="5"/>
	<circle class="st2" cx="607" cy="168" r="5"/>
	<circle class="st2" cx="627" cy="168" r="5"/>
	<circle class="st2" cx="647" cy="168" r="5"/>
	<circle class="st2" cx="667" cy="168" r="5"/>
	<circle class="st2" cx="687" cy="168" r="5"/>
	<circle class="st2" cx="707" cy="168" r="5"/>
	<circle class="st2" cx="727" cy="168" r="5"/>
	<circle class="st2" cx="747" cy="168" r="5"/>
	<circle class="st2" cx="767" cy="168" r="5"/>
	<circle class="st2" cx="787" cy="168" r="5"/>
	<circle class="st2" cx="807" cy="168" r="5"/>
	<circle class="st2" cx="827" cy="168" r="5"/>
	<circle class="st2" cx="847" cy="168" r="5"/>
	<circle class="st2" cx="7" cy="188" r="5"/>
	<circle class="st2" cx="27" cy="188" r="5"/>
	<circle class="st2" cx="47" cy="188" r="5"/>
	<circle class="st2" cx="67" cy="188" r="5"/>
	<circle class="st2" cx="87" cy="188" r="5"/>
	<circle class="st2" cx="107" cy="188" r="5"/>
	<circle class="st2" cx="127" cy="188" r="5"/>
	<circle class="st2" cx="147" cy="188" r="5"/>
	<circle class="st2" cx="167" cy="188" r="5"/>
	<circle class="st2" cx="187" cy="188" r="5"/>
	<circle class="st2" cx="207" cy="188" r="5"/>
	<circle class="st2" cx="227" cy="188" r="5"/>
	<circle class="st2" cx="247" cy="188" r="5"/>
	<circle class="st2" cx="267" cy="188" r="5"/>
	<circle class="st2" cx="287" cy="188" r="5"/>
	<circle class="st2" cx="307" cy="188" r="5"/>
	<circle class="st2" cx="327" cy="188" r="5"/>
	<circle class="st2" cx="347" cy="188" r="5"/>
	<circle class="st2" cx="367" cy="188" r="5"/>
	<circle class="st2" cx="387" cy="188" r="5"/>
	<circle class="st2" cx="407" cy="188" r="5"/>
	<circle class="st2" cx="427" cy="188" r="5"/>
	<circle class="st2" cx="447" cy="188" r="5"/>
	<circle class="st2" cx="467" cy="188" r="5"/>
	<circle class="st2" cx="487" cy="188" r="5"/>
	<circle class="st2" cx="507" cy="188" r="5"/>
	<circle class="st2" cx="527" cy="188" r="5"/>
	<circle class="st2" cx="547" cy="188" r="5"/>
	<circle class="st2" cx="567" cy="188" r="5"/>
	<circle class="st2" cx="587" cy="188" r="5"/>
	<circle class="st2" cx="607" cy="188" r="5"/>
	<circle class="st2" cx="627" cy="188" r="5"/>
	<circle class="st2" cx="647" cy="188" r="5"/>
	<circle class="st2" cx="667" cy="188" r="5"/>
	<circle class="st2" cx="687" cy="188" r="5"/>
	<circle class="st2" cx="707" cy="188" r="5"/>
	<circle class="st2" cx="727" cy="188" r="5"/>
	<circle class="st2" cx="747" cy="188" r="5"/>
	<circle class="st2" cx="767" cy="188" r="5"/>
	<circle class="st2" cx="787" cy="188" r="5"/>
	<circle class="st2" cx="807" cy="188" r="5"/>
	<circle class="st2" cx="827" cy="188" r="5"/>
	<circle class="st2" cx="847" cy="188" r="5"/>
</g>
</svg>
