<?xml version="1.0" encoding="utf-8"?>
<!-- Generator: Adobe Illustrator 23.0.0, SVG Export Plug-In . SVG Version: 6.00 Build 0)  -->
<svg version="1.1" id="Layer_1" xmlns:serif="http://www.serif.com/"
	 xmlns="http://www.w3.org/2000/svg" xmlns:xlink="http://www.w3.org/1999/xlink" x="0px" y="0px" viewBox="0 0 908.1 800"
	 style="enable-background:new 0 0 908.1 800;" xml:space="preserve">
<style type="text/css">
	.st0{fill:#1BC0DC;}
	.st1{fill:#13365D;}
	.st2{fill:#D82B3F;}
	.st3{fill:#EAF4FC;}
	.st4{fill:#D1DBE6;}
	.st5{fill:#9BABC6;}
	.st6{fill:#C3CBDD;}
	.st7{fill:#8A99B2;}
	.st8{fill:#E27679;}
	.st9{fill:#E5E5E5;}
	.st10{fill:#CE6A6E;}
	.st11{fill:#D78DA2;}
	.st12{fill:#EA9D3B;}
	.st13{fill:#FFFFFF;}
	.st14{fill:#F4F9FD;}
	.st15{fill:#F3C489;}
	.st16{fill:#D28E35;}
	.st17{fill:#DAE0E6;}
	.st18{fill:#D9B07C;}
	.st19{fill:#283B66;}
</style>
<g transform="matrix(4.16667,0,0,4.16667,-6745,-479)">
	<g transform="matrix(1,0,0,1,-56.4278,-535.386)">
		<path class="st0" d="M1768.5,663.8c-37.9,0-69.9,25.5-79.7,60.3l23.6,22.5l-23.8,21.9c9.6,35.1,41.7,60.9,79.9,60.9
			c45.7,0,82.8-37.1,82.8-82.8C1851.3,700.9,1814.3,663.8,1768.5,663.8z"/>
	</g>
	<g transform="matrix(1,0,0,1,-56.4278,-535.386)">
		<path class="st1" d="M1767.2,839.3c-2.9-0.1-5.8-0.2-8.6-0.6c-0.6-0.1-1.2,0.4-1.3,1c-0.1,0.6,0.4,1.2,1,1.3
			c2.9,0.3,5.9,0.5,8.8,0.6h0c0.6,0,1.1-0.5,1.2-1.1C1768.4,839.8,1767.8,839.3,1767.2,839.3z"/>
	</g>
	<g transform="matrix(1,0,0,1,-56.4278,-535.386)">
		<path class="st1" d="M1784.4,838c-2.8,0.5-5.7,0.8-8.5,1c-0.6,0-1.1,0.6-1.1,1.2c0,0.6,0.6,1.1,1.2,1.1c0,0,0.1,0,0.1,0
			c2.9-0.2,5.9-0.6,8.8-1c0.6-0.1,1.1-0.7,1-1.3C1785.6,838.4,1785,837.9,1784.4,838z"/>
	</g>
	<g transform="matrix(1,0,0,1,-56.4278,-535.386)">
		<path class="st1" d="M1718.5,824.3c-2.4-1.6-4.7-3.2-7-5c-0.5-0.4-1.2-0.3-1.6,0.2c-0.4,0.5-0.3,1.2,0.2,1.6
			c2.3,1.8,4.7,3.6,7.2,5.1c0.2,0.1,0.4,0.2,0.6,0.2c0.4,0,0.8-0.2,1-0.5C1719.2,825.4,1719,824.7,1718.5,824.3z"/>
	</g>
	<g transform="matrix(1,0,0,1,-56.4278,-535.386)">
		<path class="st1" d="M1733.7,832.3c-2.6-1.1-5.3-2.3-7.8-3.6c-0.6-0.3-1.3-0.1-1.6,0.5c-0.3,0.6-0.1,1.3,0.5,1.6
			c2.6,1.4,5.3,2.6,8,3.7c0.1,0.1,0.3,0.1,0.4,0.1c0.5,0,0.9-0.3,1.1-0.7C1734.6,833.2,1734.3,832.6,1733.7,832.3z"/>
	</g>
	<g transform="matrix(1,0,0,1,-56.4278,-535.386)">
		<path class="st1" d="M1681.6,777.9c-0.2-0.6-0.9-0.9-1.5-0.7c-0.6,0.2-0.9,0.9-0.7,1.5c1,2.8,2.1,5.5,3.4,8.1
			c0.2,0.4,0.6,0.7,1.1,0.7c0.2,0,0.3,0,0.5-0.1c0.6-0.3,0.8-1,0.6-1.5C1683.7,783.3,1682.6,780.6,1681.6,777.9z"/>
	</g>
	<g transform="matrix(1,0,0,1,-56.4278,-535.386)">
		<path class="st1" d="M1689,793.5c-0.3-0.6-1-0.7-1.6-0.4c-0.6,0.3-0.7,1-0.4,1.6c1.5,2.5,3.1,5,4.8,7.4c0.2,0.3,0.6,0.5,0.9,0.5
			c0.2,0,0.5-0.1,0.7-0.2c0.5-0.4,0.6-1.1,0.3-1.6C1692,798.4,1690.4,796,1689,793.5z"/>
	</g>
	<g transform="matrix(1,0,0,1,-56.4278,-535.386)">
		<path class="st1" d="M1699,807.4c-0.4-0.5-1.2-0.5-1.6-0.1c-0.5,0.4-0.5,1.2-0.1,1.6c1.9,2.2,4,4.3,6.1,6.4
			c0.2,0.2,0.5,0.3,0.8,0.3c0.3,0,0.6-0.1,0.8-0.4c0.4-0.5,0.4-1.2,0-1.6C1702.9,811.7,1700.9,809.6,1699,807.4z"/>
	</g>
	<g transform="matrix(1,0,0,1,-56.4278,-535.386)">
		<path class="st1" d="M1750.1,837.4c-2.8-0.6-5.6-1.3-8.3-2.1c-0.6-0.2-1.3,0.2-1.5,0.8c-0.2,0.6,0.2,1.3,0.8,1.5
			c2.8,0.9,5.7,1.6,8.5,2.2c0.1,0,0.2,0,0.2,0c0.5,0,1-0.4,1.1-0.9C1751.2,838.1,1750.8,837.5,1750.1,837.4z"/>
	</g>
	<g transform="matrix(1,0,0,1,-56.4278,-535.386)">
		<path class="st1" d="M1859.6,772.6c-0.6-0.2-1.3,0.2-1.5,0.8c-0.8,2.7-1.8,5.5-2.9,8.1c-0.2,0.6,0,1.3,0.6,1.5
			c0.1,0.1,0.3,0.1,0.4,0.1c0.5,0,0.9-0.3,1.1-0.7c1.1-2.7,2.1-5.5,2.9-8.3C1860.5,773.5,1860.2,772.8,1859.6,772.6z"/>
	</g>
	<g transform="matrix(1,0,0,1,-56.4278,-535.386)">
		<path class="st1" d="M1853.2,788.8c-0.6-0.3-1.3-0.1-1.6,0.5c-0.4,0.8-0.9,1.6-1.3,2.4l-1.1,1.7c-0.6,1.1-1.3,2.2-2,3.3
			c-0.4,0.5-0.2,1.3,0.3,1.6c0.2,0.1,0.4,0.2,0.6,0.2c0.4,0,0.8-0.2,1-0.5c0.7-1.1,1.4-2.2,2.1-3.4l1.1-1.7l0,0
			c0.5-0.8,0.9-1.7,1.3-2.5C1854,789.8,1853.8,789.1,1853.2,788.8z"/>
	</g>
	<g transform="matrix(1,0,0,1,-56.4278,-535.386)">
		<path class="st1" d="M1862.8,755.5c-0.6-0.1-1.2,0.4-1.3,1c-0.3,2.8-0.8,5.7-1.3,8.5c-0.1,0.6,0.3,1.2,0.9,1.4c0.1,0,0.2,0,0.2,0
			c0.5,0,1-0.4,1.1-0.9c0.6-2.9,1-5.8,1.4-8.7C1863.9,756.2,1863.5,755.6,1862.8,755.5z"/>
	</g>
	<g transform="matrix(1,0,0,1,-56.4278,-535.386)">
		<path class="st1" d="M1801,833.7c-2.7,1-5.4,1.8-8.2,2.6c-0.6,0.2-1,0.8-0.8,1.4c0.1,0.5,0.6,0.9,1.1,0.9c0.1,0,0.2,0,0.3,0
			c2.8-0.7,5.7-1.6,8.4-2.6c0.6-0.2,0.9-0.9,0.7-1.5C1802.2,833.8,1801.6,833.5,1801,833.7z"/>
	</g>
	<g transform="matrix(1,0,0,1,-56.4278,-535.386)">
		<path class="st1" d="M1843.9,803.5c-0.5-0.4-1.2-0.3-1.6,0.2c-1.8,2.2-3.7,4.4-5.6,6.5c-0.4,0.5-0.4,1.2,0,1.6
			c0.2,0.2,0.5,0.3,0.8,0.3c0.3,0,0.6-0.1,0.8-0.4c2-2.1,4-4.4,5.8-6.7C1844.5,804.7,1844.4,803.9,1843.9,803.5z"/>
	</g>
	<g transform="matrix(1,0,0,1,-56.4278,-535.386)">
		<path class="st1" d="M1816.5,826.3c-2.5,1.5-5,2.8-7.6,4c-0.6,0.3-0.8,1-0.6,1.5c0.2,0.4,0.6,0.7,1.1,0.7c0.2,0,0.3,0,0.5-0.1
			c2.6-1.3,5.3-2.7,7.8-4.1c0.6-0.3,0.7-1,0.4-1.6C1817.8,826.2,1817.1,826,1816.5,826.3z"/>
	</g>
	<g transform="matrix(1,0,0,1,-56.4278,-535.386)">
		<path class="st1" d="M1830.4,816.2c-2.1,1.9-4.4,3.7-6.7,5.4c-0.5,0.4-0.6,1.1-0.3,1.6c0.2,0.3,0.6,0.5,0.9,0.5
			c0.2,0,0.5-0.1,0.7-0.2c2.4-1.7,4.7-3.6,6.9-5.5c0.5-0.4,0.5-1.2,0.1-1.6C1831.6,815.8,1830.9,815.8,1830.4,816.2z"/>
	</g>
	<g transform="matrix(1,0,0,1,-56.4278,-535.386)">
		<path class="st2" d="M1893.2,746.5l-21.8-21.4v19.2h-6c-0.4-16.3-4.7-31.8-12.6-45.6c0-0.1-0.1-0.2-0.2-0.4
			c-8.3-14.4-20.3-26.5-34.6-35c-14.8-8.7-31.7-13.3-48.9-13.3c-11.2,0-22.1,1.9-32.5,5.6c-10.1,3.6-19.4,8.8-27.8,15.5
			c-16.7,13.4-28.7,32.3-33.5,53.1c-0.2,0.7,0,1.5,0.6,2.1l20.2,19.9l-20.3,20c-0.9,0.8-0.9,2.2,0,3.1c0.4,0.4,1,0.6,1.6,0.6
			c0.6,0,1.1-0.2,1.5-0.6l21.9-21.5c0.4-0.4,0.6-1,0.6-1.6c0-0.6-0.2-1.1-0.6-1.6l-20.9-20.6c10.1-40.9,46.3-69.4,88.6-69.7
			c0.2,0.1,0.4,0.1,0.7,0.1c50.7,0,92,41.3,92,92c0,1.2,1,2.2,2.2,2.2h8.1v19.2L1893.2,746.5z"/>
	</g>
</g>
<g transform="matrix(0.999999,0,0,0.999999,-909.706,-580.967)">
	<path class="st3" d="M1370.2,1138.9c-5,4.5-11.5,6.8-18.3,6.8h-109.5c-6.7,0-13.3-2.3-18.3-6.9c-22.3-20-36.4-48.9-36.4-81.2
		c0-9.1,1.1-17.8,3.2-26.3c7.6-30.7,28.1-56.3,55.5-70.7c3.6-1.9,5.8-5.8,5.8-9.9v-64.9h89.8v65c0,4.2,2.2,8,5.8,9.9
		c30.9,16.3,53.5,47.2,57.8,83.4c0.2,0.9,0.3,1.8,0.4,2.8C1409.5,1083.5,1395,1116.7,1370.2,1138.9z"/>
</g>
<g transform="matrix(0.999999,0,0,0.999999,-909.706,-580.967)">
	<rect x="1252.3" y="885.9" class="st4" width="89.8" height="12.1"/>
</g>
<g transform="matrix(0.999999,0,0,0.999999,-909.706,-580.967)">
	<rect x="1237.8" y="847.5" class="st5" width="118.9" height="38.4"/>
</g>
<g transform="matrix(0.999999,0,0,0.999999,-909.706,-580.967)">
	<rect x="1237.8" y="847.5" class="st6" width="118.9" height="12.1"/>
</g>
<g transform="matrix(0.999999,0,0,0.999999,-909.706,-580.967)">
	<rect x="1237.8" y="873.7" class="st7" width="118.9" height="12.1"/>
</g>
<g transform="matrix(0.999999,0,0,0.999999,-909.706,-580.967)">
	<path class="st8" d="M1370.2,1138.9c-5,4.5-11.5,6.8-18.3,6.8h-109.5c-6.7,0-13.3-2.3-18.3-6.9c-22.3-20-36.4-48.9-36.4-81.2
		c0-9.1,1.1-17.8,3.2-26.3c24.6-2.3,58.6,1.4,91.1,27.4c35.5,28.5,87.1,7.6,123.7-14.6c0.2,0.9,0.3,1.8,0.4,2.8
		C1409.5,1083.5,1395,1116.7,1370.2,1138.9z"/>
</g>
<g transform="matrix(0.999999,0,0,0.999999,-909.706,-580.967)">
	<path class="st9" d="M1187.8,1057.6v-0.2V1057.6z M1406.2,1047c0-0.2,0-0.3,0-0.5C1406.2,1046.7,1406.2,1046.8,1406.2,1047z"/>
</g>
<g transform="matrix(0.999999,0,0,0.999999,-909.706,-580.967)">
	<path class="st10" d="M1352,1145.7h-109.5c-6.7,0-13.3-2.3-18.3-6.9c-22.3-20-36.4-48.9-36.4-81.2v-0.2c0-3.5,0.2-7,0.6-10.4
		c2.7,27.9,16,52.6,35.8,70.3c5,4.5,11.6,6.9,18.3,6.9H1352c6.7,0,13.3-2.3,18.3-6.8c19.8-17.8,33.2-42.9,35.9-71c0,0,0,0.1,0,0.1
		c0,0.2,0,0.3,0,0.5c0.3,3.5,0.5,7,0.5,10.4c0,32.4-14.1,61.5-36.4,81.5C1365.3,1143.5,1358.7,1145.7,1352,1145.7z"/>
</g>
<g transform="matrix(0.999999,0,0,0.999999,-909.706,-580.967)">
	<path class="st8" d="M1309.1,986.1c0,6.9-5.6,12.5-12.5,12.5c-6.9,0-12.4-5.6-12.4-12.5c0-6.9,5.6-12.5,12.4-12.5
		C1303.6,973.6,1309.1,979.2,1309.1,986.1z"/>
</g>
<g transform="matrix(0.999999,0,0,0.999999,-909.706,-580.967)">
	<path class="st11" d="M1260.6,1103.7c0,6.9-5.6,12.5-12.5,12.5c-6.9,0-12.4-5.6-12.4-12.5c0-6.9,5.6-12.5,12.4-12.5
		C1255,1091.2,1260.6,1096.8,1260.6,1103.7z"/>
</g>
<g transform="matrix(0.999999,0,0,0.999999,-909.706,-580.967)">
	<path class="st11" d="M1366.4,1093.8c0,6.9-5.6,12.5-12.5,12.5c-6.9,0-12.4-5.6-12.4-12.5c0-6.9,5.6-12.5,12.4-12.5
		C1360.8,1081.4,1366.4,1086.9,1366.4,1093.8z"/>
</g>
<g transform="matrix(0.999999,0,0,0.999999,-909.706,-580.967)">
	<path class="st8" d="M1325.3,929.8c0,6.9-5.6,12.5-12.5,12.5c-6.9,0-12.4-5.6-12.4-12.5c0-6.9,5.6-12.5,12.4-12.5
		C1319.7,917.3,1325.3,922.8,1325.3,929.8z"/>
</g>
<g transform="matrix(0.999999,0,0,0.999999,-909.706,-580.967)">
	<path class="st12" d="M1475.5,958.9c0,39.7-32.2,71.9-71.9,71.9c-39.7,0-71.8-32.2-71.8-71.9c0-39.7,32.2-71.9,71.8-71.9
		C1443.3,887,1475.5,919.2,1475.5,958.9z"/>
</g>
<g transform="matrix(0.999999,0,0,0.999999,-909.706,-580.967)">
	<path class="st13" d="M1474.6,970C1474.6,970,1474.6,970,1474.6,970c0-0.4,0.1-0.8,0.2-1.2C1474.7,969.2,1474.7,969.6,1474.6,970z"
		/>
</g>
<g transform="matrix(0.999999,0,0,0.999999,-909.706,-580.967)">
	<path class="st14" d="M1332.5,970c0-0.4-0.1-0.8-0.2-1.2C1332.4,969.2,1332.5,969.6,1332.5,970C1332.5,970,1332.5,970,1332.5,970z
		 M1331.7,958.9v-0.2V958.9z"/>
</g>
<g transform="matrix(0.999999,0,0,0.999999,-909.706,-580.967)">
	<path class="st13" d="M1475.5,958.9v-0.2V958.9z"/>
</g>
<g transform="matrix(0.999999,0,0,0.999999,-909.706,-580.967)">
	<path class="st14" d="M1331.7,958.7v-0.1V958.7z"/>
</g>
<g transform="matrix(0.999999,0,0,0.999999,-909.706,-580.967)">
	<path class="st13" d="M1475.5,958.7v-0.1V958.7z M1342.1,921.6L1342.1,921.6c4.2-6.9,9.5-13,15.6-18.1
		C1351.6,908.6,1346.3,914.7,1342.1,921.6z"/>
</g>
<g transform="matrix(0.999999,0,0,0.999999,-909.706,-580.967)">
	<path class="st14" d="M1332.5,947.9C1332.5,947.9,1332.5,947.9,1332.5,947.9c1.4-9.6,4.8-18.5,9.6-26.4v0
		C1337.3,929.5,1334,938.4,1332.5,947.9z"/>
</g>
<g transform="matrix(0.999999,0,0,0.999999,-909.706,-580.967)">
	<path class="st13" d="M1474.6,947.9c-1.9-12.1-6.8-23.3-13.9-32.6C1467.9,924.6,1472.8,935.7,1474.6,947.9
		C1474.6,947.8,1474.6,947.8,1474.6,947.9z"/>
</g>
<g transform="matrix(0.999999,0,0,0.999999,-909.706,-580.967)">
	<path class="st15" d="M1335.2,958.9c-1.2-3.5-2-7.2-2.6-11c1.4-9.5,4.8-18.4,9.6-26.3c4.2-6.9,9.5-13,15.6-18.1
		c12.4-10.3,28.4-16.5,45.8-16.5c23.3,0,44,11.1,57.2,28.3c7.1,9.3,12,20.5,13.9,32.6c-0.6,3.8-1.5,7.5-2.6,11
		c-9.4-28.8-36.4-49.7-68.4-49.7S1344.5,930.1,1335.2,958.9z"/>
</g>
<g transform="matrix(0.999999,0,0,0.999999,-909.706,-580.967)">
	<path class="st9" d="M1403.6,1030.8L1403.6,1030.8c36,0,65.7-26.4,71-60.8v0C1469.3,1004.5,1439.5,1030.8,1403.6,1030.8z"/>
</g>
<g transform="matrix(0.999999,0,0,0.999999,-909.706,-580.967)">
	<path class="st4" d="M1390.1,1029.5c-29.7-5.6-52.9-29.5-57.6-59.6c0,0,0-0.1,0-0.1C1337.2,1000,1360.4,1023.9,1390.1,1029.5z"/>
</g>
<g transform="matrix(0.999999,0,0,0.999999,-909.706,-580.967)">
	<path class="st9" d="M1474.8,968.8c0.1-0.9,0.2-1.9,0.3-2.8c0-0.5,0.1-1.1,0.1-1.6c0.1-1.8,0.2-3.7,0.2-5.5v0
		C1475.5,962.3,1475.2,965.6,1474.8,968.8z"/>
</g>
<g transform="matrix(0.999999,0,0,0.999999,-909.706,-580.967)">
	<path class="st4" d="M1332.3,968.8c-0.4-3.2-0.7-6.5-0.7-9.9v0C1331.7,962.2,1331.9,965.5,1332.3,968.8z"/>
</g>
<g transform="matrix(0.999999,0,0,0.999999,-909.706,-580.967)">
	<path class="st9" d="M1475.5,958.7L1475.5,958.7L1475.5,958.7z"/>
</g>
<g transform="matrix(0.999999,0,0,0.999999,-909.706,-580.967)">
	<path class="st4" d="M1331.7,958.7L1331.7,958.7L1331.7,958.7z"/>
</g>
<g transform="matrix(0.999999,0,0,0.999999,-909.706,-580.967)">
	<path class="st9" d="M1475.5,958.6c0-3.7-0.3-7.2-0.8-10.8v0C1475.2,951.3,1475.5,954.9,1475.5,958.6z"/>
</g>
<g transform="matrix(0.999999,0,0,0.999999,-909.706,-580.967)">
	<path class="st4" d="M1331.7,958.6c0-3.6,0.3-7.2,0.8-10.8c0,0,0,0,0,0C1332,951.3,1331.7,954.9,1331.7,958.6z"/>
</g>
<g transform="matrix(0.999999,0,0,0.999999,-909.706,-580.967)">
	<path class="st16" d="M1403.6,1030.8c-4.6,0-9.1-0.4-13.5-1.3c-29.7-5.6-52.9-29.6-57.6-59.6c0.6-3.8,1.5-7.5,2.6-11
		c9.4,28.8,36.5,49.7,68.4,49.7c31.9,0,59-20.9,68.4-49.7c1.2,3.6,2.1,7.3,2.6,11.1C1469.3,1004.4,1439.5,1030.8,1403.6,1030.8z
		 M1475.1,966c0-0.5,0.1-1.1,0.1-1.6C1475.2,964.9,1475.2,965.5,1475.1,966z"/>
</g>
<g transform="matrix(0.999999,0,0,0.999999,-909.706,-580.967)">
	<path class="st9" d="M1474.6,970L1474.6,970c0.2-1.3,0.4-2.7,0.5-4c-0.1,0.9-0.2,1.9-0.3,2.8C1474.7,969.2,1474.7,969.6,1474.6,970
		z"/>
</g>
<g transform="matrix(0.999999,0,0,0.999999,-909.706,-580.967)">
	<path class="st17" d="M1332.5,970c-0.1-0.4-0.1-0.8-0.2-1.2c-0.4-3.2-0.7-6.6-0.7-9.9v-0.3c0-3.7,0.3-7.2,0.8-10.7c0,0,0,0.1,0,0.1
		c-0.6,3.6-0.8,7.2-0.8,11C1331.7,962.6,1332,966.3,1332.5,970C1332.5,969.9,1332.5,970,1332.5,970z"/>
</g>
<g transform="matrix(0.999999,0,0,0.999999,-909.706,-580.967)">
	<path class="st9" d="M1475.3,964.4c0.1-1.8,0.2-3.6,0.2-5.5c0-3.8-0.3-7.4-0.8-11c0,0,0,0,0,0c0.5,3.5,0.8,7.1,0.8,10.8v0.3
		C1475.5,960.7,1475.4,962.6,1475.3,964.4z"/>
</g>
<g transform="matrix(0.999999,0,0,0.999999,-909.706,-580.967)">
	<path class="st18" d="M1474.6,969.9c-0.6-3.8-1.5-7.5-2.6-11.1c1.2-3.6,2.1-7.2,2.6-11c0.6,3.6,0.8,7.3,0.8,11
		c0,1.8-0.1,3.7-0.2,5.5c0,0.5-0.1,1.1-0.1,1.6C1475,967.3,1474.8,968.6,1474.6,969.9z M1332.5,969.9c-0.5-3.6-0.8-7.3-0.8-11
		c0-3.7,0.3-7.4,0.8-11c0.6,3.8,1.5,7.4,2.6,11C1334,962.4,1333.1,966.1,1332.5,969.9z"/>
</g>
<g transform="matrix(0.999999,0,0,0.999999,-909.706,-580.967)">
	<path class="st19" d="M1408.1,1024.1c-35.3,3.1-69.2-25.3-69.9-63.9v-1.3c0-36.1,29.3-65.5,65.4-65.5c36.1,0,65.5,29.4,65.5,65.5
		C1469,993.4,1442.1,1021.8,1408.1,1024.1z M1400.1,1055.8c0.1,3.3,0,6.6-0.3,9.8c-0.1,0.5-0.1,0.9-0.1,1.4
		c-2.4,26.6-14.8,50.1-33.8,67.2c-3.7,3.3-8.6,5.1-13.9,5.1h-109.5c-21.1,0-56.7-48.6-46.2-101.8c30.3-1.7,57.9,7.3,81.7,26.4
		c28.7,22.9,71.1,19.7,122.1-8.8V1055.8z M1249.5,966.4c5.8-3,9.3-9,9.3-15.7v-58.3h76.8v27.5c-6.7,11.5-10.4,24.8-10.4,39
		c0,41.3,32.2,75.3,72.8,78.1c0.3,1.2,0.5,2.5,0.7,3.8c-28.1,16.5-54.1,25.3-75.1,25.3c-14.6,0-27.2-4.2-37.5-12.4
		c-24.3-19.5-52.2-29.4-82.9-29.4c-1.1,0-2.3,0.1-3.4,0.1C1208.4,999.6,1226,978.7,1249.5,966.4z M1244.2,879.4v-25.5h105.9v25.5
		H1244.2z M1482,958.9c0-43.2-35.2-78.4-78.4-78.4c-21.4,0-40.8,8.6-54.9,22.6v-10.6h8c3.6,0,6.5-2.9,6.5-6.5v-38.4
		c0-3.6-2.8-6.5-6.5-6.5h-118.9c-3.6,0-6.5,2.9-6.5,6.5v38.4c0,3.6,2.9,6.5,6.5,6.5h8.1v58.3c0,1.8-1,3.4-2.4,4.2
		c-29.4,15.4-50.7,42.5-58.7,74.6c0,0.1-0.1,0.2-0.1,0.3c-5.5,22.2-4.5,45.8,4.4,69c8.8,23,28.7,53.4,53.4,53.4H1352
		c8.6,0,16.6-3,22.6-8.5c29.4-26.5,44-66.5,36.6-106.8C1450.9,1033,1482,999.5,1482,958.9z"/>
</g>
<g transform="matrix(0.999999,0,0,0.999999,-909.706,-580.967)">
	<path class="st13" d="M1414.7,978.5c1.8-1.4,2.6-3.3,2.6-5.5c0-2.2-0.7-4-2.1-5.2c-1.4-1.3-4-2.5-7.7-3.6v17
		C1410.6,980.8,1413,979.9,1414.7,978.5z M1394.8,937.1c-1.6,1.4-2.4,3.2-2.4,5.3c0,2.1,0.6,3.8,1.9,5c1.3,1.2,3.6,2.4,7.2,3.5
		v-16.4C1398.7,934.8,1396.4,935.6,1394.8,937.1z M1401.5,998.1v-6.9c-8.6-0.9-16.4-4.3-23.3-10.3l6.9-8.2
		c5.3,4.6,10.7,7.3,16.4,8.2v-18.3c-7.1-1.7-12.3-3.9-15.6-6.7c-3.3-2.8-5-6.9-5-12.3c0-5.4,1.9-9.9,5.7-13.4
		c3.8-3.5,8.8-5.4,14.9-5.7v-4.7h6v4.8c6.9,0.5,13.5,2.9,19.6,7.1l-6.1,8.7c-4.2-3-8.7-4.8-13.5-5.5v17.8h0.3c7.2,1.7,12.6,4,16,6.9
		c3.4,2.9,5.1,7.1,5.1,12.6c0,5.5-2,10-5.9,13.5c-3.9,3.5-9.1,5.4-15.5,5.7v6.8H1401.5z"/>
</g>
</svg>
