<?xml version="1.0" encoding="utf-8"?>
<!-- Generator: Adobe Illustrator 23.0.0, SVG Export Plug-In . SVG Version: 6.00 Build 0)  -->
<svg version="1.1" id="Layer_1" xmlns:serif="http://www.serif.com/"
	 xmlns="http://www.w3.org/2000/svg" xmlns:xlink="http://www.w3.org/1999/xlink" x="0px" y="0px" viewBox="0 0 906.3 800"
	 style="enable-background:new 0 0 906.3 800;" xml:space="preserve">
<style type="text/css">
	.st0{fill:#1BC0DC;}
	.st1{fill:#D82B3F;}
	.st2{fill:#13365D;}
	.st3{fill:#EA9D3B;}
	.st4{fill:#FFFFFF;}
	.st5{fill:#F3C489;}
	.st6{fill:#E5E5E5;}
	.st7{fill:#D28E35;}
	.st8{fill:#D9B07C;}
	.st9{fill:#E27679;}
	.st10{fill:#EFADAF;}
	.st11{fill:#CE6A6E;}
	.st12{fill:#D78DA2;}
	.st13{fill:#E7BAC6;}
	.st14{fill:#C28091;}
	.st15{fill:#EAF4FC;}
	.st16{fill:#283B66;}
</style>
<g transform="matrix(4.16667,0,0,4.16667,-12960,-1301)">
	<g transform="matrix(1,0,0,1,24.2135,-336.005)">
		<path class="st0" d="M3182.33,663.2c-38.9,0-71.6,26.9-80.5,63l20.9,19.8l-21,19.3c8.7,36.5,41.5,63.6,80.6,63.6
			c45.8,0,82.9-37.1,82.9-82.9C3265.23,700.3,3228.13,663.2,3182.33,663.2z"/>
	</g>
	<g transform="matrix(1,0,0,1,24.2135,-336.005)">
		<path class="st1" d="M3275.73,748c1.2,0,2.2-1,2.2-2.2c0-17-4.4-33.4-12.7-47.8c0-0.1-0.1-0.3-0.2-0.4
			c-8.3-14.4-20.3-26.5-34.6-35c-14.8-8.7-31.7-13.3-48.9-13.3c-11.2,0-22.1,1.9-32.5,5.6c-10.1,3.6-19.4,8.8-27.8,15.6
			c-16.8,13.4-28.7,32.3-33.6,53.1c-0.2,0.7,0.1,1.5,0.6,2.1l20.2,19.9l-20.3,20c-0.9,0.8-0.9,2.2,0,3.1c0.4,0.4,1,0.7,1.6,0.7
			s1.1-0.2,1.5-0.6l21.9-21.5c0.4-0.4,0.7-1,0.7-1.6s-0.2-1.1-0.7-1.6l-20.9-20.6c10.2-40.9,46.4-69.4,88.6-69.7
			c0.2,0.1,0.4,0.1,0.7,0.1c50.7,0,92,41.3,92,92C3273.63,747,3274.53,748,3275.73,748z"/>
	</g>
	<g transform="matrix(1,0,0,1,24.2135,-336.005)">
		<path class="st2" d="M3147.83,831.7c-2.6-1.1-5.3-2.3-7.8-3.6c-0.6-0.3-1.3-0.1-1.6,0.5s-0.1,1.3,0.5,1.6c2.6,1.4,5.3,2.6,8,3.7
			c0.1,0.1,0.3,0.1,0.4,0.1c0.5,0,0.9-0.3,1.1-0.7C3148.73,832.7,3148.43,832,3147.83,831.7z"/>
	</g>
	<g transform="matrix(1,0,0,1,24.2135,-336.005)">
		<path class="st2" d="M3164.33,836.8c-2.8-0.6-5.6-1.3-8.3-2.1c-0.6-0.2-1.3,0.2-1.5,0.8s0.2,1.3,0.8,1.5c2.8,0.9,5.7,1.6,8.6,2.2
			c0.1,0,0.2,0,0.2,0c0.5,0,1-0.4,1.1-0.9C3165.33,837.5,3164.93,836.9,3164.33,836.8z"/>
	</g>
	<g transform="matrix(1,0,0,1,24.2135,-336.005)">
		<path class="st2" d="M3181.43,838.7c-2.9-0.1-5.8-0.2-8.6-0.6c-0.6-0.1-1.2,0.4-1.3,1s0.4,1.2,1,1.3c2.9,0.3,5.9,0.5,8.8,0.6l0,0
			c0.6,0,1.1-0.5,1.2-1.1C3182.53,839.2,3182.03,838.7,3181.43,838.7z"/>
	</g>
	<g transform="matrix(1,0,0,1,24.2135,-336.005)">
		<path class="st2" d="M3132.63,823.7c-2.4-1.6-4.7-3.2-7-5c-0.5-0.4-1.2-0.3-1.6,0.2s-0.3,1.2,0.2,1.6c2.3,1.8,4.7,3.6,7.2,5.1
			c0.2,0.1,0.4,0.2,0.6,0.2c0.4,0,0.8-0.2,1-0.5C3133.33,824.8,3133.13,824.1,3132.63,823.7z"/>
	</g>
	<g transform="matrix(1,0,0,1,24.2135,-336.005)">
		<path class="st2" d="M3095.73,777.3c-0.2-0.6-0.9-0.9-1.5-0.7s-0.9,0.9-0.7,1.5c1,2.8,2.1,5.5,3.4,8.1c0.2,0.4,0.6,0.7,1.1,0.7
			c0.2,0,0.3,0,0.5-0.1c0.6-0.3,0.8-1,0.6-1.5C3097.83,782.7,3096.73,780,3095.73,777.3z"/>
	</g>
	<g transform="matrix(1,0,0,1,24.2135,-336.005)">
		<path class="st2" d="M3113.13,806.8c-0.4-0.5-1.2-0.5-1.6-0.1c-0.5,0.4-0.5,1.2-0.1,1.6c1.9,2.2,4,4.4,6.1,6.4
			c0.2,0.2,0.5,0.3,0.8,0.3s0.6-0.1,0.8-0.4c0.4-0.5,0.4-1.2,0-1.6C3117.03,811.1,3115.03,809,3113.13,806.8z"/>
	</g>
	<g transform="matrix(1,0,0,1,24.2135,-336.005)">
		<path class="st2" d="M3103.13,792.9c-0.3-0.6-1-0.7-1.6-0.4s-0.7,1-0.4,1.6c1.5,2.5,3.1,5,4.8,7.4c0.2,0.3,0.6,0.5,0.9,0.5
			c0.2,0,0.5-0.1,0.7-0.2c0.5-0.4,0.6-1.1,0.3-1.6C3106.13,797.8,3104.53,795.3,3103.13,792.9z"/>
	</g>
	<g transform="matrix(1,0,0,1,24.2135,-336.005)">
		<path class="st2" d="M3258.13,802.9c-0.5-0.4-1.2-0.3-1.6,0.2c-1.8,2.2-3.7,4.4-5.6,6.5c-0.4,0.5-0.4,1.2,0,1.6
			c0.2,0.2,0.5,0.3,0.8,0.3s0.6-0.1,0.8-0.4c2-2.1,4-4.4,5.8-6.7C3258.73,804.1,3258.63,803.3,3258.13,802.9z"/>
	</g>
	<g transform="matrix(1,0,0,1,24.2135,-336.005)">
		<path class="st2" d="M3273.83,772c-0.6-0.2-1.3,0.2-1.4,0.8c-0.8,2.7-1.8,5.5-2.9,8.1c-0.2,0.6,0,1.3,0.6,1.5
			c0.1,0.1,0.3,0.1,0.4,0.1c0.5,0,0.9-0.3,1.1-0.7c1.1-2.7,2.1-5.5,2.9-8.3C3274.83,772.8,3274.43,772.2,3273.83,772z"/>
	</g>
	<g transform="matrix(1,0,0,1,24.2135,-336.005)">
		<path class="st2" d="M3267.43,788.2c-0.6-0.3-1.3-0.1-1.6,0.5c-0.4,0.8-0.9,1.6-1.3,2.4l-1,1.7c-0.7,1.1-1.3,2.2-2,3.3
			c-0.3,0.5-0.2,1.3,0.3,1.6c0.2,0.1,0.4,0.2,0.6,0.2c0.4,0,0.8-0.2,1-0.5c0.7-1.1,1.4-2.2,2.1-3.4l1.1-1.7l0,0
			c0.5-0.8,0.9-1.7,1.3-2.5C3268.23,789.2,3268.03,788.5,3267.43,788.2z"/>
	</g>
	<g transform="matrix(1,0,0,1,24.2135,-336.005)">
		<path class="st2" d="M3198.53,837.5c-2.8,0.5-5.7,0.8-8.6,1c-0.6,0-1.1,0.6-1.1,1.2c0,0.6,0.6,1.1,1.2,1.1h0.1
			c2.9-0.2,5.9-0.6,8.8-1c0.6-0.1,1.1-0.7,1-1.3C3199.83,837.8,3199.23,837.4,3198.53,837.5z"/>
	</g>
	<g transform="matrix(1,0,0,1,24.2135,-336.005)">
		<path class="st2" d="M3277.13,754.9c-0.6-0.1-1.2,0.4-1.3,1c-0.3,2.8-0.8,5.7-1.3,8.5c-0.1,0.6,0.3,1.2,0.9,1.4c0.1,0,0.2,0,0.2,0
			c0.5,0,1-0.4,1.1-0.9c0.6-2.9,1-5.8,1.4-8.7C3278.23,755.5,3277.73,755,3277.13,754.9z"/>
	</g>
	<g transform="matrix(1,0,0,1,24.2135,-336.005)">
		<path class="st2" d="M3215.23,833.1c-2.7,1-5.4,1.8-8.2,2.6c-0.6,0.2-1,0.8-0.8,1.4c0.1,0.5,0.6,0.9,1.1,0.9c0.1,0,0.2,0,0.3,0
			c2.8-0.7,5.7-1.6,8.4-2.6c0.6-0.2,0.9-0.9,0.7-1.5C3216.43,833.2,3215.83,832.9,3215.23,833.1z"/>
	</g>
	<g transform="matrix(1,0,0,1,24.2135,-336.005)">
		<path class="st2" d="M3244.63,815.6c-2.1,1.9-4.4,3.7-6.7,5.4c-0.5,0.4-0.6,1.1-0.3,1.6c0.2,0.3,0.6,0.5,0.9,0.5
			c0.2,0,0.5-0.1,0.7-0.2c2.4-1.7,4.7-3.6,6.9-5.5c0.5-0.4,0.5-1.2,0.1-1.6C3245.83,815.2,3245.13,815.2,3244.63,815.6z"/>
	</g>
	<g transform="matrix(1,0,0,1,24.2135,-336.005)">
		<path class="st2" d="M3230.73,825.7c-2.5,1.5-5,2.8-7.6,4c-0.6,0.3-0.8,1-0.6,1.6c0.2,0.4,0.6,0.7,1.1,0.7c0.2,0,0.3,0,0.5-0.1
			c2.6-1.3,5.3-2.7,7.8-4.1c0.6-0.3,0.7-1,0.4-1.6C3232.03,825.6,3231.33,825.4,3230.73,825.7z"/>
	</g>
	<g transform="matrix(0.999999,0,0,0.999999,3174.31,-741.59)">
		<path class="st3" d="M39.13,1164l21.7-6.2c2-0.6,4.1,0.7,4.6,2.8c0.3,1.7-0.5,3.4-2.1,4.1l-33,16.9c-4.1,2.1-9,1.7-12.7-1l-6.9-5
			c-1.3-0.9-2.8-1.4-4.4-1.4h-4.2v-19.7h10.5c4.2,0,8.2,2,10.8,5.3h11.3c2.4,0,4.4,2,4.4,4.4s-2,4.4-4.4,4.4h-10.9L39.13,1164z"/>
	</g>
	<g transform="matrix(0.999999,0,0,0.999999,3174.31,-741.59)">
		<path class="st4" d="M39.13,1164c-0.1-2.4-2-4.3-4.4-4.3h-11.4c-2.6-3.3-6.6-5.3-10.8-5.3H2.13l0,0h10.4c4.2,0,8.2,1.9,10.8,5.3
			h11.3C37.03,1159.7,39.03,1161.6,39.13,1164L39.13,1164 M65.13,1159.7c-0.4-0.8-1.1-1.5-1.9-1.8
			C64.03,1158.2,64.73,1158.8,65.13,1159.7z"/>
	</g>
	<g transform="matrix(0.999999,0,0,0.999999,3174.31,-741.59)">
		<path class="st5" d="M39.13,1167.4c0-0.6-0.1-1.1-0.3-1.6l0,0c-0.2-0.5-0.6-1-1-1.5c-0.8-0.8-1.9-1.2-3.1-1.2h-11.4
			c-2.6-3.3-6.6-5.3-10.8-5.3H2.13v-3.3v-0.2h10.5c4.2,0,8.2,2,10.8,5.3h11.3c2.4,0,4.4,1.9,4.4,4.3l0,0l0,0l21.7-6.2
			c0.3-0.1,0.7-0.1,1-0.1c0.5,0,0.9,0.1,1.3,0.3c0.8,0.3,1.5,1,1.9,1.8v0.1c-0.1-0.3-0.3-0.5-0.4-0.7c-0.3,0.9-1,1.7-1.9,2.1h-0.1
			c-0.3-0.1-0.6-0.1-0.9-0.1s-0.7,0-1,0.1L39.13,1167.4z"/>
	</g>
	<g transform="matrix(0.999999,0,0,0.999999,3174.31,-741.59)">
		<path class="st6" d="M24.73,1182.9c-2.5,0-5-0.8-7.2-2.3l-6.9-5c-1.3-0.9-2.8-1.4-4.4-1.4h-4.1l0,0h4.1c1.6,0,3.1,0.5,4.4,1.4
			l6.9,5C19.73,1182.1,22.23,1182.9,24.73,1182.9c1.9,0,3.8-0.4,5.6-1.4l33-16.9c1.6-0.7,2.5-2.4,2.1-4.1c-0.1-0.2-0.1-0.5-0.2-0.7
			c0.1,0.2,0.2,0.5,0.2,0.7s0.1,0.5,0.1,0.7c0,1.4-0.8,2.7-2.2,3.3l-33,16.9C28.53,1182.4,26.63,1182.9,24.73,1182.9z"/>
	</g>
	<g transform="matrix(0.999999,0,0,0.999999,3174.31,-741.59)">
		<path class="st7" d="M24.73,1182.9c-2.5,0-5-0.8-7.2-2.3l-6.9-5c-1.3-0.9-2.8-1.4-4.4-1.4h-4.1v-3.4h3.6c1.6,0,3.1,0.5,4.4,1.4
			l6.9,5c2.1,1.5,4.6,2.3,7.2,2.3c1.9,0,3.8-0.4,5.6-1.4l32.9-16.9c1,0.3,1.8,0.9,2.3,1.8c0.3-0.5,0.5-1.1,0.5-1.7
			c0-0.2,0-0.5-0.1-0.7c-0.1-0.3-0.1-0.5-0.2-0.7l0,0c0.1,0.2,0.2,0.4,0.2,0.7c0.3,1.7-0.5,3.4-2.1,4.1l-33,16.9
			C28.53,1182.4,26.63,1182.9,24.73,1182.9z"/>
	</g>
	<g transform="matrix(0.999999,0,0,0.999999,3174.31,-741.59)">
		<path class="st8" d="M65.03,1163c-0.5-0.9-1.3-1.5-2.3-1.8h0.1c0.9-0.4,1.6-1.2,1.9-2.1c0.2,0.2,0.3,0.4,0.4,0.7
			c0.1,0.2,0.2,0.5,0.2,0.7s0.1,0.5,0.1,0.7C65.53,1161.8,65.33,1162.4,65.03,1163z"/>
	</g>
	<g transform="matrix(0.999999,0,0,0.999999,3174.31,-741.59)">
		<path class="st9" d="M2.13,1154.6v21c0,1.7-1.4,3.1-3.1,3.1h-5.3v-27.2h5.3C0.73,1151.5,2.13,1152.9,2.13,1154.6z"/>
	</g>
	<g transform="matrix(0.999999,0,0,0.999999,3174.31,-741.59)">
		<path class="st4" d="M2.13,1154.6c0-0.4-0.1-0.8-0.2-1.2c0.1,0.3,0.2,0.7,0.2,1.1V1154.6z"/>
	</g>
	<g transform="matrix(0.999999,0,0,0.999999,3174.31,-741.59)">
		<path class="st5" d="M2.13,1158.3v-0.1v-3.6v-0.1v0.1V1158.3z"/>
	</g>
	<g transform="matrix(0.999999,0,0,0.999999,3174.31,-741.59)">
		<rect x="-6.27" y="1151.5" class="st4" width="0" height="3.7"/>
	</g>
	<g transform="matrix(0.999999,0,0,0.999999,3174.31,-741.59)">
		<path class="st10" d="M2.13,1158.2c-0.1-1.7-1.4-3-3.1-3h-5.3v-3.7h5.3c1.3,0,2.4,0.8,2.9,1.9c0.2,0.4,0.2,0.8,0.2,1.2
			C2.13,1154.6,2.13,1158.2,2.13,1158.2z"/>
	</g>
	<g transform="matrix(0.999999,0,0,0.999999,3174.31,-741.59)">
		<path class="st6" d="M-0.97,1178.7h-5.3v-3.7l0,0v3.7H-0.97z M0.83,1178.1c0.8-0.6,1.3-1.5,1.3-2.5v-1.5l0,0v1.5
			C2.13,1176.6,1.63,1177.6,0.83,1178.1z"/>
	</g>
	<g transform="matrix(0.999999,0,0,0.999999,3174.31,-741.59)">
		<path class="st7" d="M2.13,1174.1L2.13,1174.1v-2.1v-0.1V1174.1z"/>
	</g>
	<g transform="matrix(0.999999,0,0,0.999999,3174.31,-741.59)">
		<path class="st11" d="M-0.97,1178.7h-5.3v-3.7h5.3c1.7,0,3.1-1.3,3.1-3v3.6c0,1.1-0.5,2-1.3,2.5
			C0.33,1178.5-0.27,1178.7-0.97,1178.7z"/>
	</g>
	<g transform="matrix(0.999999,0,0,0.999999,3174.31,-741.59)">
		<path class="st12" d="M61.93,1130.4v4.2c0,0.5-0.3,0.9-0.8,1l-2.4,0.6c-0.4,0.1-0.7,0.4-0.7,0.7c-0.4,1.5-1,3-1.8,4.3
			c-0.2,0.3-0.2,0.7,0,1l1.3,2.1c0.2,0.4,0.2,0.9-0.1,1.3l-3,3c-0.3,0.3-0.9,0.4-1.3,0.1l-2.1-1.3c-0.3-0.2-0.7-0.2-1,0
			c-1.3,0.8-2.8,1.4-4.3,1.8c-0.4,0.1-0.7,0.4-0.7,0.7l-0.6,2.4c-0.1,0.5-0.5,0.8-1,0.8h-4.2c-0.5,0-0.9-0.3-1-0.8l-0.6-2.4
			c-0.1-0.4-0.4-0.7-0.7-0.7c-1.5-0.4-3-1-4.3-1.8c-0.3-0.2-0.7-0.2-1,0l-2.1,1.3c-0.4,0.2-0.9,0.2-1.3-0.1l-3-3
			c-0.3-0.3-0.4-0.9-0.1-1.3l1.3-2.1c0.2-0.3,0.2-0.7,0-1c-0.8-1.3-1.4-2.8-1.8-4.3c-0.1-0.4-0.4-0.7-0.7-0.7l-2.4-0.6
			c-0.5-0.1-0.8-0.5-0.8-1v-4.2c0-0.5,0.3-0.9,0.8-1l2.4-0.6c0.4-0.1,0.7-0.4,0.7-0.7c0.4-1.5,1-3,1.8-4.3c0.2-0.3,0.2-0.7,0-1
			l-1.3-2.1c-0.2-0.4-0.2-0.9,0.1-1.3l3-3c0.3-0.3,0.9-0.4,1.3-0.1l2.1,1.3c0.3,0.2,0.7,0.2,1,0c1.3-0.8,2.8-1.4,4.3-1.8
			c0.4-0.1,0.7-0.4,0.7-0.7l0.6-2.4c0.1-0.5,0.5-0.8,1-0.8h4.2c0.5,0,0.9,0.3,1,0.8l0.6,2.4c0.1,0.4,0.4,0.7,0.7,0.7
			c1.5,0.4,3,1,4.3,1.8c0.3,0.2,0.7,0.2,1,0l2.1-1.3c0.4-0.2,0.9-0.2,1.3,0.1l3,3c0.3,0.3,0.4,0.9,0.1,1.3l-1.3,2.1
			c-0.2,0.3-0.2,0.7,0,1c0.8,1.3,1.4,2.8,1.8,4.3c0.1,0.4,0.4,0.7,0.7,0.7l2.4,0.6C61.63,1129.5,61.93,1129.9,61.93,1130.4z"/>
	</g>
	<g transform="matrix(0.999999,0,0,0.999999,3174.31,-741.59)">
		<path class="st4" d="M56.13,1123.1L56.13,1123.1v-0.1V1123.1z M26.43,1123.1L26.43,1123.1L26.43,1123.1L26.43,1123.1z
			 M26.33,1122.9c0-0.1-0.1-0.1-0.1-0.2l-1.1-1.8l1.1,1.8C26.33,1122.7,26.33,1122.8,26.33,1122.9z M56.13,1122.8c0,0,0-0.1,0.1-0.1
			l1.3-2.1c0.2-0.3,0.2-0.6,0.1-0.8c0.1,0.3,0.1,0.6-0.1,0.8L56.13,1122.8C56.23,1122.7,56.13,1122.8,56.13,1122.8z M57.63,1119.7
			L57.63,1119.7L57.63,1119.7z M24.93,1119.6c0-0.1,0.1-0.2,0.2-0.3l3-3c0.1-0.1,0.2-0.2,0.4-0.2c-0.1,0-0.3,0.1-0.4,0.2l-3,3
			C25.03,1119.4,24.93,1119.5,24.93,1119.6z M55.93,1117.9l-1.5-1.5c-0.1-0.1-0.2-0.2-0.3-0.2c0.1,0,0.2,0.1,0.3,0.2L55.93,1117.9z
			 M50.73,1117.6c0.1,0,0.2-0.1,0.3-0.1l1.5-0.9l-1.5,0.9C50.93,1117.6,50.83,1117.6,50.73,1117.6z M31.73,1117.6
			c-0.1,0-0.2-0.1-0.3-0.1l-2.1-1.3c-0.1,0-0.1-0.1-0.2-0.1c0.1,0,0.1,0.1,0.2,0.1l2.1,1.3C31.53,1117.6,31.63,1117.6,31.73,1117.6z
			 M50.23,1117.6c-0.1,0-0.2-0.1-0.3-0.1c-0.7-0.4-1.3-0.7-2.1-1c0.7,0.3,1.4,0.6,2.1,1C50.03,1117.5,50.13,1117.6,50.23,1117.6z
			 M32.33,1117.6c0.1,0,0.1-0.1,0.2-0.1c0.4-0.2,0.8-0.5,1.3-0.7c-0.4,0.2-0.9,0.4-1.3,0.7C32.43,1117.5,32.43,1117.6,32.33,1117.6z
			 M35.93,1116c0.3-0.1,0.6-0.2,0.9-0.3c0.4-0.1,0.7-0.4,0.7-0.7l0.2-0.9l-0.2,0.9c-0.1,0.4-0.4,0.7-0.7,0.7
			C36.53,1115.8,36.23,1115.9,35.93,1116z M46.23,1115.9c-0.2-0.1-0.4-0.1-0.5-0.1c-0.4-0.1-0.7-0.4-0.7-0.7l-0.6-2.4
			c-0.1-0.3-0.3-0.6-0.6-0.7c0.3,0.1,0.6,0.4,0.6,0.7l0.6,2.4c0.1,0.4,0.4,0.7,0.7,0.7C45.83,1115.8,46.03,1115.8,46.23,1115.9z"/>
	</g>
	<g transform="matrix(0.999999,0,0,0.999999,3174.31,-741.59)">
		<path class="st13" d="M26.43,1123.1L26.43,1123.1c0-0.1,0-0.2-0.1-0.2c0-0.1-0.1-0.1-0.1-0.2l-1.1-1.8l-0.2-0.4
			c-0.2-0.3-0.2-0.7-0.1-1c0-0.1,0.1-0.2,0.2-0.3l3-3c0.1-0.1,0.3-0.2,0.4-0.2s0.2-0.1,0.3-0.1c0.1,0,0.2,0,0.4,0.1
			c0.1,0,0.1,0.1,0.2,0.1l2.1,1.3c0.1,0.1,0.2,0.1,0.3,0.1c0.1,0,0.2,0,0.2,0c0.1,0,0.2,0,0.3-0.1c0.1,0,0.1-0.1,0.2-0.1
			c0.4-0.2,0.8-0.5,1.3-0.7c0.7-0.3,1.4-0.6,2.2-0.9c0.3-0.1,0.6-0.2,0.9-0.3c0.4-0.1,0.7-0.4,0.7-0.7l0.2-0.9l0.4-1.5
			c0.1-0.5,0.5-0.8,1-0.8h4.2c0.1,0,0.2,0,0.4,0.1c0.3,0.1,0.6,0.4,0.6,0.7l0.6,2.4c0.1,0.4,0.4,0.7,0.7,0.7c0.2,0,0.4,0.1,0.5,0.1
			c0.6,0.2,1.2,0.4,1.7,0.6c0.7,0.3,1.4,0.6,2.1,1c0.1,0.1,0.2,0.1,0.3,0.1s0.2,0,0.3,0s0.1,0,0.2,0c0.1,0,0.2-0.1,0.3-0.1l1.5-0.9
			l0.7-0.4c0.2-0.1,0.4-0.2,0.5-0.2s0.3,0,0.4,0.1c0.1,0,0.2,0.1,0.3,0.2l1.5,1.5l1.4,1.4c0.1,0.1,0.2,0.3,0.3,0.4l0,0l0,0
			c0.1,0.3,0.1,0.6-0.1,0.8l-1.3,2.1c0,0,0,0.1-0.1,0.1c0,0.1-0.1,0.1-0.1,0.2v0.1l-1.6-1.6c-0.2-0.2-0.5-0.3-0.7-0.3
			s-0.4,0-0.5,0.1l-2.1,1.3c-0.2,0.1-0.3,0.1-0.5,0.1s-0.4-0.1-0.5-0.1c-1.3-0.8-2.8-1.4-4.3-1.8c-0.4-0.1-0.7-0.4-0.7-0.7l-0.6-2.4
			c-0.1-0.5-0.5-0.8-1-0.8h-4.2c-0.5,0-0.9,0.3-1,0.8l-0.6,2.4c-0.1,0.4-0.4,0.7-0.7,0.7c-1.5,0.4-3,1-4.3,1.8
			c-0.2,0.1-0.4,0.1-0.5,0.1c-0.2,0-0.4,0-0.5-0.1l-2.1-1.3c-0.2-0.1-0.4-0.1-0.5-0.1c-0.3,0-0.5,0.1-0.7,0.3L26.43,1123.1z"/>
	</g>
	<g transform="matrix(0.999999,0,0,0.999999,3174.31,-741.59)">
		<path class="st6" d="M43.43,1153.2c0.3,0,0.6-0.2,0.8-0.5C44.03,1153,43.73,1153.1,43.43,1153.2z M44.33,1152.4L44.33,1152.4
			L44.33,1152.4z M44.33,1152.4L44.33,1152.4l0.6-2.5v-0.1v0.1L44.33,1152.4L44.33,1152.4z M29.03,1148.9c0.1,0,0.2-0.1,0.3-0.1
			l0.6-0.4l-0.6,0.4C29.23,1148.8,29.13,1148.8,29.03,1148.9z M25.83,1146.3l-0.7-0.7l-0.1-0.1l0.1,0.1L25.83,1146.3z M57.63,1145.1
			c0-0.2,0-0.5-0.1-0.7l-1.3-2.1c0-0.1-0.1-0.1-0.1-0.2c0,0.1,0.1,0.1,0.1,0.2l1.3,2.1C57.63,1144.6,57.73,1144.8,57.63,1145.1z
			 M25.33,1143.8l0.9-1.5c0.1-0.1,0.1-0.3,0.1-0.4l0,0c0,0.1-0.1,0.3-0.1,0.4L25.33,1143.8z M56.13,1142v-0.1l0,0
			C56.13,1141.9,56.13,1141.9,56.13,1142z"/>
	</g>
	<g transform="matrix(0.999999,0,0,0.999999,3174.31,-741.59)">
		<path class="st14" d="M43.33,1153.2h-4.2c-0.5,0-0.9-0.3-1-0.8l-0.6-2.4c-0.1-0.4-0.4-0.7-0.7-0.7c-1.5-0.4-3-1-4.3-1.8
			c-0.2-0.1-0.3-0.1-0.5-0.1s-0.4,0-0.5,0.1l-1.6,1l-0.6,0.4c-0.1,0.1-0.2,0.1-0.3,0.1c-0.1,0-0.2,0-0.2,0c-0.3,0-0.5-0.1-0.7-0.3
			l-2.3-2.3l-0.7-0.7l-0.1-0.1c-0.2-0.3-0.3-0.8-0.1-1.2l0.4-0.6l0.9-1.5c0.1-0.1,0.1-0.3,0.1-0.4l1.6,1.7c0.2,0.2,0.5,0.3,0.7,0.3
			s0.4-0.1,0.5-0.2l2.1-1.3c0.2-0.1,0.3-0.2,0.5-0.2s0.4,0,0.5,0.1c1.3,0.8,2.8,1.4,4.3,1.8c0.4,0.1,0.7,0.4,0.7,0.7l0.6,2.4
			c0.1,0.5,0.5,0.8,1,0.8h4.2c0.5,0,0.9-0.3,1-0.8l0.6-2.4c0.1-0.4,0.4-0.6,0.7-0.7c1.5-0.4,3-1,4.3-1.8c0.2-0.1,0.3-0.1,0.5-0.1
			s0.4,0,0.5,0.2l2.1,1.3c0.2,0.1,0.4,0.2,0.5,0.2c0.3,0,0.5-0.1,0.7-0.3l1.6-1.6v0.1v0.1c0,0.1,0,0.1,0.1,0.2l1.3,2.1
			c0.1,0.2,0.2,0.4,0.1,0.7c0,0.2-0.1,0.4-0.3,0.6l-2.9,2.9c-0.2,0.2-0.5,0.3-0.7,0.3s-0.4-0.1-0.5-0.2l-2.1-1.3
			c-0.2-0.1-0.3-0.1-0.5-0.1s-0.4,0-0.5,0.1c-1.3,0.8-2.8,1.4-4.3,1.8c-0.3,0.1-0.6,0.3-0.7,0.7v0.1l-0.6,2.4l0,0l0,0l0,0
			c0,0.1-0.1,0.2-0.1,0.3c-0.2,0.3-0.4,0.4-0.8,0.5C43.43,1153.2,43.33,1153.2,43.33,1153.2z"/>
	</g>
	<g transform="matrix(0.999999,0,0,0.999999,3174.31,-741.59)">
		<path class="st15" d="M50.43,1132.5c0,5.1-4.1,9.2-9.2,9.2s-9.2-4.1-9.2-9.2s4.1-9.2,9.2-9.2S50.43,1127.4,50.43,1132.5z"/>
	</g>
	<g transform="matrix(0.999999,0,0,0.999999,3174.31,-741.59)">
		<path class="st16" d="M62.63,1163.2l-33,16.9c-10.4,5.3-15.1-7.6-23.4-7.6h-2.5v-16.6h8.9c3.7,0,7.3,1.7,9.6,4.7
			c0.3,0.4,0.7,0.6,1.2,0.6h11.3c1.5,0,2.8,1.2,2.9,2.7v0.1c0,1.6-1.3,2.9-2.9,2.9h-10.9c-0.9,0-1.6,0.7-1.6,1.6s0.7,1.6,1.6,1.6
			h10.8c2.9,0,5.4-2.1,5.9-4.9l20.7-5.9c1.2-0.3,2.4,0.4,2.6,1.6C64.13,1161.8,63.53,1162.7,62.63,1163.2z M0.53,1175.6
			c0,0.9-0.7,1.6-1.6,1.6h-3.7v-24.1h3.7c0.9,0,1.6,0.7,1.6,1.6C0.53,1154.7,0.53,1175.6,0.53,1175.6z M66.93,1160.2
			c-0.6-3-3.6-4.8-6.5-3.9l-20.1,5.8c-0.9-2.3-3-3.9-5.6-3.9h-10.6c-2.9-3.3-7.1-5.3-11.5-5.3h-9.3c-0.7-1.7-2.4-2.9-4.3-2.9h-5.3
			c-0.9,0-1.6,0.7-1.6,1.6v27.2c0,0.9,0.7,1.6,1.6,1.6h5.3c2.6,0,4.6-2.1,4.7-4.6h2.5c6.1,0,12.8,13.4,24.8,7.3l32.9-16.9
			C66.13,1165,67.43,1162.6,66.93,1160.2z"/>
	</g>
	<g transform="matrix(0.999999,0,0,0.999999,3174.31,-741.59)">
		<path class="st16" d="M60.43,1134.1l-2,0.5c-0.9,0.2-1.7,0.9-1.9,1.9c-0.4,1.4-0.9,2.7-1.6,3.9c-0.5,0.8-0.5,1.9,0,2.7l1.1,1.8
			l-2.4,2.4l-1.8-1.1c-0.8-0.5-1.8-0.5-2.7,0c-1.2,0.7-2.5,1.3-3.9,1.6c-0.9,0.2-1.7,1-1.9,1.9l-0.5,2h-3.3l-0.5-2
			c-0.2-0.9-0.9-1.7-1.9-1.9c-1.4-0.4-2.7-0.9-3.9-1.6c-0.8-0.5-1.9-0.5-2.7,0l-1.8,1.1l-2.4-2.4l1.1-1.8c0.5-0.8,0.5-1.8,0-2.7
			c-0.7-1.2-1.3-2.5-1.6-3.9c-0.2-1-1-1.7-1.9-1.9l-2-0.5v-3.3l2-0.5c0.9-0.2,1.7-0.9,1.9-1.9c0.4-1.4,0.9-2.7,1.6-3.9
			c0.5-0.8,0.5-1.8,0-2.7l-1.1-1.8l2.4-2.4l1.8,1.1c0.8,0.5,1.8,0.5,2.7,0c1.2-0.7,2.5-1.3,3.9-1.6c0.9-0.2,1.7-1,1.9-1.9l0.5-2h3.3
			l0.5,2c0.2,0.9,0.9,1.7,1.9,1.9c1.4,0.4,2.7,0.9,3.9,1.6c0.8,0.5,1.9,0.5,2.7,0l1.8-1.1l2.4,2.4l-1.1,1.8c-0.5,0.8-0.5,1.8,0,2.7
			c0.7,1.2,1.3,2.6,1.6,3.9c0.2,0.9,1,1.7,1.9,1.9l2,0.5V1134.1z M61.53,1127.9l-2.1-0.5c-0.4-1.4-1-2.8-1.7-4.1l1.1-1.9
			c0.6-1,0.5-2.3-0.4-3.2l-3-3c-0.8-0.8-2.2-1-3.2-0.4l-1.9,1.1c-1.3-0.7-2.7-1.3-4.1-1.7l-0.5-2.1c-0.3-1.2-1.3-2-2.5-2h-4.2
			c-1.2,0-2.2,0.8-2.5,2l-0.5,2.1c-1.5,0.4-2.8,1-4.1,1.7l-1.9-1.1c-1-0.6-2.3-0.5-3.2,0.4l-3,3c-0.9,0.9-1,2.2-0.4,3.2l1.1,1.9
			c-0.7,1.3-1.3,2.7-1.7,4.1l-2.1,0.5c-1.2,0.3-2,1.3-2,2.5v4.2c0,1.2,0.8,2.2,2,2.5l2.1,0.5c0.4,1.4,1,2.8,1.7,4.1l-1.1,1.9
			c-0.6,1-0.5,2.3,0.4,3.2l3,3c0.8,0.8,2.2,1,3.2,0.4l1.9-1.1c1.3,0.7,2.7,1.3,4.1,1.7l0.5,2.1c0.3,1.2,1.3,2,2.5,2h4.2
			c1.2,0,2.2-0.8,2.5-2l0.5-2.1c1.4-0.4,2.8-1,4.1-1.7l1.9,1.1c1,0.6,2.4,0.5,3.2-0.4l3-3c0.8-0.8,1-2.2,0.4-3.2l-1.1-1.9
			c0.7-1.3,1.3-2.7,1.7-4.1l2.1-0.5c1.2-0.3,2-1.3,2-2.5v-4.2C63.53,1129.2,62.73,1128.1,61.53,1127.9z"/>
	</g>
	<g transform="matrix(0.999999,0,0,0.999999,3174.31,-741.59)">
		<path class="st16" d="M41.23,1140.1c-4.2,0-7.7-3.4-7.7-7.7s3.4-7.7,7.7-7.7c4.2,0,7.7,3.4,7.7,7.7S45.43,1140.1,41.23,1140.1z
			 M41.23,1121.7c-5.9,0-10.8,4.8-10.8,10.8c0,5.9,4.8,10.8,10.8,10.8c5.9,0,10.8-4.8,10.8-10.8
			C52.03,1126.5,47.23,1121.7,41.23,1121.7z"/>
	</g>
</g>
</svg>
