<?xml version="1.0" encoding="utf-8"?>
<!-- Generator: Adobe Illustrator 23.0.0, SVG Export Plug-In . SVG Version: 6.00 Build 0)  -->
<svg version="1.1" id="Layer_1" xmlns:serif="http://www.serif.com/"
	 xmlns="http://www.w3.org/2000/svg" xmlns:xlink="http://www.w3.org/1999/xlink" x="0px" y="0px" viewBox="0 0 918.2 800"
	 style="enable-background:new 0 0 918.2 800;" xml:space="preserve">
<style type="text/css">
	.st0{fill:#1BC0DC;}
	.st1{fill:#13365D;}
	.st2{fill:#D82B3F;}
	.st3{fill:#F48E9E;}
	.st4{fill:#E5808F;}
	.st5{fill:#E27679;}
	.st6{fill:#EFADAF;}
	.st7{fill:#CE6A6E;}
	.st8{fill:#FFFFFF;}
	.st9{fill:#CBD2E9;}
	.st10{fill:#DFE3F1;}
	.st11{fill:#B6BDD0;}
	.st12{fill:#97BDE4;}
	.st13{fill:#BFD8F0;}
	.st14{fill:#E5E5E5;}
	.st15{fill:#82ABDA;}
	.st16{fill:#EA9D3B;}
	.st17{fill:#D28E35;}
	.st18{fill:#F3C489;}
	.st19{fill:#9BABC6;}
	.st20{fill:#283B66;}
</style>
<g transform="matrix(4.16667,0,0,4.16667,-419,-373)">
	<g transform="matrix(1,0,0,1,-155.213,-559.245)">
		<path class="st0" d="M434.6,745.3c0,45.7-37,82.7-82.7,82.7c-45.7,0-82.7-37-82.7-82.7c0-45.7,37-82.7,82.7-82.7
			C397.6,662.7,434.6,699.7,434.6,745.3z"/>
	</g>
	<g transform="matrix(1,0,0,1,-155.213,-559.245)">
		<path class="st1" d="M445.5,754c-0.6-0.1-1.2,0.4-1.3,1c-0.2,1.4-0.3,2.9-0.6,4.3c-0.1,0.6,0.3,1.2,1,1.3c0.1,0,0.1,0,0.2,0
			c0.6,0,1.1-0.4,1.1-1c0.2-1.4,0.4-2.9,0.6-4.4C446.6,754.6,446.2,754.1,445.5,754z"/>
	</g>
	<g transform="matrix(1,0,0,1,-155.213,-559.245)">
		<path class="st1" d="M337.7,836.7c-2.8-0.4-5.6-1-8.4-1.7c-0.6-0.2-1.3,0.2-1.4,0.8c-0.2,0.6,0.2,1.3,0.8,1.4
			c2.8,0.7,5.7,1.3,8.6,1.7c0.1,0,0.1,0,0.2,0c0.6,0,1.1-0.4,1.1-1C338.8,837.4,338.4,836.8,337.7,836.7z"/>
	</g>
	<g transform="matrix(1,0,0,1,-155.213,-559.245)">
		<path class="st1" d="M321.1,832.5c-2.7-0.9-5.4-2-7.9-3.2c-0.6-0.3-1.3,0-1.5,0.6c-0.3,0.6,0,1.3,0.6,1.5c2.7,1.2,5.4,2.3,8.1,3.3
			c0.1,0,0.3,0.1,0.4,0.1c0.5,0,0.9-0.3,1.1-0.8C322.1,833.4,321.7,832.8,321.1,832.5z"/>
	</g>
	<g transform="matrix(1,0,0,1,-155.213,-559.245)">
		<path class="st1" d="M354.8,837.7c-2.8,0.1-5.7,0-8.6-0.1c-0.6,0-1.2,0.4-1.2,1.1c0,0.6,0.4,1.2,1.1,1.2c1.9,0.1,3.9,0.2,5.8,0.2
			c1,0,2,0,2.9,0c0.6,0,1.1-0.6,1.1-1.2C356,838.2,355.5,837.7,354.8,837.7z"/>
	</g>
	<g transform="matrix(1,0,0,1,-155.213,-559.245)">
		<path class="st1" d="M305.6,825.4c-2.5-1.4-4.9-3-7.2-4.6c-0.5-0.4-1.2-0.2-1.6,0.3c-0.4,0.5-0.2,1.2,0.3,1.6
			c2.4,1.7,4.9,3.3,7.4,4.7c0.2,0.1,0.4,0.2,0.6,0.2c0.4,0,0.8-0.2,1-0.6C306.3,826.4,306.1,825.7,305.6,825.4z"/>
	</g>
	<g transform="matrix(1,0,0,1,-155.213,-559.245)">
		<path class="st1" d="M266.5,781.3c-0.3-0.6-0.9-0.9-1.5-0.6c-0.6,0.2-0.9,0.9-0.6,1.5c1.1,2.7,2.4,5.3,3.8,7.9
			c0.2,0.4,0.6,0.6,1,0.6c0.2,0,0.4,0,0.6-0.1c0.6-0.3,0.8-1,0.5-1.6C268.8,786.5,267.6,783.9,266.5,781.3z"/>
	</g>
	<g transform="matrix(1,0,0,1,-155.213,-559.245)">
		<path class="st1" d="M285.4,809.6c-0.4-0.5-1.2-0.5-1.6,0c-0.5,0.4-0.5,1.2,0,1.6c2,2.1,4.2,4.1,6.4,6c0.2,0.2,0.5,0.3,0.8,0.3
			c0.3,0,0.7-0.1,0.9-0.4c0.4-0.5,0.4-1.2-0.1-1.6C289.4,813.6,287.3,811.7,285.4,809.6z"/>
	</g>
	<g transform="matrix(1,0,0,1,-155.213,-559.245)">
		<path class="st1" d="M274.6,796.3c-0.4-0.5-1.1-0.7-1.6-0.3c-0.5,0.4-0.7,1.1-0.3,1.6c1.6,2.4,3.4,4.8,5.2,7.1
			c0.2,0.3,0.6,0.4,0.9,0.4c0.3,0,0.5-0.1,0.7-0.3c0.5-0.4,0.6-1.1,0.2-1.6C277.9,801,276.2,798.7,274.6,796.3z"/>
	</g>
	<g transform="matrix(1,0,0,1,-155.213,-559.245)">
		<path class="st1" d="M261.3,765c-0.1-0.6-0.8-1-1.4-0.9c-0.6,0.1-1,0.8-0.9,1.4c0.6,2.8,1.4,5.7,2.3,8.5c0.2,0.5,0.6,0.8,1.1,0.8
			c0.1,0,0.2,0,0.4-0.1c0.6-0.2,0.9-0.8,0.8-1.5C262.6,770.5,261.9,767.7,261.3,765z"/>
	</g>
	<g transform="matrix(1,0,0,1,-155.213,-559.245)">
		<path class="st1" d="M429.3,798.4c-0.5-0.4-1.2-0.2-1.6,0.3c-1.6,2.3-3.4,4.6-5.3,6.7c-0.4,0.5-0.4,1.2,0.1,1.6
			c0.2,0.2,0.5,0.3,0.8,0.3c0.3,0,0.7-0.1,0.9-0.4c1.9-2.2,3.7-4.5,5.4-6.9C430,799.5,429.8,798.7,429.3,798.4z"/>
	</g>
	<g transform="matrix(1,0,0,1,-155.213,-559.245)">
		<path class="st1" d="M437.8,783.3c-0.6-0.3-1.3,0-1.5,0.6c-1.2,2.6-2.5,5.1-4,7.6c-0.3,0.6-0.1,1.3,0.4,1.6
			c0.2,0.1,0.4,0.2,0.6,0.2c0.4,0,0.8-0.2,1-0.6c1.5-2.5,2.8-5.1,4.1-7.8C438.6,784.2,438.4,783.5,437.8,783.3z"/>
	</g>
	<g transform="matrix(1,0,0,1,-155.213,-559.245)">
		<path class="st1" d="M443.4,766.9c-0.6-0.2-1.3,0.2-1.4,0.8c-0.7,2.8-1.5,5.5-2.5,8.2c-0.2,0.6,0.1,1.3,0.7,1.5
			c0.1,0,0.3,0.1,0.4,0.1c0.5,0,0.9-0.3,1.1-0.8c1-2.7,1.8-5.6,2.5-8.4C444.4,767.6,444,767,443.4,766.9z"/>
	</g>
	<g transform="matrix(1,0,0,1,-155.213,-559.245)">
		<path class="st1" d="M371.8,835.6c-2.8,0.6-5.6,1.1-8.4,1.4c-0.6,0.1-1.1,0.7-1,1.3c0.1,0.6,0.6,1,1.2,1c0,0,0.1,0,0.1,0
			c2.9-0.4,5.8-0.8,8.7-1.5c0.6-0.1,1-0.8,0.9-1.4C373.1,835.9,372.4,835.5,371.8,835.6z"/>
	</g>
	<g transform="matrix(1,0,0,1,-155.213,-559.245)">
		<path class="st1" d="M416.5,811.6c-2,2-4.2,3.9-6.4,5.7c-0.5,0.4-0.6,1.1-0.2,1.6c0.2,0.3,0.6,0.4,0.9,0.4c0.3,0,0.5-0.1,0.7-0.3
			c2.3-1.8,4.5-3.8,6.6-5.8c0.5-0.4,0.5-1.2,0-1.6C417.7,811.2,417,811.2,416.5,811.6z"/>
	</g>
	<g transform="matrix(1,0,0,1,-155.213,-559.245)">
		<path class="st1" d="M388.1,830.5c-2.6,1.1-5.3,2.1-8,3c-0.6,0.2-0.9,0.8-0.8,1.5c0.2,0.5,0.6,0.8,1.1,0.8c0.1,0,0.2,0,0.4-0.1
			c2.8-0.9,5.6-1.9,8.2-3c0.6-0.3,0.9-0.9,0.6-1.5C389.4,830.5,388.7,830.2,388.1,830.5z"/>
	</g>
	<g transform="matrix(1,0,0,1,-155.213,-559.245)">
		<path class="st1" d="M403.2,822.4c-2.4,1.6-4.8,3.1-7.3,4.4c-0.6,0.3-0.8,1-0.5,1.6c0.2,0.4,0.6,0.6,1,0.6c0.2,0,0.4,0,0.5-0.1
			c2.6-1.4,5.1-2.9,7.5-4.5c0.5-0.4,0.7-1.1,0.3-1.6C404.5,822.2,403.7,822,403.2,822.4z"/>
	</g>
	<g transform="matrix(1,0,0,1,-155.213,-559.245)">
		<path class="st1" d="M259.8,756.4c-0.2-1.4-0.3-2.9-0.4-4.3c0-0.6-0.6-1.1-1.2-1.1c-0.6,0-1.1,0.6-1.1,1.2
			c0.1,1.5,0.3,2.9,0.4,4.4c0.1,0.6,0.6,1,1.2,1c0,0,0.1,0,0.1,0C259.4,757.7,259.9,757.1,259.8,756.4z"/>
	</g>
	<g transform="matrix(1,0,0,1,-155.213,-559.245)">
		<path class="st2" d="M476.1,745.2l-21.8-21.3v18.9h-6.3c-0.5-24.9-10.5-48.2-28.1-65.8c-18.2-18.2-42.3-28.2-68-28.2
			c-25.7,0-49.8,10-68,28.2c-18.2,18.2-28.2,42.3-28.2,68c0,1.2,1,2.2,2.2,2.2c1.2,0,2.2-1,2.2-2.2c0-50.6,41.2-91.8,91.8-91.8
			s91.8,41.2,91.8,91.8c0,1.2,1,2.2,2.2,2.2h8.4v19.4L476.1,745.2z"/>
	</g>
</g>
<g transform="matrix(0.999999,0,0,0.999999,595.437,-1286.38)">
	<path class="st3" d="M-222.4,1835c-12.1,0-22.5-8.4-25.1-20.2l-19-87.5l-2.9-13.2h52.6l2.9,13.2l4,18.1l8.2,38l4.4,20.4
		C-193.8,1819.9-206,1835-222.4,1835z"/>
</g>
<g transform="matrix(0.999999,0,0,0.999999,595.437,-1286.38)">
	<path class="st4" d="M-222.4,1835c-12.1,0-22.5-8.4-25.1-20.2l-3.2-14.6h4.3c3.8,9.8,13.2,16.5,24,16.5c11.2,0,20.4-7,24-16.5h0.4
		l0.8,3.6c0.4,1.9,0.6,3.7,0.6,5.6C-196.7,1823.2-207.9,1835-222.4,1835z"/>
</g>
<g transform="matrix(0.999999,0,0,0.999999,595.437,-1286.38)">
	<path class="st5" d="M-200.2,1611.8v102.3h-77.4c-5.5,0-10-4.5-10-10v-82.4c0-5.5,4.5-10,10-10H-200.2z"/>
</g>
<g transform="matrix(0.999999,0,0,0.999999,595.437,-1286.38)">
	<path class="st6" d="M-287.5,1638.4V1625v-3.2c0-5.5,4.4-9.9,9.9-9.9h77.4v20.6h-77.4C-283.1,1632.4-287.5,1635.1-287.5,1638.4z"/>
</g>
<g transform="matrix(0.999999,0,0,0.999999,595.437,-1286.38)">
	<path class="st7" d="M-200.2,1714.1h-77.4c-5.5,0-9.9-4.4-9.9-9.9v-3.3v-13.4c0,3.3,4.4,5.9,9.9,5.9h77.4V1714.1z"/>
</g>
<g transform="matrix(0.999999,0,0,0.999999,595.437,-1286.38)">
	<path class="st4" d="M-213.9,1727.3h-52.7l-2.8-13.2h52.6L-213.9,1727.3z"/>
</g>
<g transform="matrix(0.999999,0,0,0.999999,595.437,-1286.38)">
	<path class="st7" d="M-216.9,1714.1h-52.6l0,0L-216.9,1714.1L-216.9,1714.1z"/>
</g>
<g transform="matrix(0.999999,0,0,0.999999,595.437,-1286.38)">
	<path class="st8" d="M-277.7,1626.1c1.2-0.7,2.6-1.1,4.1-1.1h14.3v0h-14.3C-275,1625-276.4,1625.4-277.7,1626.1z"/>
	<g transform="matrix(0.999999,0,0,0.999999,595.437,-1286.38)">
		<path class="st9" d="M-905.8,2919.9v58.9c0,4.7,3.8,8.5,8.5,8.5h14.3v-75.9h-14.3C-902,2911.4-905.8,2915.2-905.8,2919.9z"/>
	</g>
</g>
<g transform="matrix(0.999999,0,0,0.999999,595.437,-1286.38)">
	<path class="st6" d="M-287.5,1642.7L-287.5,1642.7l0-17.7v0h0V1642.7z"/>
</g>
<g transform="matrix(0.999999,0,0,0.999999,595.437,-1286.38)">
	<path class="st10" d="M-310.4,1647.3v-13.8c0-3.2,1.7-6,4.4-7.4c1.2-0.7,2.6-1.1,4.1-1.1h14.3v17.7h-14.3
		C-306.6,1642.7-310.4,1644.7-310.4,1647.3z"/>
</g>
<g transform="matrix(0.999999,0,0,0.999999,595.437,-1286.38)">
	<path class="st7" d="M-287.5,1700.9L-287.5,1700.9l0-17.7h0V1700.9z"/>
</g>
<g transform="matrix(0.999999,0,0,0.999999,595.437,-1286.38)">
	<path class="st11" d="M-287.5,1700.9h-14.3c-4.7,0-8.5-3.8-8.5-8.5v-13.7c0,2.5,3.8,4.5,8.5,4.5h14.3V1700.9z"/>
</g>
<g transform="matrix(0.999999,0,0,0.999999,595.437,-1286.38)">
	<path class="st9" d="M-51.2,1551.6v222.8c0,11.7-12.7,19-22.8,13.1l-126.2-73.3v-102.3l126.2-73.3
		C-63.9,1532.6-51.2,1539.9-51.2,1551.6z"/>
</g>
<g transform="matrix(0.999999,0,0,0.999999,595.437,-1286.38)">
	<path class="st12" d="M-74,1538.5l-11.4,6.6v235.8l11.4,6.6c10.1,5.9,22.8-1.4,22.8-13.1v-222.8
		C-51.2,1539.9-63.9,1532.6-74,1538.5z"/>
</g>
<g transform="matrix(0.999999,0,0,0.999999,595.437,-1286.38)">
	<path class="st8" d="M-163.1,1590.2l89.1-51.8c2.5-1.4,5.1-2.1,7.6-2.1c0.7,0,1.5,0,2.2,0.2c-0.7-0.1-1.5-0.2-2.2-0.2
		c-1.8,0-3.6,0.3-5.5,1c-0.7,0.3-1.4,0.6-2.1,1l-6.8,3.9l-4.6,2.7L-163.1,1590.2z"/>
</g>
<g transform="matrix(0.999999,0,0,0.999999,595.437,-1286.38)">
	<path class="st10" d="M-200.2,1626.3v-14.5l37.1-21.6l77.7-45.2v33.4L-200.2,1626.3z M-80.8,1542.4l6.8-3.9c0.7-0.4,1.4-0.8,2.1-1
		c-0.7,0.3-1.4,0.6-2.1,1L-80.8,1542.4z"/>
</g>
<g transform="matrix(0.999999,0,0,0.999999,595.437,-1286.38)">
	<path class="st13" d="M-51.2,1583.1c0-6.3-7.2-10.8-15.1-10.8c-2.6,0-5.2,0.5-7.6,1.5l-11.4,4.7v-33.4l4.6-2.7l6.8-3.9
		c0.7-0.4,1.4-0.8,2.1-1c1.8-0.7,3.6-1,5.5-1c0.7,0,1.5,0.1,2.2,0.2c7,1.1,13,7,13,15V1583.1z"/>
</g>
<g transform="matrix(0.999999,0,0,0.999999,595.437,-1286.38)">
	<path class="st14" d="M-66.4,1789.5c-2.5,0-5.1-0.7-7.6-2.1l-20-11.6l20,11.6C-71.5,1788.9-68.9,1789.5-66.4,1789.5
		c1.8,0,3.6-0.3,5.3-1C-62.8,1789.2-64.6,1789.5-66.4,1789.5z"/>
</g>
<g transform="matrix(0.999999,0,0,0.999999,595.437,-1286.38)">
	<path class="st11" d="M-66.4,1789.5c-2.5,0-5.1-0.7-7.6-2.1l-20-11.6l-106.2-61.7v-14.5l114.8,47.8v33.4l11.4,6.6
		C-71.5,1788.9-68.9,1789.5-66.4,1789.5c1.9,0,3.7-0.4,5.4-1c0,0-0.1,0-0.1,0C-62.8,1789.2-64.6,1789.5-66.4,1789.5z"/>
</g>
<g transform="matrix(0.999999,0,0,0.999999,595.437,-1286.38)">
	<path class="st15" d="M-66.4,1789.5c-2.5,0-5.1-0.7-7.6-2.1l-11.4-6.6v-33.4l11.4,4.7c2.5,1,5.1,1.5,7.6,1.5
		c7.9,0,15.2-4.6,15.2-10.9v31.6c0,6.8-4.2,12.1-9.8,14.2C-62.7,1789.2-64.5,1789.5-66.4,1789.5z"/>
</g>
<g transform="matrix(0.999999,0,0,0.999999,595.437,-1286.38)">
	<path class="st16" d="M-51.2,1614v98c18.2-8.8,30.9-27.4,30.9-49S-33,1622.7-51.2,1614z"/>
</g>
<g transform="matrix(0.999999,0,0,0.999999,595.437,-1286.38)">
	<rect x="-51.2" y="1687.4" class="st15" width="0" height="24.5"/>
</g>
<g transform="matrix(0.999999,0,0,0.999999,595.437,-1286.38)">
	<path class="st14" d="M-28,1690.8c4.7-7.9,7.5-17.1,7.7-26.9c0-0.3,0-0.6,0-0.9C-20.3,1673.1-23.2,1682.7-28,1690.8z"/>
</g>
<g transform="matrix(0.999999,0,0,0.999999,595.437,-1286.38)">
	<path class="st17" d="M-51.2,1711.9v-24.5c17.7-4.2,30.2-13.2,30.9-23.6c-0.2,9.8-2.9,19-7.7,26.9
		C-33.5,1699.9-41.6,1707.3-51.2,1711.9z"/>
</g>
<g transform="matrix(0.999999,0,0,0.999999,595.437,-1286.38)">
	<path class="st8" d="M-20.3,1663c0-0.3,0-0.6,0-0.9c-0.3-21.2-12.9-39.4-30.9-48.1v24.5V1614C-33,1622.7-20.3,1641.3-20.3,1663z"/>
</g>
<g transform="matrix(0.999999,0,0,0.999999,595.437,-1286.38)">
	<path class="st13" d="M-51.2,1638.4C-51.2,1638.4-51.2,1638.4-51.2,1638.4l0-24.5c0,0,0,0,0,0V1638.4z"/>
</g>
<g transform="matrix(0.999999,0,0,0.999999,595.437,-1286.38)">
	<path class="st18" d="M-20.4,1662.1c-0.7-10.5-13.1-19.3-30.9-23.6V1614C-33.2,1622.6-20.7,1640.8-20.4,1662.1z"/>
</g>
<g transform="matrix(0.999999,0,0,0.999999,595.437,-1286.38)">
	<path class="st19" d="M-201.8,1783.4c-1.1,0.2-2.2,0.3-3.3,0.3c-10.8,0-19.5-8.7-19.5-19.5c0-9,6.2-16.6,14.6-18.8L-201.8,1783.4z"
		/>
</g>
<g transform="matrix(0.999999,0,0,0.999999,595.437,-1286.38)">
	<path class="st20" d="M-44.7,1700.2v-74.5c11.2,9,17.9,22.5,17.9,37.3S-33.5,1691.2-44.7,1700.2z M-57.7,1774.3
		c0,7.1-7.9,10.5-13,7.5l-8.2-4.7v-228.3l8.2-4.7c5.1-3,13,0.2,13,7.5V1774.3z M-91.9,1769.5l-101.8-59.2v-94.8l101.8-59.2V1769.5z
		 M-206.7,1707.6h-70.9h-0.2c-1.9-0.1-3.3-1.6-3.3-3.5v-82.3c0-1.9,1.5-3.5,3.4-3.5h70.9V1707.6z M-214.5,1755.3
		c0.1,0.7,4.3,19.7,4.6,21C-218.5,1772.9-220.9,1761.9-214.5,1755.3z M-206.9,1790l3.3,15.3c2.5,12-6.6,23.3-18.8,23.3
		c-9.1,0-16.8-6.2-18.8-15.1l-20.2-92.8h39.4l4.5,21c-8.2,4.4-13.6,13-13.6,22.6C-231.1,1777.9-220.4,1789-206.9,1790z M-294,1694.4
		h-7.9c-1.1,0-2-0.9-2-2v-59c0-1.1,0.9-2,2-2h7.9V1694.4z M-44.7,1610.2v-58.6c0-12-9.7-21.7-21.7-21.7c-3.8,0-7.5,1-10.8,2.9
		c-31.6,18.4-106.3,61.8-124.7,72.5h-75.6c-8,0-14.6,5.7-16.1,13.2h-8.2c-8.3,0-15,6.8-15,15v59c0,8.2,6.7,15,15,15h8.2
		c1.5,7.5,8.1,13.2,16.1,13.2h2.9l20.7,95.6c3.3,14.9,16.2,25.4,31.5,25.4c20.5,0,35.8-19,31.5-39.1c0,0,0-0.1-0.1-0.6v-0.1
		l-0.1-0.1l-0.1-0.3c-0.1-0.4-0.1-0.7-0.2-1c-0.1-0.1-0.1-0.3-0.1-0.5c-0.1-0.6-0.1-0.8-0.1-0.8c-1.6-7.1-5.9-27.2-17.1-78.4h6.8
		c16.4,9.5,94.9,55.2,124.7,72.5c14.7,8.5,32.5-2.5,32.5-18.7v-58.7c19.1-10.8,30.9-30.6,30.9-52.7
		C-13.8,1640.8-25.7,1621.1-44.7,1610.2z"/>
</g>
</svg>
