<?xml version="1.0" encoding="utf-8"?>
<!-- Generator: Adobe Illustrator 23.0.0, SVG Export Plug-In . SVG Version: 6.00 Build 0)  -->
<svg version="1.1" id="Layer_1" xmlns:serif="http://www.serif.com/"
	 xmlns="http://www.w3.org/2000/svg" xmlns:xlink="http://www.w3.org/1999/xlink" x="0px" y="0px" viewBox="0 0 1290 1460"
	 style="enable-background:new 0 0 1290 1460;" xml:space="preserve">
<style type="text/css">
	.st0{fill-rule:evenodd;clip-rule:evenodd;fill:#1AA8B7;}
</style>
<g transform="matrix(1,0,0,1,-1457,-1428)">
	<g transform="matrix(1,0,0,1,51.0802,-191.653)">
		<path class="st0" d="M1532.1,1952.8c35.8-97.2,37.7-215.4,134.6-280.1c196.9-131.4,244.8,16.5,415,68.6
			c94.9,29,215.2,22.7,296.9,85.9c229.5,177.5-20.8,247.5,36.8,404.3c26.6,72.5,86.3,120.8,135.4,177.6
			c50.4,58.2,87.5,126.8,112.2,199.6c28.3,83.3,44,179,20.1,265.2c-14.7,52.8-43.7,101.2-86.9,135.4c-100.1,79.4-182,16.9-300.8,30
			c-104.9,11.5-255.6,79-348-0.9c-198.6-171.8,45.5-368.3-19.5-462.9c-110.7-161.1-343-64.9-475.3-135.4
			c-25.5-13.6-42.4-33.2-45-62.9C1401.3,2304.9,1488.9,2070.1,1532.1,1952.8z"/>
	</g>
</g>
</svg>
