<?xml version="1.0" encoding="utf-8"?>
<!-- Generator: Adobe Illustrator 23.0.0, SVG Export Plug-In . SVG Version: 6.00 Build 0)  -->
<svg version="1.1" id="Layer_1" xmlns:serif="http://www.serif.com/"
	 xmlns="http://www.w3.org/2000/svg" xmlns:xlink="http://www.w3.org/1999/xlink" x="0px" y="0px" viewBox="0 0 1152 877"
	 style="enable-background:new 0 0 1152 877;" xml:space="preserve">
<style type="text/css">
	.st0{fill-rule:evenodd;clip-rule:evenodd;fill:#18C2DC;}
</style>
<g transform="matrix(1,0,0,1,-1279,-238)">
	<path class="st0" d="M1403.3,477.4c5.2-53.8-32.3-115.7,13.5-161.6c92.2-92.5,199.8,0.4,307.8-16.3
		c109.3-16.9,235.4-96.4,346.4-43.3c97.3,46.6,101.8,178.9,134.9,267.2c16.1,42.9,40.8,81.4,67.8,118.2
		c73.6,100.5,211.8,227.4,134.7,364.7c-39,69.4-127.1,118.4-207.3,106.4c-163.8-24.6-166-224.5-313.3-218.4
		c-180.4,7.6-351.1,303.3-537.3,108.6C1167.5,811.5,1392.3,592,1403.3,477.4z"/>
</g>
</svg>
