<?xml version="1.0" encoding="utf-8"?>
<!-- Generator: Adobe Illustrator 23.0.0, SVG Export Plug-In . SVG Version: 6.00 Build 0)  -->
<svg version="1.1" id="Layer_1" xmlns:serif="http://www.serif.com/"
	 xmlns="http://www.w3.org/2000/svg" xmlns:xlink="http://www.w3.org/1999/xlink" x="0px" y="0px" viewBox="0 0 906.3 800"
	 style="enable-background:new 0 0 906.3 800;" xml:space="preserve">
<style type="text/css">
	.st0{fill:#1BC0DC;}
	.st1{fill:#13365D;}
	.st2{fill:#D82B3F;}
	.st3{fill:#666CA3;}
	.st4{fill:#6E7198;}
	.st5{fill:#FFFFFF;}
	.st6{fill:#A8AAC1;}
	.st7{fill:#5C6293;}
	.st8{fill:#E5E5E5;}
	.st9{fill:#626588;}
	.st10{fill:#96AECD;}
	.st11{fill:#BFCEE1;}
	.st12{fill:#869CB8;}
	.st13{fill:#ACB9CA;}
	.st14{fill:none;}
	.st15{fill:#283B66;}
</style>
<g transform="matrix(4.16667,0,0,4.16667,-3507,-3713)">
	<g transform="matrix(1,0,0,1,-125.128,240.658)">
		<path class="st0" d="M1060,663.9c-38.1,0-70.2,25.7-79.8,60.8l23.2,22L980,768.1c9.4,35.3,41.7,61.4,80,61.4
			c45.7,0,82.8-37.1,82.8-82.8C1142.8,701,1105.7,663.9,1060,663.9z"/>
	</g>
	<g transform="matrix(1,0,0,1,-125.128,240.658)">
		<path class="st1" d="M1096.4,660.4c2.6,1.1,5.3,2.3,7.8,3.7c0.2,0.1,0.4,0.1,0.5,0.1c0.4,0,0.8-0.2,1-0.6c0.3-0.6,0.1-1.3-0.5-1.6
			c-2.6-1.4-5.3-2.6-8-3.8c-0.6-0.2-1.3,0-1.5,0.6C1095.6,659.5,1095.8,660.2,1096.4,660.4z"/>
	</g>
	<g transform="matrix(1,0,0,1,-125.128,240.658)">
		<path class="st1" d="M1063,653.3c2.9,0.1,5.8,0.3,8.6,0.6c0,0,0.1,0,0.1,0c0.6,0,1.1-0.4,1.2-1c0.1-0.6-0.4-1.2-1-1.3
			c-2.9-0.3-5.9-0.5-8.8-0.6c-0.6,0-1.2,0.5-1.2,1.1C1061.8,652.8,1062.3,653.3,1063,653.3z"/>
	</g>
	<g transform="matrix(1,0,0,1,-125.128,240.658)">
		<path class="st1" d="M1111.6,668.5c2.4,1.6,4.7,3.3,7,5c0.2,0.2,0.5,0.3,0.7,0.3c0.3,0,0.7-0.1,0.9-0.4c0.4-0.5,0.3-1.2-0.2-1.6
			c-2.3-1.8-4.7-3.6-7.1-5.2c-0.5-0.4-1.3-0.2-1.6,0.3C1110.9,667.4,1111.1,668.1,1111.6,668.5z"/>
	</g>
	<g transform="matrix(1,0,0,1,-125.128,240.658)">
		<path class="st1" d="M1080,655.3c2.8,0.6,5.6,1.3,8.3,2.2c0.1,0,0.2,0.1,0.3,0.1c0.5,0,1-0.3,1.1-0.8c0.2-0.6-0.2-1.3-0.8-1.5
			c-2.8-0.9-5.7-1.6-8.5-2.2c-0.6-0.1-1.2,0.3-1.4,0.9C1079,654.6,1079.4,655.2,1080,655.3z"/>
	</g>
	<g transform="matrix(1,0,0,1,-125.128,240.658)">
		<path class="st1" d="M1141,699.4c0.2,0.4,0.6,0.6,1,0.6c0.2,0,0.4-0.1,0.6-0.2c0.6-0.3,0.7-1,0.4-1.6c-1.5-2.5-3.1-5-4.8-7.4
			c-0.4-0.5-1.1-0.6-1.6-0.3c-0.5,0.4-0.6,1.1-0.3,1.6C1138,694.5,1139.6,697,1141,699.4z"/>
	</g>
	<g transform="matrix(1,0,0,1,-125.128,240.658)">
		<path class="st1" d="M1131,685.4c0.2,0.3,0.6,0.4,0.9,0.4c0.3,0,0.5-0.1,0.8-0.3c0.5-0.4,0.5-1.2,0.1-1.6c-1.9-2.2-4-4.4-6.1-6.4
			c-0.5-0.4-1.2-0.4-1.6,0c-0.4,0.5-0.4,1.2,0,1.6C1127.1,681.2,1129.1,683.3,1131,685.4z"/>
	</g>
	<g transform="matrix(1,0,0,1,-125.128,240.658)">
		<path class="st1" d="M1152.5,731.7c0.1,0.6,0.6,1,1.1,1c0.1,0,0.1,0,0.2,0c0.6-0.1,1.1-0.7,1-1.3c-0.5-2.9-1.1-5.8-1.8-8.6
			c-0.2-0.6-0.8-1-1.4-0.8c-0.6,0.2-1,0.8-0.8,1.4C1151.5,726,1152.1,728.8,1152.5,731.7z"/>
	</g>
	<g transform="matrix(1,0,0,1,-125.128,240.658)">
		<path class="st1" d="M1148.3,715c0.2,0.5,0.6,0.8,1.1,0.8c0.1,0,0.3,0,0.4-0.1c0.6-0.2,0.9-0.9,0.7-1.5c-1-2.8-2.1-5.5-3.4-8.2
			c-0.3-0.6-1-0.8-1.5-0.6c-0.6,0.3-0.8,1-0.6,1.5C1146.2,709.6,1147.3,712.3,1148.3,715z"/>
	</g>
	<g transform="matrix(1,0,0,1,-125.128,240.658)">
		<path class="st1" d="M1045.6,654.5c0.1,0,0.1,0,0.2,0c2.8-0.5,5.7-0.8,8.5-1c0.6,0,1.1-0.6,1.1-1.2c0-0.6-0.6-1.1-1.2-1.1
			c-2.9,0.2-5.9,0.5-8.8,1c-0.6,0.1-1.1,0.7-1,1.3C1044.6,654.1,1045.1,654.5,1045.6,654.5z"/>
	</g>
	<g transform="matrix(1,0,0,1,-125.128,240.658)">
		<path class="st1" d="M998.9,676.4c0.3,0,0.5-0.1,0.8-0.3c2.2-1.9,4.4-3.7,6.7-5.3c0.5-0.4,0.6-1.1,0.3-1.6
			c-0.4-0.5-1.1-0.6-1.6-0.3c-2.4,1.7-4.7,3.6-6.9,5.5c-0.5,0.4-0.5,1.2-0.1,1.6C998.2,676.3,998.6,676.4,998.9,676.4z"/>
	</g>
	<g transform="matrix(1,0,0,1,-125.128,240.658)">
		<path class="st1" d="M970.4,719.6c0.1,0,0.2,0.1,0.3,0.1c0.5,0,1-0.3,1.1-0.8c0.8-2.7,1.8-5.5,2.9-8.1c0.2-0.6,0-1.3-0.6-1.5
			c-0.6-0.2-1.3,0-1.5,0.6c-1.1,2.7-2.1,5.5-3,8.3C969.4,718.8,969.7,719.4,970.4,719.6z"/>
	</g>
	<g transform="matrix(1,0,0,1,-125.128,240.658)">
		<path class="st1" d="M986.1,688.8c0.2,0.2,0.5,0.3,0.7,0.3c0.3,0,0.7-0.2,0.9-0.4c1.8-2.2,3.7-4.4,5.7-6.5c0.4-0.5,0.4-1.2,0-1.6
			c-0.5-0.4-1.2-0.4-1.6,0c-2,2.1-4,4.4-5.8,6.7C985.6,687.6,985.6,688.4,986.1,688.8z"/>
	</g>
	<g transform="matrix(1,0,0,1,-125.128,240.658)">
		<path class="st1" d="M1028.8,658.9c0.1,0,0.3,0,0.4-0.1c2.7-1,5.5-1.8,8.2-2.5c0.6-0.2,1-0.8,0.8-1.4c-0.2-0.6-0.8-1-1.4-0.8
			c-2.8,0.7-5.7,1.6-8.4,2.6c-0.6,0.2-0.9,0.9-0.7,1.5C1027.8,658.6,1028.3,658.9,1028.8,658.9z"/>
	</g>
	<g transform="matrix(1,0,0,1,-125.128,240.658)">
		<path class="st1" d="M976.8,703.5c0.2,0.1,0.4,0.1,0.5,0.1c0.4,0,0.8-0.2,1-0.6c1.3-2.5,2.8-5,4.4-7.4c0.4-0.5,0.2-1.3-0.3-1.6
			c-0.5-0.4-1.3-0.2-1.6,0.3c-1.6,2.5-3.1,5-4.5,7.6C976,702.5,976.2,703.2,976.8,703.5z"/>
	</g>
	<g transform="matrix(1,0,0,1,-125.128,240.658)">
		<path class="st1" d="M1013,666.2c0.2,0,0.4-0.1,0.6-0.2c2.5-1.4,5-2.8,7.6-4c0.6-0.3,0.8-1,0.6-1.5c-0.3-0.6-1-0.8-1.5-0.6
			c-2.7,1.2-5.3,2.6-7.8,4.1c-0.6,0.3-0.7,1-0.4,1.6C1012.2,666,1012.6,666.2,1013,666.2z"/>
	</g>
	<g transform="matrix(1,0,0,1,-125.128,240.658)">
		<path class="st2" d="M1154.5,754.5c-1.2-0.1-2.3,0.7-2.4,1.9c-0.5,5-1.5,10-2.8,14.7c-0.1,0.1-0.1,0.3-0.2,0.4
			c-11.2,39.3-47.6,66.7-88.4,66.7c-42.6,0-79.2-28.7-89.3-69.9l21-20.7c0.4-0.4,0.7-1,0.7-1.6c0-0.6-0.2-1.1-0.7-1.6l-21.8-21.5
			c-0.9-0.8-2.2-0.8-3.1,0c-0.8,0.9-0.8,2.2,0,3.1l20.2,19.9l-20.3,20c-0.5,0.5-0.8,1.3-0.6,2c4.8,20.8,16.7,39.7,33.5,53.2
			c8.4,6.7,17.7,12,27.8,15.6c10.2,3.7,20.9,5.5,31.8,5.6c0.2,0.1,0.5,0.1,0.7,0.1c23.9,0,46.8-8.8,64.5-24.8
			c17.6-15.9,28.7-37.6,31.2-61C1156.6,755.7,1155.7,754.6,1154.5,754.5z"/>
	</g>
	<g transform="matrix(1,0,0,1,-125.128,240.658)">
		<path class="st2" d="M1184.3,746.5l-21.8-21.4v20h-6.6c0-1.4-0.1-2.8-0.1-4.2l-0.1-1c-0.1-0.6-0.6-1.1-1.3-1.1
			c-0.6,0.1-1.1,0.6-1.1,1.3l0.1,1c0.1,1.7,0.1,3.4,0.1,5.2v1.2h8.9v20.3L1184.3,746.5z"/>
	</g>
	<g transform="matrix(0.999999,0,0,0.999999,530.178,-537.328)">
		<rect x="407.5" y="1484.7" class="st3" width="7.7" height="5.9"/>
	</g>
	<g transform="matrix(0.999999,0,0,0.999999,530.178,-537.328)">
		<path class="st3" d="M417.7,1524.1v4.2c0,0.6-0.5,1.1-1.1,1.1h-10.5c-0.6,0-1.1-0.5-1.1-1.1v-4.2H417.7z"/>
	</g>
	<g transform="matrix(0.999999,0,0,0.999999,530.178,-537.328)">
		<path class="st3" d="M415,1529.5v2.1c0,0.1,0,0.3,0,0.4c-0.2,1.8-1.8,3.3-3.6,3.3c-1,0-1.9-0.4-2.6-1.1c-0.6-0.6-1-1.3-1.1-2.2
			c0-0.1,0-0.3,0-0.4v-2.1H415z"/>
	</g>
	<g transform="matrix(0.999999,0,0,0.999999,530.178,-537.328)">
		<path class="st4" d="M421.5,1493v28.6c0,1.4-1.1,2.5-2.5,2.5h-15.2c-1.4,0-2.5-1.1-2.5-2.5V1493c0-1.4,1.1-2.5,2.5-2.5H419
			C420.4,1490.6,421.5,1491.7,421.5,1493z"/>
	</g>
	<g transform="matrix(0.999999,0,0,0.999999,530.178,-537.328)">
		<path class="st5" d="M421.5,1496.9C421.5,1496.9,421.5,1496.8,421.5,1496.9l0-3.8c0-1.4-1.1-2.5-2.5-2.5h-15.2
			c-0.6,0-1.2,0.2-1.6,0.6c0.4-0.4,1-0.6,1.6-0.6H419c1.4,0,2.5,1.1,2.5,2.5V1496.9z"/>
	</g>
	<g transform="matrix(0.999999,0,0,0.999999,530.178,-537.328)">
		<path class="st6" d="M401.3,1496.9v-3.8c0-0.7,0.3-1.4,0.9-1.9c0.4-0.4,1-0.6,1.6-0.6H419c1.4,0,2.5,1.1,2.5,2.5v3.8
			c0-1.3-1.1-2.4-2.5-2.4h-15.2C402.4,1494.4,401.3,1495.5,401.3,1496.9z"/>
	</g>
	<g transform="matrix(0.999999,0,0,0.999999,530.178,-537.328)">
		<rect x="407.5" y="1487.8" class="st7" width="7.7" height="2.8"/>
	</g>
	<g transform="matrix(0.999999,0,0,0.999999,530.178,-537.328)">
		<path class="st8" d="M419,1524.1h-15.2H419c1.4,0,2.5-1.1,2.5-2.5v-3.8c0,0,0,0,0-0.1v3.8C421.5,1523,420.4,1524.1,419,1524.1z
			 M402.8,1523.9L402.8,1523.9L402.8,1523.9z M402.8,1523.9c-0.3-0.1-0.5-0.3-0.7-0.5C402.3,1523.6,402.5,1523.8,402.8,1523.9z"/>
	</g>
	<g transform="matrix(0.999999,0,0,0.999999,530.178,-537.328)">
		<path class="st9" d="M419,1524.1h-15.2c-0.4,0-0.7-0.1-1-0.2h0c0,0,0,0,0,0c-0.3-0.1-0.5-0.3-0.7-0.5c-0.5-0.4-0.7-1.1-0.7-1.8
			v-3.8c0,1.4,1.1,2.5,2.5,2.5H419c1.3,0,2.5-1.1,2.5-2.4v3.8C421.5,1523,420.4,1524.1,419,1524.1z"/>
	</g>
	<g transform="matrix(0.999999,0,0,0.999999,530.178,-537.328)">
		<rect x="405" y="1524.1" class="st7" width="12.7" height="2.6"/>
	</g>
	<g transform="matrix(0.999999,0,0,0.999999,530.178,-537.328)">
		<path class="st7" d="M415,1532h-7.3c0-0.1,0-0.3,0-0.4v0v-2.1h7.3v2.1C415,1531.7,415,1531.8,415,1532z"/>
	</g>
	<g transform="matrix(0.999999,0,0,0.999999,530.178,-537.328)">
		<path class="st3" d="M390.9,1556.3h27.9H390.9z"/>
	</g>
	<g transform="matrix(0.999999,0,0,0.999999,530.178,-537.328)">
		<path class="st10" d="M410.9,1550.3v6h-12.1v-6c0-3.3,2.7-6,6-6c1.7,0,3.2,0.7,4.3,1.8C410.2,1547.1,410.9,1548.6,410.9,1550.3z"
			/>
	</g>
	<g transform="matrix(0.999999,0,0,0.999999,530.178,-537.328)">
		<path class="st5" d="M398.9,1553.9v-3.6c0-1.6,0.7-3.1,1.7-4.2c-1.1,1.1-1.7,2.6-1.7,4.2v2.5h0V1553.9z M410.9,1552.8
			L410.9,1552.8l0-2.5c0-1.4-0.5-2.8-1.4-3.8c0.9,1,1.4,2.4,1.4,3.8V1552.8z"/>
	</g>
	<g transform="matrix(0.999999,0,0,0.999999,530.178,-537.328)">
		<path class="st11" d="M410.9,1552.8L410.9,1552.8c-0.3-1.2-0.9-2.3-1.8-3.2c-1.1-1.1-2.6-1.8-4.3-1.8c-3,0-5.4,2.1-5.9,4.9h-0.1
			v-2.5c0-1.6,0.7-3.1,1.7-4.2c1.1-1.1,2.6-1.8,4.3-1.8c1.7,0,3.2,0.7,4.3,1.8c0.1,0.1,0.3,0.3,0.4,0.4c0.9,1,1.4,2.4,1.4,3.8
			V1552.8z"/>
	</g>
	<g transform="matrix(0.999999,0,0,0.999999,530.178,-537.328)">
		<path class="st8" d="M410.9,1556.3L410.9,1556.3l0-2.8c0,0.1,0,0.2,0,0.3v-1.1V1556.3z M398.9,1556.3L398.9,1556.3l0-2.5
			c0-0.1,0-0.1,0-0.2V1556.3z"/>
	</g>
	<g transform="matrix(0.999999,0,0,0.999999,530.178,-537.328)">
		<path class="st7" d="M410.9,1556.3L410.9,1556.3L410.9,1556.3z M398.9,1556.3L398.9,1556.3L398.9,1556.3z"/>
	</g>
	<g transform="matrix(0.999999,0,0,0.999999,530.178,-537.328)">
		<path class="st12" d="M410.9,1556.3h-12.1v-2.7c0-0.3,0-0.6,0.1-0.9h11.9c0,0.3,0.1,0.5,0.1,0.8V1556.3z"/>
	</g>
	<g transform="matrix(0.999999,0,0,0.999999,530.178,-537.328)">
		<path class="st8" d="M410.9,1553.9c0-0.1,0-0.2,0-0.3v-0.8h0V1553.9z"/>
	</g>
	<g transform="matrix(0.999999,0,0,0.999999,530.178,-537.328)">
		<path class="st13" d="M410.9,1553.6c0-0.3,0-0.5-0.1-0.8h0.1V1553.6z"/>
	</g>
	<g transform="matrix(0.999999,0,0,0.999999,530.178,-537.328)">
		<path class="st8" d="M398.9,1553.9v-1.1h0v0.9C398.9,1553.7,398.9,1553.8,398.9,1553.9z"/>
	</g>
	<g transform="matrix(0.999999,0,0,0.999999,530.178,-537.328)">
		<path class="st13" d="M398.9,1553.7v-0.9h0.1C398.9,1553.1,398.9,1553.4,398.9,1553.7z"/>
	</g>
	<g transform="matrix(0.999999,0,0,0.999999,530.178,-537.328)">
		<path class="st14" d="M404.6,1544.3h21.9"/>
	</g>
	<g transform="matrix(0.999999,0,0,0.999999,530.178,-537.328)">
		<path class="st10" d="M405.1,1503.2c0,2.5-2,4.6-4.6,4.6c-2.5,0-4.5-2-4.5-4.6c0-2.5,2-4.5,4.5-4.5
			C403.1,1498.6,405.1,1500.7,405.1,1503.2z"/>
	</g>
	<g transform="matrix(0.999999,0,0,0.999999,530.178,-537.328)">
		<path class="st8" d="M397.3,1506.3c-0.8-0.8-1.3-1.9-1.3-3.2c0-1.5,0.7-2.8,1.8-3.6c-1.1,0.8-1.8,2.1-1.8,3.6
			C396.1,1504.4,396.5,1505.5,397.3,1506.3z"/>
	</g>
	<g transform="matrix(0.999999,0,0,0.999999,530.178,-537.328)">
		<path class="st12" d="M398.4,1507.2c-0.4-0.2-0.8-0.5-1.1-0.8c-0.8-0.8-1.3-1.9-1.3-3.2c0-1.5,0.7-2.8,1.8-3.6
			c0.8-0.6,1.7-0.9,2.7-0.9c2.4,0,4.4,1.9,4.5,4.3c-0.6-0.4-1.4-0.5-2.2-0.5c-2.5,0-4.5,2-4.5,4.5
			C398.4,1507,398.4,1507.1,398.4,1507.2z"/>
	</g>
	<g transform="matrix(0.999999,0,0,0.999999,530.178,-537.328)">
		<path class="st15" d="M409.4,1554.8h-8.9v-4.5c0-2.4,2-4.4,4.4-4.5h0.1c2.4,0,4.4,2,4.4,4.5V1554.8z M400.6,1500.2
			c1.7,0,3,1.4,3,3c0,1.6-1.4,3-3,3c-1.6,0-3-1.3-3-3C397.6,1501.5,399,1500.2,400.6,1500.2z M402.8,1493.1c0-0.5,0.4-0.9,0.9-0.9
			H419c0.5,0,0.9,0.4,0.9,0.9v28.6c0,0.5-0.4,0.9-0.9,0.9h-15.2c-0.5,0-0.9-0.4-0.9-0.9v-12.8c2.3-0.9,3.9-3.1,3.9-5.7
			c0-2.6-1.6-4.8-3.9-5.7V1493.1z M409.1,1486.2h4.6v2.8h-4.6V1486.2z M416.2,1527.9h-9.6v-2.2h9.6V1527.9z M413.5,1531.6
			c0,1.2-1,2.1-2.1,2.1c-1.2,0-2.1-0.9-2.1-2.1v-0.5h4.2V1531.6z M426.5,1542.7c-5.1,0-21.4,0-22,0c-3.9,0.2-6.8,3.1-7.2,6.7
			c-10.7-1.8-18.9-11.1-18.9-22.3c0-10.3,6.9-19.1,16.4-21.8c0.7,2.1,2.6,3.6,4.8,3.9v12.4c0,2.1,1.7,3.9,3.8,4v2.7
			c0,1.5,1.2,2.7,2.6,2.7h0v0.5c0,2.9,2.3,5.2,5.2,5.2c2.9,0,5.2-2.3,5.2-5.2v-0.5h0c1.5,0,2.6-1.2,2.6-2.7v-2.7
			c2.1-0.2,3.8-1.9,3.8-4v-28.6c0-2.2-1.8-4.1-4.1-4.1h-2.2v-2.8h1.6c0.9,0,1.6-0.7,1.6-1.6c0-0.9-0.7-1.6-1.6-1.6h-14.1
			c-0.9,0-1.6,0.7-1.6,1.6c0,0.9,0.7,1.6,1.6,1.6h1.6v2.8h-2.2c-2.2,0-4.1,1.8-4.1,4.1v4.1c-2.6,0.4-4.7,2.4-5.1,5
			c-11,2.9-19.2,13-19.2,24.9c0,12.9,9.5,23.6,21.9,25.5v2.3h-6.4c-0.9,0-1.6,0.7-1.6,1.6c0,0.9,0.7,1.6,1.6,1.6h27.9
			c0.9,0,1.6-0.7,1.6-1.6c0-0.9-0.7-1.6-1.6-1.6h-6.4v-4.5c0-1.6-0.5-3.2-1.5-4.5h15.5c0.9,0,1.6-0.7,1.6-1.6
			C428.1,1543.4,427.4,1542.7,426.5,1542.7z"/>
	</g>
	<g transform="matrix(0.999999,0,0,0.999999,530.178,-537.328)">
		<path class="st15" d="M403.3,1550.3c0,0.9,0.7,1.6,1.6,1.6c0.9,0,1.6-0.7,1.6-1.6c0-0.9-0.7-1.6-1.6-1.6
			C404,1548.7,403.3,1549.4,403.3,1550.3z"/>
	</g>
</g>
</svg>
