<?xml version="1.0" encoding="utf-8"?>
<!-- Generator: Adobe Illustrator 23.0.0, SVG Export Plug-In . SVG Version: 6.00 Build 0)  -->
<svg version="1.1" id="Layer_1" xmlns:serif="http://www.serif.com/"
	 xmlns="http://www.w3.org/2000/svg" xmlns:xlink="http://www.w3.org/1999/xlink" x="0px" y="0px" viewBox="0 0 906.3 800"
	 style="enable-background:new 0 0 906.3 800;" xml:space="preserve">
<style type="text/css">
	.st0{fill:#1BC0DC;}
	.st1{fill:#13365D;}
	.st2{fill:#D82B3F;}
	.st3{fill:#96AECD;}
	.st4{fill:#869CB8;}
	.st5{fill:#C08F84;}
	.st6{fill:#D9BCB5;}
	.st7{fill:#AC8077;}
	.st8{fill:#283B66;}
	.st9{fill:#EAF4FC;}
	.st10{fill:#F4F9FD;}
	.st11{fill:#7F8AA4;}
</style>
<g transform="matrix(4.16667,0,0,4.16667,-3507,-3713)">
	<g transform="matrix(1,0,0,1,-125.128,240.658)">
		<path class="st0" d="M1060,663.9c-38.1,0-70.2,25.7-79.8,60.8l23.2,22L980,768.1c9.4,35.3,41.7,61.4,80,61.4
			c45.7,0,82.8-37.1,82.8-82.8C1142.8,701,1105.7,663.9,1060,663.9z"/>
	</g>
	<g transform="matrix(1,0,0,1,-125.128,240.658)">
		<path class="st1" d="M1096.4,660.4c2.6,1.1,5.3,2.3,7.8,3.7c0.2,0.1,0.4,0.1,0.5,0.1c0.4,0,0.8-0.2,1-0.6c0.3-0.6,0.1-1.3-0.5-1.6
			c-2.6-1.4-5.3-2.6-8-3.8c-0.6-0.2-1.3,0-1.5,0.6C1095.6,659.5,1095.8,660.2,1096.4,660.4z"/>
	</g>
	<g transform="matrix(1,0,0,1,-125.128,240.658)">
		<path class="st1" d="M1063,653.3c2.9,0.1,5.8,0.3,8.6,0.6c0,0,0.1,0,0.1,0c0.6,0,1.1-0.4,1.2-1c0.1-0.6-0.4-1.2-1-1.3
			c-2.9-0.3-5.9-0.5-8.8-0.6c-0.6,0-1.2,0.5-1.2,1.1C1061.8,652.8,1062.3,653.3,1063,653.3z"/>
	</g>
	<g transform="matrix(1,0,0,1,-125.128,240.658)">
		<path class="st1" d="M1111.6,668.5c2.4,1.6,4.7,3.3,7,5c0.2,0.2,0.5,0.3,0.7,0.3c0.3,0,0.7-0.1,0.9-0.4c0.4-0.5,0.3-1.2-0.2-1.6
			c-2.3-1.8-4.7-3.6-7.1-5.2c-0.5-0.4-1.3-0.2-1.6,0.3C1110.9,667.4,1111.1,668.1,1111.6,668.5z"/>
	</g>
	<g transform="matrix(1,0,0,1,-125.128,240.658)">
		<path class="st1" d="M1080,655.3c2.8,0.6,5.6,1.3,8.3,2.2c0.1,0,0.2,0.1,0.3,0.1c0.5,0,1-0.3,1.1-0.8c0.2-0.6-0.2-1.3-0.8-1.5
			c-2.8-0.9-5.7-1.6-8.5-2.2c-0.6-0.1-1.2,0.3-1.4,0.9C1079,654.6,1079.4,655.2,1080,655.3z"/>
	</g>
	<g transform="matrix(1,0,0,1,-125.128,240.658)">
		<path class="st1" d="M1141,699.4c0.2,0.4,0.6,0.6,1,0.6c0.2,0,0.4-0.1,0.6-0.2c0.6-0.3,0.7-1,0.4-1.6c-1.5-2.5-3.1-5-4.8-7.4
			c-0.4-0.5-1.1-0.6-1.6-0.3c-0.5,0.4-0.6,1.1-0.3,1.6C1138,694.5,1139.6,697,1141,699.4z"/>
	</g>
	<g transform="matrix(1,0,0,1,-125.128,240.658)">
		<path class="st1" d="M1131,685.4c0.2,0.3,0.6,0.4,0.9,0.4c0.3,0,0.5-0.1,0.8-0.3c0.5-0.4,0.5-1.2,0.1-1.6c-1.9-2.2-4-4.4-6.1-6.4
			c-0.5-0.4-1.2-0.4-1.6,0c-0.4,0.5-0.4,1.2,0,1.6C1127.1,681.2,1129.1,683.3,1131,685.4z"/>
	</g>
	<g transform="matrix(1,0,0,1,-125.128,240.658)">
		<path class="st1" d="M1152.5,731.7c0.1,0.6,0.6,1,1.1,1c0.1,0,0.1,0,0.2,0c0.6-0.1,1.1-0.7,1-1.3c-0.5-2.9-1.1-5.8-1.8-8.6
			c-0.2-0.6-0.8-1-1.4-0.8c-0.6,0.2-1,0.8-0.8,1.4C1151.5,726,1152.1,728.8,1152.5,731.7z"/>
	</g>
	<g transform="matrix(1,0,0,1,-125.128,240.658)">
		<path class="st1" d="M1148.3,715c0.2,0.5,0.6,0.8,1.1,0.8c0.1,0,0.3,0,0.4-0.1c0.6-0.2,0.9-0.9,0.7-1.5c-1-2.8-2.1-5.5-3.4-8.2
			c-0.3-0.6-1-0.8-1.5-0.6c-0.6,0.3-0.8,1-0.6,1.5C1146.2,709.6,1147.3,712.3,1148.3,715z"/>
	</g>
	<g transform="matrix(1,0,0,1,-125.128,240.658)">
		<path class="st1" d="M1045.6,654.5c0.1,0,0.1,0,0.2,0c2.8-0.5,5.7-0.8,8.5-1c0.6,0,1.1-0.6,1.1-1.2c0-0.6-0.6-1.1-1.2-1.1
			c-2.9,0.2-5.9,0.5-8.8,1c-0.6,0.1-1.1,0.7-1,1.3C1044.6,654.1,1045.1,654.5,1045.6,654.5z"/>
	</g>
	<g transform="matrix(1,0,0,1,-125.128,240.658)">
		<path class="st1" d="M998.9,676.4c0.3,0,0.5-0.1,0.8-0.3c2.2-1.9,4.4-3.7,6.7-5.3c0.5-0.4,0.6-1.1,0.3-1.6
			c-0.4-0.5-1.1-0.6-1.6-0.3c-2.4,1.7-4.7,3.6-6.9,5.5c-0.5,0.4-0.5,1.2-0.1,1.6C998.2,676.3,998.6,676.4,998.9,676.4z"/>
	</g>
	<g transform="matrix(1,0,0,1,-125.128,240.658)">
		<path class="st1" d="M970.4,719.6c0.1,0,0.2,0.1,0.3,0.1c0.5,0,1-0.3,1.1-0.8c0.8-2.7,1.8-5.5,2.9-8.1c0.2-0.6,0-1.3-0.6-1.5
			c-0.6-0.2-1.3,0-1.5,0.6c-1.1,2.7-2.1,5.5-3,8.3C969.4,718.8,969.7,719.4,970.4,719.6z"/>
	</g>
	<g transform="matrix(1,0,0,1,-125.128,240.658)">
		<path class="st1" d="M986.1,688.8c0.2,0.2,0.5,0.3,0.7,0.3c0.3,0,0.7-0.2,0.9-0.4c1.8-2.2,3.7-4.4,5.7-6.5c0.4-0.5,0.4-1.2,0-1.6
			c-0.5-0.4-1.2-0.4-1.6,0c-2,2.1-4,4.4-5.8,6.7C985.6,687.6,985.6,688.4,986.1,688.8z"/>
	</g>
	<g transform="matrix(1,0,0,1,-125.128,240.658)">
		<path class="st1" d="M1028.8,658.9c0.1,0,0.3,0,0.4-0.1c2.7-1,5.5-1.8,8.2-2.5c0.6-0.2,1-0.8,0.8-1.4c-0.2-0.6-0.8-1-1.4-0.8
			c-2.8,0.7-5.7,1.6-8.4,2.6c-0.6,0.2-0.9,0.9-0.7,1.5C1027.8,658.6,1028.3,658.9,1028.8,658.9z"/>
	</g>
	<g transform="matrix(1,0,0,1,-125.128,240.658)">
		<path class="st1" d="M976.8,703.5c0.2,0.1,0.4,0.1,0.5,0.1c0.4,0,0.8-0.2,1-0.6c1.3-2.5,2.8-5,4.4-7.4c0.4-0.5,0.2-1.3-0.3-1.6
			c-0.5-0.4-1.3-0.2-1.6,0.3c-1.6,2.5-3.1,5-4.5,7.6C976,702.5,976.2,703.2,976.8,703.5z"/>
	</g>
	<g transform="matrix(1,0,0,1,-125.128,240.658)">
		<path class="st1" d="M1013,666.2c0.2,0,0.4-0.1,0.6-0.2c2.5-1.4,5-2.8,7.6-4c0.6-0.3,0.8-1,0.6-1.5c-0.3-0.6-1-0.8-1.5-0.6
			c-2.7,1.2-5.3,2.6-7.8,4.1c-0.6,0.3-0.7,1-0.4,1.6C1012.2,666,1012.6,666.2,1013,666.2z"/>
	</g>
	<g transform="matrix(1,0,0,1,-125.128,240.658)">
		<path class="st2" d="M1154.5,754.5c-1.2-0.1-2.3,0.7-2.4,1.9c-0.5,5-1.5,10-2.8,14.7c-0.1,0.1-0.1,0.3-0.2,0.4
			c-11.2,39.3-47.6,66.7-88.4,66.7c-42.6,0-79.2-28.7-89.3-69.9l21-20.7c0.4-0.4,0.7-1,0.7-1.6c0-0.6-0.2-1.1-0.7-1.6l-21.8-21.5
			c-0.9-0.8-2.2-0.8-3.1,0c-0.8,0.9-0.8,2.2,0,3.1l20.2,19.9l-20.3,20c-0.5,0.5-0.8,1.3-0.6,2c4.8,20.8,16.7,39.7,33.5,53.2
			c8.4,6.7,17.7,12,27.8,15.6c10.2,3.7,20.9,5.5,31.8,5.6c0.2,0.1,0.5,0.1,0.7,0.1c23.9,0,46.8-8.8,64.5-24.8
			c17.6-15.9,28.7-37.6,31.2-61C1156.6,755.7,1155.7,754.6,1154.5,754.5z"/>
	</g>
	<g transform="matrix(1,0,0,1,-125.128,240.658)">
		<path class="st2" d="M1184.3,746.5l-21.8-21.4v20h-6.6c0-1.4-0.1-2.8-0.1-4.2l-0.1-1c-0.1-0.6-0.6-1.1-1.3-1.1
			c-0.6,0.1-1.1,0.6-1.1,1.3l0.1,1c0.1,1.7,0.1,3.4,0.1,5.2v1.2h8.9v20.3L1184.3,746.5z"/>
	</g>
	<g transform="matrix(0.999999,0,0,0.999999,196.842,-148.417)">
		<path class="st3" d="M756.8,1141.3l7.2,7.2l-5.2,5.2l-7.2-7.2L756.8,1141.3z"/>
	</g>
	<g transform="matrix(0.999999,0,0,0.999999,196.842,-148.417)">
		<path class="st3" d="M780.6,1161.5l-14.8-14.8l-8.8,8.8l14.8,14.8c2.4,2.4,6.3,2.4,8.8,0C783,1167.8,783,1163.9,780.6,1161.5z"/>
	</g>
	<g transform="matrix(0.999999,0,0,0.999999,196.842,-148.417)">
		<path class="st4" d="M776.2,1170.5c-1.2,0-2.4-0.4-3.3-1.3l-2.8-2.8c3.5-0.1,6.7-1.7,8.8-4.3l0.5,0.5c1.8,1.8,1.8,4.7,0,6.5
			C778.6,1170,777.4,1170.5,776.2,1170.5z"/>
	</g>
	<g transform="matrix(0.999999,0,0,0.999999,196.842,-148.417)">
		<path class="st5" d="M758.2,1148c-10.9,10.9-28.5,10.9-39.4,0c-10.9-10.9-10.9-28.5,0-39.4s28.5-10.9,39.4,0
			C769.1,1119.4,769.1,1137.1,758.2,1148z"/>
	</g>
	<g transform="matrix(0.999999,0,0,0.999999,196.842,-148.417)">
		<path class="st6" d="M764.6,1124.3c-1.4-3.6-3.5-6.9-6.3-9.8c-5.4-5.4-12.6-8.2-19.7-8.2c-7.1,0-14.3,2.7-19.7,8.2
			c-2.8,2.8-4.9,6.1-6.3,9.6c0.9-5.4,3.4-10.4,7.4-14.4c5-5,11.6-7.7,18.6-7.7c7,0,13.6,2.7,18.6,7.7
			C761.5,1114,763.8,1119.1,764.6,1124.3z"/>
	</g>
	<g transform="matrix(0.999999,0,0,0.999999,196.842,-148.417)">
		<path class="st7" d="M738.6,1154.6c-7,0-13.6-2.7-18.6-7.7c-4-4-6.5-9-7.4-14.4c1.4,3.5,3.4,6.8,6.3,9.6
			c5.4,5.4,12.6,8.1,19.7,8.1c7.1,0,14.3-2.7,19.7-8.1c2.8-2.8,4.8-6,6.2-9.5C762.4,1144.4,752.5,1154.6,738.6,1154.6z"/>
	</g>
	<g transform="matrix(0.999999,0,0,0.999999,196.842,-148.417)">
		<path class="st8" d="M779.5,1169.2c-1.7,1.8-4.8,1.8-6.5,0l-13.7-13.7c0.2-0.2,6.5-6.5,6.5-6.5l13.7,13.7
			C781.3,1164.4,781.3,1167.3,779.5,1169.2z M757.8,1150.5c0.5-0.4,1-0.9,1.5-1.4c0.5-0.5,1-1,1.4-1.6l1,1l-3,3L757.8,1150.5z
			 M738.6,1154.6c-7,0-13.6-2.7-18.6-7.7c-5-5-7.7-11.6-7.7-18.6c0-7,2.7-13.6,7.7-18.6c5-5,11.6-7.7,18.6-7.7
			c7,0,13.6,2.7,18.6,7.7C773.8,1126.3,761.7,1154.6,738.6,1154.6z M781.7,1160.4l-14.8-14.8c-0.6-0.6-1.6-0.6-2.2,0l-0.7,0.7
			l-1.3-1.3c8-11.5,6.8-27.4-3.4-37.6c-5.6-5.5-12.9-8.6-20.8-8.6c-7.9,0-15.3,3.1-20.8,8.6c-5.6,5.6-8.6,12.9-8.6,20.8
			c0,7.9,3.1,15.3,8.6,20.8c5.5,5.5,12.9,8.6,20.8,8.6c6.1,0,11.9-1.8,16.8-5.3l1.3,1.3l-0.7,0.7c-0.6,0.6-0.6,1.6,0,2.2l14.8,14.8
			c3,3,7.9,3,11,0C784.7,1168.3,784.7,1163.4,781.7,1160.4z"/>
	</g>
	<g transform="matrix(0.999999,0,0,0.999999,196.842,-148.417)">
		<path class="st9" d="M752.4,1142.1c-4.2,4.2-9.8,6.1-15.3,5.6c-3.5-0.3-7-1.5-9.9-3.6c-0.6-0.4-1.2-0.9-1.7-1.4
			c-0.2-0.2-0.5-0.4-0.7-0.6c-0.3-0.3-0.6-0.7-0.9-1c-6.7-7.7-6.4-19.3,0.9-26.6c4.3-4.3,10.1-6.2,15.7-5.6c0.8,0.1,1.5,0.2,2.3,0.4
			c0.7,0.2,1.4,0.3,2.1,0.6c2.8,0.9,5.3,2.5,7.5,4.7c0.4,0.4,0.8,0.8,1.2,1.3C760,1123.4,759.5,1134.8,752.4,1142.1z"/>
	</g>
	<g transform="matrix(0.999999,0,0,0.999999,196.842,-148.417)">
		<path class="st9" d="M741.8,1120.7l-6.5,15L741.8,1120.7z"/>
	</g>
	<g transform="matrix(0.999999,0,0,0.999999,196.842,-148.417)">
		<path class="st8" d="M735.3,1137.3c-0.2,0-0.4,0-0.6-0.1c-0.8-0.3-1.2-1.3-0.8-2l6.5-15c0.3-0.8,1.3-1.2,2-0.8
			c0.8,0.3,1.2,1.3,0.8,2.1l-6.5,15C736.5,1137,735.9,1137.3,735.3,1137.3z"/>
	</g>
	<g transform="matrix(0.999999,0,0,0.999999,196.842,-148.417)">
		<path class="st8" d="M745,1138c-0.5,0-0.9-0.2-1.2-0.6c-0.5-0.7-0.4-1.7,0.2-2.2l3.3-2.7l-3.3-2.7c-0.7-0.5-0.8-1.5-0.2-2.2
			c0.5-0.7,1.5-0.8,2.2-0.2l4.8,3.9c0.4,0.3,0.6,0.7,0.6,1.2c0,0.5-0.2,0.9-0.6,1.2l-4.8,3.9C745.7,1137.8,745.3,1138,745,1138z"/>
	</g>
	<g transform="matrix(0.999999,0,0,0.999999,196.842,-148.417)">
		<path class="st8" d="M732.1,1129.5c-0.3,0-0.7-0.1-1-0.3l-4.8-3.9c-0.4-0.3-0.6-0.7-0.6-1.2c0-0.5,0.2-0.9,0.6-1.2l4.8-3.9
			c0.7-0.5,1.6-0.4,2.2,0.2c0.5,0.7,0.4,1.7-0.2,2.2l-3.3,2.7l3.3,2.7c0.7,0.5,0.8,1.5,0.2,2.2
			C733,1129.3,732.6,1129.5,732.1,1129.5z"/>
	</g>
	<g transform="matrix(0.999999,0,0,0.999999,196.842,-148.417)">
		<path class="st10" d="M725.5,1142.7c-0.2-0.2-0.5-0.4-0.7-0.6c-0.3-0.3-0.6-0.7-0.9-1l6.5-12.6l0.8,0.7c0.3,0.2,0.6,0.3,1,0.3
			c0,0,0.1,0,0.1,0L725.5,1142.7z M733.5,1127.1c-0.1-0.2-0.2-0.3-0.4-0.4l-1.3-1.1l8.7-16.8c0.8,0.1,1.5,0.2,2.3,0.4L733.5,1127.1z
			"/>
	</g>
	<g transform="matrix(0.999999,0,0,0.999999,196.842,-148.417)">
		<path class="st11" d="M732.1,1129.5c-0.3,0-0.7-0.1-1-0.3l-0.8-0.7l1.5-2.8l1.3,1.1c0.2,0.1,0.3,0.3,0.4,0.4l-1.2,2.3
			C732.2,1129.5,732.2,1129.5,732.1,1129.5z"/>
	</g>
	<g transform="matrix(0.999999,0,0,0.999999,196.842,-148.417)">
		<path class="st10" d="M737.1,1147.7c-3.5-0.3-7-1.5-9.9-3.6l17.7-34.3c2.8,0.9,5.3,2.5,7.5,4.7c0.4,0.4,0.8,0.8,1.2,1.3l-6.5,12.5
			l-1.1-0.9c-0.3-0.2-0.6-0.3-1-0.3c-0.5,0-0.9,0.2-1.2,0.6c-0.5,0.7-0.4,1.7,0.2,2.2l1.6,1.3L737.1,1147.7z M741.8,1119.2
			c-0.6,0-1.2,0.4-1.4,0.9l-6.5,15c-0.3,0.8,0,1.7,0.8,2c0.2,0.1,0.4,0.1,0.6,0.1c0.6,0,1.2-0.4,1.4-0.9l6.5-15
			c0.3-0.8,0-1.7-0.8-2.1C742.2,1119.2,742,1119.2,741.8,1119.2z"/>
	</g>
	<g transform="matrix(0.999999,0,0,0.999999,196.842,-148.417)">
		<path class="st11" d="M735.3,1137.3c-0.2,0-0.4,0-0.6-0.1c-0.8-0.3-1.2-1.3-0.8-2l6.5-15c0.3-0.6,0.8-0.9,1.4-0.9
			c0.2,0,0.4,0,0.6,0.1c0.8,0.3,1.2,1.3,0.8,2.1l-6.5,15C736.5,1137,735.9,1137.3,735.3,1137.3z"/>
	</g>
	<g transform="matrix(0.999999,0,0,0.999999,196.842,-148.417)">
		<path class="st11" d="M745.6,1131.1l-1.6-1.3c-0.7-0.5-0.8-1.5-0.2-2.2c0.3-0.4,0.8-0.6,1.2-0.6c0.3,0,0.7,0.1,1,0.3l1.1,0.9
			L745.6,1131.1z"/>
	</g>
	<g transform="matrix(0.999999,0,0,0.999999,196.842,-148.417)">
		<path class="st8" d="M751.3,1141c-3.4,3.4-7.9,5.3-12.7,5.3c-4.8,0-9.3-1.9-12.7-5.3c-3.4-3.4-5.3-7.9-5.3-12.7
			c0-4.8,1.9-9.3,5.3-12.7c3.4-3.4,7.9-5.3,12.7-5.3c4.8,0,9.3,1.9,12.7,5.3C758.3,1122.5,758.3,1133.9,751.3,1141z M753.5,1113.4
			c-4-4-9.3-6.2-14.9-6.2c-5.6,0-10.9,2.2-14.9,6.2c-4,4-6.2,9.3-6.2,14.9c0,5.6,2.2,10.9,6.2,14.9c4,4,9.3,6.2,14.9,6.2
			c5.6,0,10.9-2.2,14.9-6.2C761.7,1134.9,761.7,1121.6,753.5,1113.4z"/>
	</g>
</g>
</svg>
