<?xml version="1.0" encoding="utf-8"?>
<!-- Generator: Adobe Illustrator 23.0.0, SVG Export Plug-In . SVG Version: 6.00 Build 0)  -->
<svg version="1.1" id="Layer_1" xmlns:serif="http://www.serif.com/"
	 xmlns="http://www.w3.org/2000/svg" xmlns:xlink="http://www.w3.org/1999/xlink" x="0px" y="0px" viewBox="0 0 793.8 800"
	 style="enable-background:new 0 0 793.8 800;" xml:space="preserve">
<style type="text/css">
	.st0{fill:#1BC0DC;}
	.st1{fill:#D82B3F;}
	.st2{fill:#13365D;}
	.st3{fill:#EA9D3B;}
	.st4{fill:#FFFFFF;}
	.st5{fill:#F3C489;}
	.st6{fill:#E5E5E5;}
	.st7{fill:#D28E35;}
	.st8{fill:#D9B07C;}
	.st9{fill:#E27679;}
	.st10{fill:#EFADAF;}
	.st11{fill:#CE6A6E;}
	.st12{fill:#D78DA2;}
	.st13{fill:#E7BAC6;}
	.st14{fill:#C28091;}
	.st15{fill:#EAF4FC;}
	.st16{fill:#283B66;}
</style>
<g transform="matrix(4.16667,0,0,4.16667,-12960,-1301)">
	<g transform="matrix(1,0,0,1,24.2135,-336.005)">
		<path class="st0" d="M3180.9,662.3c-38.9,0-71.6,26.9-80.5,63l20.9,19.8l-21,19.3c8.7,36.5,41.5,63.6,80.6,63.6
			c45.8,0,82.9-37.1,82.9-82.9C3263.8,699.4,3226.7,662.3,3180.9,662.3z"/>
	</g>
	<g transform="matrix(1,0,0,1,24.2135,-336.005)">
		<path class="st1" d="M3274.3,747.1c1.2,0,2.2-1,2.2-2.2c0-17-4.4-33.4-12.7-47.8c0-0.1-0.1-0.3-0.2-0.4
			c-8.3-14.4-20.3-26.5-34.6-35c-14.8-8.7-31.7-13.3-48.9-13.3c-11.2,0-22.1,1.9-32.5,5.6c-10.1,3.6-19.4,8.8-27.8,15.6
			c-16.8,13.4-28.7,32.3-33.6,53.1c-0.2,0.7,0.1,1.5,0.6,2.1l20.2,19.9l-20.3,20c-0.9,0.8-0.9,2.2,0,3.1c0.4,0.4,1,0.7,1.6,0.7
			c0.6,0,1.1-0.2,1.5-0.6l21.9-21.5c0.4-0.4,0.7-1,0.7-1.6c0-0.6-0.2-1.1-0.7-1.6l-20.9-20.6c10.2-40.9,46.4-69.4,88.6-69.7
			c0.2,0.1,0.4,0.1,0.7,0.1c50.7,0,92,41.3,92,92C3272.2,746.1,3273.1,747.1,3274.3,747.1z"/>
	</g>
	<g transform="matrix(1,0,0,1,24.2135,-336.005)">
		<path class="st2" d="M3146.4,830.8c-2.6-1.1-5.3-2.3-7.8-3.6c-0.6-0.3-1.3-0.1-1.6,0.5c-0.3,0.6-0.1,1.3,0.5,1.6
			c2.6,1.4,5.3,2.6,8,3.7c0.1,0.1,0.3,0.1,0.4,0.1c0.5,0,0.9-0.3,1.1-0.7C3147.3,831.8,3147,831.1,3146.4,830.8z"/>
	</g>
	<g transform="matrix(1,0,0,1,24.2135,-336.005)">
		<path class="st2" d="M3162.9,835.9c-2.8-0.6-5.6-1.3-8.3-2.1c-0.6-0.2-1.3,0.2-1.5,0.8c-0.2,0.6,0.2,1.3,0.8,1.5
			c2.8,0.9,5.7,1.6,8.6,2.2c0.1,0,0.2,0,0.2,0c0.5,0,1-0.4,1.1-0.9C3163.9,836.6,3163.5,836,3162.9,835.9z"/>
	</g>
	<g transform="matrix(1,0,0,1,24.2135,-336.005)">
		<path class="st2" d="M3180,837.8c-2.9-0.1-5.8-0.2-8.6-0.6c-0.6-0.1-1.2,0.4-1.3,1c-0.1,0.6,0.4,1.2,1,1.3
			c2.9,0.3,5.9,0.5,8.8,0.6h0c0.6,0,1.1-0.5,1.2-1.1C3181.1,838.3,3180.6,837.8,3180,837.8z"/>
	</g>
	<g transform="matrix(1,0,0,1,24.2135,-336.005)">
		<path class="st2" d="M3131.2,822.8c-2.4-1.6-4.7-3.2-7-5c-0.5-0.4-1.2-0.3-1.6,0.2s-0.3,1.2,0.2,1.6c2.3,1.8,4.7,3.6,7.2,5.1
			c0.2,0.1,0.4,0.2,0.6,0.2c0.4,0,0.8-0.2,1-0.5C3131.9,823.9,3131.7,823.2,3131.2,822.8z"/>
	</g>
	<g transform="matrix(1,0,0,1,24.2135,-336.005)">
		<path class="st2" d="M3094.3,776.4c-0.2-0.6-0.9-0.9-1.5-0.7s-0.9,0.9-0.7,1.5c1,2.8,2.1,5.5,3.4,8.1c0.2,0.4,0.6,0.7,1.1,0.7
			c0.2,0,0.3,0,0.5-0.1c0.6-0.3,0.8-1,0.6-1.5C3096.4,781.8,3095.3,779.1,3094.3,776.4z"/>
	</g>
	<g transform="matrix(1,0,0,1,24.2135,-336.005)">
		<path class="st2" d="M3111.7,805.9c-0.4-0.5-1.2-0.5-1.6-0.1c-0.5,0.4-0.5,1.2-0.1,1.6c1.9,2.2,4,4.4,6.1,6.4
			c0.2,0.2,0.5,0.3,0.8,0.3c0.3,0,0.6-0.1,0.8-0.4c0.4-0.5,0.4-1.2,0-1.6C3115.6,810.2,3113.6,808.1,3111.7,805.9z"/>
	</g>
	<g transform="matrix(1,0,0,1,24.2135,-336.005)">
		<path class="st2" d="M3101.7,792c-0.3-0.6-1-0.7-1.6-0.4c-0.6,0.3-0.7,1-0.4,1.6c1.5,2.5,3.1,5,4.8,7.4c0.2,0.3,0.6,0.5,0.9,0.5
			c0.2,0,0.5-0.1,0.7-0.2c0.5-0.4,0.6-1.1,0.3-1.6C3104.7,796.9,3103.1,794.4,3101.7,792z"/>
	</g>
	<g transform="matrix(1,0,0,1,24.2135,-336.005)">
		<path class="st2" d="M3256.7,802c-0.5-0.4-1.2-0.3-1.6,0.2c-1.8,2.2-3.7,4.4-5.6,6.5c-0.4,0.5-0.4,1.2,0,1.6
			c0.2,0.2,0.5,0.3,0.8,0.3c0.3,0,0.6-0.1,0.8-0.4c2-2.1,4-4.4,5.8-6.7C3257.3,803.2,3257.2,802.4,3256.7,802z"/>
	</g>
	<g transform="matrix(1,0,0,1,24.2135,-336.005)">
		<path class="st2" d="M3272.4,771.1c-0.6-0.2-1.3,0.2-1.4,0.8c-0.8,2.7-1.8,5.5-2.9,8.1c-0.2,0.6,0,1.3,0.6,1.5
			c0.1,0.1,0.3,0.1,0.4,0.1c0.5,0,0.9-0.3,1.1-0.7c1.1-2.7,2.1-5.5,2.9-8.3C3273.4,771.9,3273,771.3,3272.4,771.1z"/>
	</g>
	<g transform="matrix(1,0,0,1,24.2135,-336.005)">
		<path class="st2" d="M3266,787.3c-0.6-0.3-1.3-0.1-1.6,0.5c-0.4,0.8-0.9,1.6-1.3,2.4l-1,1.7c-0.7,1.1-1.3,2.2-2,3.3
			c-0.3,0.5-0.2,1.3,0.3,1.6c0.2,0.1,0.4,0.2,0.6,0.2c0.4,0,0.8-0.2,1-0.5c0.7-1.1,1.4-2.2,2.1-3.4l1.1-1.7l0,0
			c0.5-0.8,0.9-1.7,1.3-2.5C3266.8,788.3,3266.6,787.6,3266,787.3z"/>
	</g>
	<g transform="matrix(1,0,0,1,24.2135,-336.005)">
		<path class="st2" d="M3197.1,836.6c-2.8,0.5-5.7,0.8-8.6,1c-0.6,0-1.1,0.6-1.1,1.2c0,0.6,0.6,1.1,1.2,1.1c0,0,0.1,0,0.1,0
			c2.9-0.2,5.9-0.6,8.8-1c0.6-0.1,1.1-0.7,1-1.3C3198.4,836.9,3197.8,836.5,3197.1,836.6z"/>
	</g>
	<g transform="matrix(1,0,0,1,24.2135,-336.005)">
		<path class="st2" d="M3275.7,754c-0.6-0.1-1.2,0.4-1.3,1c-0.3,2.8-0.8,5.7-1.3,8.5c-0.1,0.6,0.3,1.2,0.9,1.4c0.1,0,0.2,0,0.2,0
			c0.5,0,1-0.4,1.1-0.9c0.6-2.9,1-5.8,1.4-8.7C3276.8,754.6,3276.3,754.1,3275.7,754z"/>
	</g>
	<g transform="matrix(1,0,0,1,24.2135,-336.005)">
		<path class="st2" d="M3213.8,832.2c-2.7,1-5.4,1.8-8.2,2.6c-0.6,0.2-1,0.8-0.8,1.4c0.1,0.5,0.6,0.9,1.1,0.9c0.1,0,0.2,0,0.3,0
			c2.8-0.7,5.7-1.6,8.4-2.6c0.6-0.2,0.9-0.9,0.7-1.5C3215,832.3,3214.4,832,3213.8,832.2z"/>
	</g>
	<g transform="matrix(1,0,0,1,24.2135,-336.005)">
		<path class="st2" d="M3243.2,814.7c-2.1,1.9-4.4,3.7-6.7,5.4c-0.5,0.4-0.6,1.1-0.3,1.6c0.2,0.3,0.6,0.5,0.9,0.5
			c0.2,0,0.5-0.1,0.7-0.2c2.4-1.7,4.7-3.6,6.9-5.5c0.5-0.4,0.5-1.2,0.1-1.6C3244.4,814.3,3243.7,814.3,3243.2,814.7z"/>
	</g>
	<g transform="matrix(1,0,0,1,24.2135,-336.005)">
		<path class="st2" d="M3229.3,824.8c-2.5,1.5-5,2.8-7.6,4c-0.6,0.3-0.8,1-0.6,1.6c0.2,0.4,0.6,0.7,1.1,0.7c0.2,0,0.3,0,0.5-0.1
			c2.6-1.3,5.3-2.7,7.8-4.1c0.6-0.3,0.7-1,0.4-1.6C3230.6,824.7,3229.9,824.5,3229.3,824.8z"/>
	</g>
	<g transform="matrix(0.999999,0,0,0.999999,3174.31,-741.59)">
		<path class="st3" d="M37.7,1163.1l21.7-6.2c2-0.6,4.1,0.7,4.6,2.8c0.3,1.7-0.5,3.4-2.1,4.1l-33,16.9c-4.1,2.1-9,1.7-12.7-1l-6.9-5
			c-1.3-0.9-2.8-1.4-4.4-1.4H0.7v-19.7h10.5c4.2,0,8.2,2,10.8,5.3h11.3c2.4,0,4.4,2,4.4,4.4c0,2.4-2,4.4-4.4,4.4H22.4L37.7,1163.1z"
			/>
	</g>
	<g transform="matrix(0.999999,0,0,0.999999,3174.31,-741.59)">
		<path class="st4" d="M37.7,1163.1c-0.1-2.4-2-4.3-4.4-4.3H21.9c-2.6-3.3-6.6-5.3-10.8-5.3H0.7v0h10.4c4.2,0,8.2,1.9,10.8,5.3h11.3
			C35.6,1158.8,37.6,1160.7,37.7,1163.1L37.7,1163.1 M63.7,1158.8c-0.4-0.8-1.1-1.5-1.9-1.8C62.6,1157.3,63.3,1157.9,63.7,1158.8z"
			/>
	</g>
	<g transform="matrix(0.999999,0,0,0.999999,3174.31,-741.59)">
		<path class="st5" d="M37.7,1166.5c0-0.6-0.1-1.1-0.3-1.6v0c-0.2-0.5-0.6-1-1-1.5c-0.8-0.8-1.9-1.2-3.1-1.2H21.9
			c-2.6-3.3-6.6-5.3-10.8-5.3H0.7v-3.3v-0.2h10.5c4.2,0,8.2,2,10.8,5.3h11.3c2.4,0,4.4,1.9,4.4,4.3h0v0l21.7-6.2
			c0.3-0.1,0.7-0.1,1-0.1c0.5,0,0.9,0.1,1.3,0.3c0.8,0.3,1.5,1,1.9,1.8c0,0,0,0.1,0,0.1c-0.1-0.3-0.3-0.5-0.4-0.7
			c-0.3,0.9-1,1.7-1.9,2.1l-0.1,0c-0.3-0.1-0.6-0.1-0.9-0.1c-0.3,0-0.7,0-1,0.1L37.7,1166.5z"/>
	</g>
	<g transform="matrix(0.999999,0,0,0.999999,3174.31,-741.59)">
		<path class="st6" d="M23.3,1182c-2.5,0-5-0.8-7.2-2.3l-6.9-5c-1.3-0.9-2.8-1.4-4.4-1.4H0.7v0h4.1c1.6,0,3.1,0.5,4.4,1.4l6.9,5
			C18.3,1181.2,20.8,1182,23.3,1182c1.9,0,3.8-0.4,5.6-1.4l33-16.9c1.6-0.7,2.5-2.4,2.1-4.1c-0.1-0.2-0.1-0.5-0.2-0.7
			c0.1,0.2,0.2,0.5,0.2,0.7c0,0.2,0.1,0.5,0.1,0.7c0,1.4-0.8,2.7-2.2,3.3l-33,16.9C27.1,1181.5,25.2,1182,23.3,1182z"/>
	</g>
	<g transform="matrix(0.999999,0,0,0.999999,3174.31,-741.59)">
		<path class="st7" d="M23.3,1182c-2.5,0-5-0.8-7.2-2.3l-6.9-5c-1.3-0.9-2.8-1.4-4.4-1.4H0.7v-3.4h3.6c1.6,0,3.1,0.5,4.4,1.4l6.9,5
			c2.1,1.5,4.6,2.3,7.2,2.3c1.9,0,3.8-0.4,5.6-1.4l32.9-16.9c1,0.3,1.8,0.9,2.3,1.8c0.3-0.5,0.5-1.1,0.5-1.7c0-0.2,0-0.5-0.1-0.7
			c-0.1-0.3-0.1-0.5-0.2-0.7c0,0,0,0,0,0c0.1,0.2,0.2,0.4,0.2,0.7c0.3,1.7-0.5,3.4-2.1,4.1l-33,16.9
			C27.1,1181.5,25.2,1182,23.3,1182z"/>
	</g>
	<g transform="matrix(0.999999,0,0,0.999999,3174.31,-741.59)">
		<path class="st8" d="M63.6,1162.1c-0.5-0.9-1.3-1.5-2.3-1.8l0.1,0c0.9-0.4,1.6-1.2,1.9-2.1c0.2,0.2,0.3,0.4,0.4,0.7
			c0.1,0.2,0.2,0.5,0.2,0.7c0,0.2,0.1,0.5,0.1,0.7C64.1,1160.9,63.9,1161.5,63.6,1162.1z"/>
	</g>
	<g transform="matrix(0.999999,0,0,0.999999,3174.31,-741.59)">
		<path class="st9" d="M0.7,1153.7v21c0,1.7-1.4,3.1-3.1,3.1h-5.3v-27.2h5.3C-0.7,1150.6,0.7,1152,0.7,1153.7z"/>
	</g>
	<g transform="matrix(0.999999,0,0,0.999999,3174.31,-741.59)">
		<path class="st4" d="M0.7,1153.7c0-0.4-0.1-0.8-0.2-1.2c0.1,0.3,0.2,0.7,0.2,1.1V1153.7z"/>
	</g>
	<g transform="matrix(0.999999,0,0,0.999999,3174.31,-741.59)">
		<path class="st5" d="M0.7,1157.4c0,0,0-0.1,0-0.1v-3.6v-0.1c0,0,0,0.1,0,0.1V1157.4z"/>
	</g>
	<g transform="matrix(0.999999,0,0,0.999999,3174.31,-741.59)">
		<rect x="-7.7" y="1150.6" class="st4" width="0" height="3.7"/>
	</g>
	<g transform="matrix(0.999999,0,0,0.999999,3174.31,-741.59)">
		<path class="st10" d="M0.7,1157.3c-0.1-1.7-1.4-3-3.1-3h-5.3v-3.7h5.3c1.3,0,2.4,0.8,2.9,1.9c0.2,0.4,0.2,0.8,0.2,1.2V1157.3z"/>
	</g>
	<g transform="matrix(0.999999,0,0,0.999999,3174.31,-741.59)">
		<path class="st6" d="M-2.4,1177.8h-5.3v-3.7h0v3.7H-2.4z M-0.6,1177.2c0.8-0.6,1.3-1.5,1.3-2.5v-1.5h0v1.5
			C0.7,1175.7,0.2,1176.7-0.6,1177.2z"/>
	</g>
	<g transform="matrix(0.999999,0,0,0.999999,3174.31,-741.59)">
		<path class="st7" d="M0.7,1173.2L0.7,1173.2l0-2.1c0,0,0-0.1,0-0.1V1173.2z"/>
	</g>
	<g transform="matrix(0.999999,0,0,0.999999,3174.31,-741.59)">
		<path class="st11" d="M-2.4,1177.8h-5.3v-3.7h5.3c1.7,0,3.1-1.3,3.1-3v3.6c0,1.1-0.5,2-1.3,2.5C-1.1,1177.6-1.7,1177.8-2.4,1177.8
			z"/>
	</g>
	<g transform="matrix(0.999999,0,0,0.999999,3174.31,-741.59)">
		<path class="st12" d="M60.5,1129.5v4.2c0,0.5-0.3,0.9-0.8,1l-2.4,0.6c-0.4,0.1-0.7,0.4-0.7,0.7c-0.4,1.5-1,3-1.8,4.3
			c-0.2,0.3-0.2,0.7,0,1l1.3,2.1c0.2,0.4,0.2,0.9-0.1,1.3l-3,3c-0.3,0.3-0.9,0.4-1.3,0.1l-2.1-1.3c-0.3-0.2-0.7-0.2-1,0
			c-1.3,0.8-2.8,1.4-4.3,1.8c-0.4,0.1-0.7,0.4-0.7,0.7l-0.6,2.4c-0.1,0.5-0.5,0.8-1,0.8h-4.2c-0.5,0-0.9-0.3-1-0.8l-0.6-2.4
			c-0.1-0.4-0.4-0.7-0.7-0.7c-1.5-0.4-3-1-4.3-1.8c-0.3-0.2-0.7-0.2-1,0l-2.1,1.3c-0.4,0.2-0.9,0.2-1.3-0.1l-3-3
			c-0.3-0.3-0.4-0.9-0.1-1.3l1.3-2.1c0.2-0.3,0.2-0.7,0-1c-0.8-1.3-1.4-2.8-1.8-4.3c-0.1-0.4-0.4-0.7-0.7-0.7l-2.4-0.6
			c-0.5-0.1-0.8-0.5-0.8-1v-4.2c0-0.5,0.3-0.9,0.8-1l2.4-0.6c0.4-0.1,0.7-0.4,0.7-0.7c0.4-1.5,1-3,1.8-4.3c0.2-0.3,0.2-0.7,0-1
			l-1.3-2.1c-0.2-0.4-0.2-0.9,0.1-1.3l3-3c0.3-0.3,0.9-0.4,1.3-0.1l2.1,1.3c0.3,0.2,0.7,0.2,1,0c1.3-0.8,2.8-1.4,4.3-1.8
			c0.4-0.1,0.7-0.4,0.7-0.7l0.6-2.4c0.1-0.5,0.5-0.8,1-0.8h4.2c0.5,0,0.9,0.3,1,0.8l0.6,2.4c0.1,0.4,0.4,0.7,0.7,0.7
			c1.5,0.4,3,1,4.3,1.8c0.3,0.2,0.7,0.2,1,0l2.1-1.3c0.4-0.2,0.9-0.2,1.3,0.1l3,3c0.3,0.3,0.4,0.9,0.1,1.3l-1.3,2.1
			c-0.2,0.3-0.2,0.7,0,1c0.8,1.3,1.4,2.8,1.8,4.3c0.1,0.4,0.4,0.7,0.7,0.7l2.4,0.6C60.2,1128.6,60.5,1129,60.5,1129.5z"/>
	</g>
	<g transform="matrix(0.999999,0,0,0.999999,3174.31,-741.59)">
		<path class="st4" d="M54.7,1122.2L54.7,1122.2c0,0,0-0.1,0-0.1C54.7,1122.1,54.7,1122.2,54.7,1122.2z M25,1122.2
			C25,1122.2,25,1122.2,25,1122.2C25,1122.2,25,1122.2,25,1122.2L25,1122.2z M24.9,1122c0-0.1-0.1-0.1-0.1-0.2l-1.1-1.8l1.1,1.8
			C24.9,1121.8,24.9,1121.9,24.9,1122z M54.7,1121.9c0,0,0-0.1,0.1-0.1l1.3-2.1c0.2-0.3,0.2-0.6,0.1-0.8c0.1,0.3,0.1,0.6-0.1,0.8
			L54.7,1121.9C54.8,1121.8,54.7,1121.9,54.7,1121.9z M56.2,1118.8C56.2,1118.8,56.2,1118.8,56.2,1118.8
			C56.2,1118.8,56.2,1118.8,56.2,1118.8z M23.5,1118.7c0-0.1,0.1-0.2,0.2-0.3l3-3c0.1-0.1,0.2-0.2,0.4-0.2c-0.1,0-0.3,0.1-0.4,0.2
			l-3,3C23.6,1118.5,23.5,1118.6,23.5,1118.7z M54.5,1117l-1.5-1.5c-0.1-0.1-0.2-0.2-0.3-0.2c0.1,0,0.2,0.1,0.3,0.2L54.5,1117z
			 M49.3,1116.7c0.1,0,0.2-0.1,0.3-0.1l1.5-0.9l-1.5,0.9C49.5,1116.7,49.4,1116.7,49.3,1116.7z M30.3,1116.7c-0.1,0-0.2-0.1-0.3-0.1
			l-2.1-1.3c-0.1,0-0.1-0.1-0.2-0.1c0.1,0,0.1,0.1,0.2,0.1l2.1,1.3C30.1,1116.7,30.2,1116.7,30.3,1116.7z M48.8,1116.7
			c-0.1,0-0.2-0.1-0.3-0.1c-0.7-0.4-1.3-0.7-2.1-1c0.7,0.3,1.4,0.6,2.1,1C48.6,1116.6,48.7,1116.7,48.8,1116.7z M30.9,1116.7
			c0.1,0,0.1-0.1,0.2-0.1c0.4-0.2,0.8-0.5,1.3-0.7c-0.4,0.2-0.9,0.4-1.3,0.7C31,1116.6,31,1116.7,30.9,1116.7z M34.5,1115.1
			c0.3-0.1,0.6-0.2,0.9-0.3c0.4-0.1,0.7-0.4,0.7-0.7l0.2-0.9l-0.2,0.9c-0.1,0.4-0.4,0.7-0.7,0.7C35.1,1114.9,34.8,1115,34.5,1115.1z
			 M44.8,1115c-0.2-0.1-0.4-0.1-0.5-0.1c-0.4-0.1-0.7-0.4-0.7-0.7l-0.6-2.4c-0.1-0.3-0.3-0.6-0.6-0.7c0.3,0.1,0.6,0.4,0.6,0.7
			l0.6,2.4c0.1,0.4,0.4,0.7,0.7,0.7C44.4,1114.9,44.6,1114.9,44.8,1115z"/>
	</g>
	<g transform="matrix(0.999999,0,0,0.999999,3174.31,-741.59)">
		<path class="st13" d="M25,1122.2C25,1122.2,25,1122.2,25,1122.2c0-0.1,0-0.2-0.1-0.2c0-0.1-0.1-0.1-0.1-0.2l-1.1-1.8l-0.2-0.4
			c-0.2-0.3-0.2-0.7-0.1-1c0-0.1,0.1-0.2,0.2-0.3l3-3c0.1-0.1,0.3-0.2,0.4-0.2c0.1,0,0.2-0.1,0.3-0.1c0.1,0,0.2,0,0.4,0.1
			c0.1,0,0.1,0.1,0.2,0.1l2.1,1.3c0.1,0.1,0.2,0.1,0.3,0.1c0.1,0,0.2,0,0.2,0c0.1,0,0.2,0,0.3-0.1c0.1,0,0.1-0.1,0.2-0.1
			c0.4-0.2,0.8-0.5,1.3-0.7c0.7-0.3,1.4-0.6,2.2-0.9c0.3-0.1,0.6-0.2,0.9-0.3c0.4-0.1,0.7-0.4,0.7-0.7l0.2-0.9l0.4-1.5
			c0.1-0.5,0.5-0.8,1-0.8h4.2c0.1,0,0.2,0,0.4,0.1c0.3,0.1,0.6,0.4,0.6,0.7l0.6,2.4c0.1,0.4,0.4,0.7,0.7,0.7c0.2,0,0.4,0.1,0.5,0.1
			c0.6,0.2,1.2,0.4,1.7,0.6c0.7,0.3,1.4,0.6,2.1,1c0.1,0.1,0.2,0.1,0.3,0.1c0.1,0,0.2,0,0.3,0c0.1,0,0.1,0,0.2,0
			c0.1,0,0.2-0.1,0.3-0.1l1.5-0.9l0.7-0.4c0.2-0.1,0.4-0.2,0.5-0.2c0.1,0,0.3,0,0.4,0.1c0.1,0,0.2,0.1,0.3,0.2l1.5,1.5l1.4,1.4
			c0.1,0.1,0.2,0.3,0.3,0.4c0,0,0,0,0,0h0c0.1,0.3,0.1,0.6-0.1,0.8l-1.3,2.1c0,0,0,0.1-0.1,0.1c0,0.1-0.1,0.1-0.1,0.2
			c0,0,0,0.1,0,0.1l-1.6-1.6c-0.2-0.2-0.5-0.3-0.7-0.3c-0.2,0-0.4,0-0.5,0.1l-2.1,1.3c-0.2,0.1-0.3,0.1-0.5,0.1
			c-0.2,0-0.4-0.1-0.5-0.1c-1.3-0.8-2.8-1.4-4.3-1.8c-0.4-0.1-0.7-0.4-0.7-0.7l-0.6-2.4c-0.1-0.5-0.5-0.8-1-0.8h-4.2
			c-0.5,0-0.9,0.3-1,0.8l-0.6,2.4c-0.1,0.4-0.4,0.7-0.7,0.7c-1.5,0.4-3,1-4.3,1.8c-0.2,0.1-0.4,0.1-0.5,0.1c-0.2,0-0.4,0-0.5-0.1
			l-2.1-1.3c-0.2-0.1-0.4-0.1-0.5-0.1c-0.3,0-0.5,0.1-0.7,0.3L25,1122.2z"/>
	</g>
	<g transform="matrix(0.999999,0,0,0.999999,3174.31,-741.59)">
		<path class="st6" d="M42,1152.3c0.3,0,0.6-0.2,0.8-0.5C42.6,1152.1,42.3,1152.2,42,1152.3z M42.9,1151.5
			C42.9,1151.5,42.9,1151.5,42.9,1151.5C42.9,1151.5,42.9,1151.5,42.9,1151.5z M42.9,1151.5C42.9,1151.5,42.9,1151.5,42.9,1151.5
			l0.6-2.5c0,0,0-0.1,0-0.1c0,0,0,0.1,0,0.1L42.9,1151.5C42.9,1151.5,42.9,1151.5,42.9,1151.5z M27.6,1148c0.1,0,0.2-0.1,0.3-0.1
			l0.6-0.4l-0.6,0.4C27.8,1147.9,27.7,1147.9,27.6,1148z M24.4,1145.4l-0.7-0.7c0,0-0.1-0.1-0.1-0.1c0,0,0.1,0.1,0.1,0.1
			L24.4,1145.4z M56.2,1144.2c0-0.2,0-0.5-0.1-0.7l-1.3-2.1c0-0.1-0.1-0.1-0.1-0.2c0,0.1,0.1,0.1,0.1,0.2l1.3,2.1
			C56.2,1143.7,56.3,1143.9,56.2,1144.2z M23.9,1142.9l0.9-1.5c0.1-0.1,0.1-0.3,0.1-0.4l0,0c0,0.1-0.1,0.3-0.1,0.4L23.9,1142.9z
			 M54.7,1141.1c0,0,0-0.1,0-0.1l0,0C54.7,1141,54.7,1141,54.7,1141.1z"/>
	</g>
	<g transform="matrix(0.999999,0,0,0.999999,3174.31,-741.59)">
		<path class="st14" d="M41.9,1152.3h-4.2c-0.5,0-0.9-0.3-1-0.8l-0.6-2.4c-0.1-0.4-0.4-0.7-0.7-0.7c-1.5-0.4-3-1-4.3-1.8
			c-0.2-0.1-0.3-0.1-0.5-0.1s-0.4,0-0.5,0.1l-1.6,1l-0.6,0.4c-0.1,0.1-0.2,0.1-0.3,0.1c-0.1,0-0.2,0-0.2,0c-0.3,0-0.5-0.1-0.7-0.3
			l-2.3-2.3l-0.7-0.7c0,0-0.1-0.1-0.1-0.1c-0.2-0.3-0.3-0.8-0.1-1.2l0.4-0.6l0.9-1.5c0.1-0.1,0.1-0.3,0.1-0.4l1.6,1.7
			c0.2,0.2,0.5,0.3,0.7,0.3c0.2,0,0.4-0.1,0.5-0.2l2.1-1.3c0.2-0.1,0.3-0.2,0.5-0.2c0.2,0,0.4,0,0.5,0.1c1.3,0.8,2.8,1.4,4.3,1.8
			c0.4,0.1,0.7,0.4,0.7,0.7l0.6,2.4c0.1,0.5,0.5,0.8,1,0.8h4.2c0.5,0,0.9-0.3,1-0.8l0.6-2.4c0.1-0.4,0.4-0.6,0.7-0.7
			c1.5-0.4,3-1,4.3-1.8c0.2-0.1,0.3-0.1,0.5-0.1c0.2,0,0.4,0,0.5,0.2l2.1,1.3c0.2,0.1,0.4,0.2,0.5,0.2c0.3,0,0.5-0.1,0.7-0.3
			l1.6-1.6c0,0,0,0.1,0,0.1c0,0,0,0.1,0,0.1c0,0.1,0,0.1,0.1,0.2l1.3,2.1c0.1,0.2,0.2,0.4,0.1,0.7c0,0.2-0.1,0.4-0.3,0.6l-2.9,2.9
			c-0.2,0.2-0.5,0.3-0.7,0.3c-0.2,0-0.4-0.1-0.5-0.2l-2.1-1.3c-0.2-0.1-0.3-0.1-0.5-0.1c-0.2,0-0.4,0-0.5,0.1
			c-1.3,0.8-2.8,1.4-4.3,1.8c-0.3,0.1-0.6,0.3-0.7,0.7c0,0,0,0.1,0,0.1l-0.6,2.4c0,0,0,0,0,0l0,0c0,0,0,0,0,0c0,0.1-0.1,0.2-0.1,0.3
			c-0.2,0.3-0.4,0.4-0.8,0.5C42,1152.3,41.9,1152.3,41.9,1152.3z"/>
	</g>
	<g transform="matrix(0.999999,0,0,0.999999,3174.31,-741.59)">
		<path class="st15" d="M49,1131.6c0,5.1-4.1,9.2-9.2,9.2s-9.2-4.1-9.2-9.2c0-5.1,4.1-9.2,9.2-9.2S49,1126.5,49,1131.6z"/>
	</g>
	<g transform="matrix(0.999999,0,0,0.999999,3174.31,-741.59)">
		<path class="st16" d="M61.2,1162.3l-33,16.9c-10.4,5.3-15.1-7.6-23.4-7.6H2.3V1155h8.9c3.7,0,7.3,1.7,9.6,4.7
			c0.3,0.4,0.7,0.6,1.2,0.6h11.3c1.5,0,2.8,1.2,2.9,2.7v0.1c0,1.6-1.3,2.9-2.9,2.9H22.4c-0.9,0-1.6,0.7-1.6,1.6
			c0,0.9,0.7,1.6,1.6,1.6h10.8c2.9,0,5.4-2.1,5.9-4.9l20.7-5.9c1.2-0.3,2.4,0.4,2.6,1.6C62.7,1160.9,62.1,1161.8,61.2,1162.3z
			 M-0.9,1174.7c0,0.9-0.7,1.6-1.6,1.6h-3.7v-24.1h3.7c0.9,0,1.6,0.7,1.6,1.6V1174.7z M65.5,1159.3c-0.6-3-3.6-4.8-6.5-3.9
			l-20.1,5.8c-0.9-2.3-3-3.9-5.6-3.9H22.7c-2.9-3.3-7.1-5.3-11.5-5.3H1.9c-0.7-1.7-2.4-2.9-4.3-2.9h-5.3c-0.9,0-1.6,0.7-1.6,1.6
			v27.2c0,0.9,0.7,1.6,1.6,1.6h5.3c2.6,0,4.6-2.1,4.7-4.6h2.5c6.1,0,12.8,13.4,24.8,7.3l32.9-16.9
			C64.7,1164.1,66,1161.7,65.5,1159.3z"/>
	</g>
	<g transform="matrix(0.999999,0,0,0.999999,3174.31,-741.59)">
		<path class="st16" d="M59,1133.2l-2,0.5c-0.9,0.2-1.7,0.9-1.9,1.9c-0.4,1.4-0.9,2.7-1.6,3.9c-0.5,0.8-0.5,1.9,0,2.7l1.1,1.8
			l-2.4,2.4l-1.8-1.1c-0.8-0.5-1.8-0.5-2.7,0c-1.2,0.7-2.5,1.3-3.9,1.6c-0.9,0.2-1.7,1-1.9,1.9l-0.5,2h-3.3l-0.5-2
			c-0.2-0.9-0.9-1.7-1.9-1.9c-1.4-0.4-2.7-0.9-3.9-1.6c-0.8-0.5-1.9-0.5-2.7,0l-1.8,1.1l-2.4-2.4l1.1-1.8c0.5-0.8,0.5-1.8,0-2.7
			c-0.7-1.2-1.3-2.5-1.6-3.9c-0.2-1-1-1.7-1.9-1.9l-2-0.5v-3.3l2-0.5c0.9-0.2,1.7-0.9,1.9-1.9c0.4-1.4,0.9-2.7,1.6-3.9
			c0.5-0.8,0.5-1.8,0-2.7l-1.1-1.8l2.4-2.4l1.8,1.1c0.8,0.5,1.8,0.5,2.7,0c1.2-0.7,2.5-1.3,3.9-1.6c0.9-0.2,1.7-1,1.9-1.9l0.5-2h3.3
			l0.5,2c0.2,0.9,0.9,1.7,1.9,1.9c1.4,0.4,2.7,0.9,3.9,1.6c0.8,0.5,1.9,0.5,2.7,0l1.8-1.1l2.4,2.4l-1.1,1.8c-0.5,0.8-0.5,1.8,0,2.7
			c0.7,1.2,1.3,2.6,1.6,3.9c0.2,0.9,1,1.7,1.9,1.9l2,0.5V1133.2z M60.1,1127l-2.1-0.5c-0.4-1.4-1-2.8-1.7-4.1l1.1-1.9
			c0.6-1,0.5-2.3-0.4-3.2l-3-3c-0.8-0.8-2.2-1-3.2-0.4l-1.9,1.1c-1.3-0.7-2.7-1.3-4.1-1.7l-0.5-2.1c-0.3-1.2-1.3-2-2.5-2h-4.2
			c-1.2,0-2.2,0.8-2.5,2l-0.5,2.1c-1.5,0.4-2.8,1-4.1,1.7l-1.9-1.1c-1-0.6-2.3-0.5-3.2,0.4l-3,3c-0.9,0.9-1,2.2-0.4,3.2l1.1,1.9
			c-0.7,1.3-1.3,2.7-1.7,4.1l-2.1,0.5c-1.2,0.3-2,1.3-2,2.5v4.2c0,1.2,0.8,2.2,2,2.5l2.1,0.5c0.4,1.4,1,2.8,1.7,4.1l-1.1,1.9
			c-0.6,1-0.5,2.3,0.4,3.2l3,3c0.8,0.8,2.2,1,3.2,0.4l1.9-1.1c1.3,0.7,2.7,1.3,4.1,1.7l0.5,2.1c0.3,1.2,1.3,2,2.5,2h4.2
			c1.2,0,2.2-0.8,2.5-2l0.5-2.1c1.4-0.4,2.8-1,4.1-1.7l1.9,1.1c1,0.6,2.4,0.5,3.2-0.4l3-3c0.8-0.8,1-2.2,0.4-3.2l-1.1-1.9
			c0.7-1.3,1.3-2.7,1.7-4.1l2.1-0.5c1.2-0.3,2-1.3,2-2.5v-4.2C62.1,1128.3,61.3,1127.2,60.1,1127z"/>
	</g>
	<g transform="matrix(0.999999,0,0,0.999999,3174.31,-741.59)">
		<path class="st16" d="M39.8,1139.2c-4.2,0-7.7-3.4-7.7-7.7s3.4-7.7,7.7-7.7c4.2,0,7.7,3.4,7.7,7.7S44,1139.2,39.8,1139.2z
			 M39.8,1120.8c-5.9,0-10.8,4.8-10.8,10.8c0,5.9,4.8,10.8,10.8,10.8c5.9,0,10.8-4.8,10.8-10.8C50.6,1125.6,45.8,1120.8,39.8,1120.8
			z"/>
	</g>
</g>
</svg>
